ISO-10303-21;
HEADER;
/* Generated by software containing ST-Developer
 * from STEP Tools, Inc. (www.steptools.com) 
 */
/* OPTION: using custom renumber hook */

FILE_DESCRIPTION(
/* description */ ('STEP AP242 Edition 2',
'CAx-IF Rec.Pracs.---Representation and Presentation of Product Manufa
cturing Information (PMI)---4.0---2014-10-13',
'CAx-IF Rec.Pracs.---3D Tessellated Geometry---0.4---2014-09-14','2;1',
'CAx-IF Rec.Pracs.---User Defined Attributes---1.5---2016-08-15'),
/* implementation_level */ '2;1');

FILE_NAME(
/* name */ 'Part Studio 1 - Part 2',
/* time_stamp */ '2026-08-18T20:35:41Z',
/* author */ (''),
/* organization */ (''),
/* preprocessor_version */ 'ST-DEVELOPER v20',
/* originating_system */ 'ONSHAPE BY PTC INC, 1.219',
/* authorisation */ '  ');

FILE_SCHEMA (('AP242_MANAGED_MODEL_BASED_3D_ENGINEERING_MIM_LF { 1 0 10303 442 3 1 4 }'));
ENDSEC;

DATA;
#10=SHAPE_REPRESENTATION_RELATIONSHIP('','',#533,#11);
#11=ADVANCED_BREP_SHAPE_REPRESENTATION('',(#531),#927);
#12=SPHERICAL_SURFACE('',#551,0.01);
#13=SPHERICAL_SURFACE('',#562,0.01);
#14=SPHERICAL_SURFACE('',#564,0.01);
#15=SPHERICAL_SURFACE('',#570,0.01);
#16=SPHERICAL_SURFACE('',#580,0.008);
#17=SPHERICAL_SURFACE('',#591,0.008);
#18=SPHERICAL_SURFACE('',#593,0.008);
#19=SPHERICAL_SURFACE('',#599,0.008);
#20=CYLINDRICAL_SURFACE('',#549,0.01);
#21=CYLINDRICAL_SURFACE('',#554,0.01);
#22=CYLINDRICAL_SURFACE('',#556,0.01);
#23=CYLINDRICAL_SURFACE('',#558,0.01);
#24=CYLINDRICAL_SURFACE('',#560,0.01);
#25=CYLINDRICAL_SURFACE('',#566,0.01);
#26=CYLINDRICAL_SURFACE('',#568,0.01);
#27=CYLINDRICAL_SURFACE('',#572,0.01);
#28=CYLINDRICAL_SURFACE('',#578,0.008);
#29=CYLINDRICAL_SURFACE('',#583,0.008);
#30=CYLINDRICAL_SURFACE('',#585,0.008);
#31=CYLINDRICAL_SURFACE('',#587,0.008);
#32=CYLINDRICAL_SURFACE('',#589,0.008);
#33=CYLINDRICAL_SURFACE('',#595,0.008);
#34=CYLINDRICAL_SURFACE('',#597,0.008);
#35=CYLINDRICAL_SURFACE('',#601,0.008);
#36=CIRCLE('',#536,0.01);
#37=CIRCLE('',#537,0.01);
#38=CIRCLE('',#538,0.01);
#39=CIRCLE('',#539,0.01);
#40=CIRCLE('',#540,0.008);
#41=CIRCLE('',#541,0.008);
#42=CIRCLE('',#542,0.008);
#43=CIRCLE('',#543,0.008);
#44=CIRCLE('',#550,0.01);
#45=CIRCLE('',#552,0.01);
#46=CIRCLE('',#553,0.01);
#47=CIRCLE('',#555,0.01);
#48=CIRCLE('',#557,0.01);
#49=CIRCLE('',#559,0.01);
#50=CIRCLE('',#561,0.01);
#51=CIRCLE('',#563,0.01);
#52=CIRCLE('',#565,0.01);
#53=CIRCLE('',#567,0.01);
#54=CIRCLE('',#569,0.01);
#55=CIRCLE('',#571,0.01);
#56=CIRCLE('',#579,0.008);
#57=CIRCLE('',#581,0.008);
#58=CIRCLE('',#582,0.008);
#59=CIRCLE('',#584,0.008);
#60=CIRCLE('',#586,0.008);
#61=CIRCLE('',#588,0.008);
#62=CIRCLE('',#590,0.008);
#63=CIRCLE('',#592,0.008);
#64=CIRCLE('',#594,0.008);
#65=CIRCLE('',#596,0.008);
#66=CIRCLE('',#598,0.008);
#67=CIRCLE('',#600,0.008);
#68=ORIENTED_EDGE('',*,*,#212,.F.);
#69=ORIENTED_EDGE('',*,*,#213,.T.);
#70=ORIENTED_EDGE('',*,*,#214,.T.);
#71=ORIENTED_EDGE('',*,*,#215,.T.);
#72=ORIENTED_EDGE('',*,*,#216,.T.);
#73=ORIENTED_EDGE('',*,*,#217,.T.);
#74=ORIENTED_EDGE('',*,*,#218,.F.);
#75=ORIENTED_EDGE('',*,*,#219,.T.);
#76=ORIENTED_EDGE('',*,*,#220,.F.);
#77=ORIENTED_EDGE('',*,*,#221,.T.);
#78=ORIENTED_EDGE('',*,*,#222,.F.);
#79=ORIENTED_EDGE('',*,*,#223,.T.);
#80=ORIENTED_EDGE('',*,*,#224,.F.);
#81=ORIENTED_EDGE('',*,*,#225,.F.);
#82=ORIENTED_EDGE('',*,*,#226,.F.);
#83=ORIENTED_EDGE('',*,*,#227,.F.);
#84=ORIENTED_EDGE('',*,*,#214,.F.);
#85=ORIENTED_EDGE('',*,*,#228,.T.);
#86=ORIENTED_EDGE('',*,*,#229,.T.);
#87=ORIENTED_EDGE('',*,*,#230,.T.);
#88=ORIENTED_EDGE('',*,*,#231,.T.);
#89=ORIENTED_EDGE('',*,*,#232,.T.);
#90=ORIENTED_EDGE('',*,*,#212,.T.);
#91=ORIENTED_EDGE('',*,*,#233,.T.);
#92=ORIENTED_EDGE('',*,*,#234,.T.);
#93=ORIENTED_EDGE('',*,*,#235,.T.);
#94=ORIENTED_EDGE('',*,*,#218,.T.);
#95=ORIENTED_EDGE('',*,*,#236,.T.);
#96=ORIENTED_EDGE('',*,*,#237,.T.);
#97=ORIENTED_EDGE('',*,*,#238,.T.);
#98=ORIENTED_EDGE('',*,*,#216,.F.);
#99=ORIENTED_EDGE('',*,*,#239,.T.);
#100=ORIENTED_EDGE('',*,*,#240,.T.);
#101=ORIENTED_EDGE('',*,*,#241,.T.);
#102=ORIENTED_EDGE('',*,*,#242,.T.);
#103=ORIENTED_EDGE('',*,*,#243,.T.);
#104=ORIENTED_EDGE('',*,*,#244,.F.);
#105=ORIENTED_EDGE('',*,*,#236,.F.);
#106=ORIENTED_EDGE('',*,*,#217,.F.);
#107=ORIENTED_EDGE('',*,*,#238,.F.);
#108=ORIENTED_EDGE('',*,*,#245,.F.);
#109=ORIENTED_EDGE('',*,*,#244,.T.);
#110=ORIENTED_EDGE('',*,*,#246,.F.);
#111=ORIENTED_EDGE('',*,*,#215,.F.);
#112=ORIENTED_EDGE('',*,*,#230,.F.);
#113=ORIENTED_EDGE('',*,*,#247,.F.);
#114=ORIENTED_EDGE('',*,*,#239,.F.);
#115=ORIENTED_EDGE('',*,*,#246,.T.);
#116=ORIENTED_EDGE('',*,*,#237,.F.);
#117=ORIENTED_EDGE('',*,*,#248,.F.);
#118=ORIENTED_EDGE('',*,*,#242,.F.);
#119=ORIENTED_EDGE('',*,*,#245,.T.);
#120=ORIENTED_EDGE('',*,*,#241,.F.);
#121=ORIENTED_EDGE('',*,*,#249,.F.);
#122=ORIENTED_EDGE('',*,*,#234,.F.);
#123=ORIENTED_EDGE('',*,*,#219,.F.);
#124=ORIENTED_EDGE('',*,*,#235,.F.);
#125=ORIENTED_EDGE('',*,*,#250,.F.);
#126=ORIENTED_EDGE('',*,*,#233,.F.);
#127=ORIENTED_EDGE('',*,*,#248,.T.);
#128=ORIENTED_EDGE('',*,*,#247,.T.);
#129=ORIENTED_EDGE('',*,*,#251,.F.);
#130=ORIENTED_EDGE('',*,*,#250,.T.);
#131=ORIENTED_EDGE('',*,*,#249,.T.);
#132=ORIENTED_EDGE('',*,*,#252,.F.);
#133=ORIENTED_EDGE('',*,*,#251,.T.);
#134=ORIENTED_EDGE('',*,*,#229,.F.);
#135=ORIENTED_EDGE('',*,*,#253,.F.);
#136=ORIENTED_EDGE('',*,*,#243,.F.);
#137=ORIENTED_EDGE('',*,*,#252,.T.);
#138=ORIENTED_EDGE('',*,*,#240,.F.);
#139=ORIENTED_EDGE('',*,*,#254,.F.);
#140=ORIENTED_EDGE('',*,*,#231,.F.);
#141=ORIENTED_EDGE('',*,*,#254,.T.);
#142=ORIENTED_EDGE('',*,*,#253,.T.);
#143=ORIENTED_EDGE('',*,*,#255,.F.);
#144=ORIENTED_EDGE('',*,*,#255,.T.);
#145=ORIENTED_EDGE('',*,*,#228,.F.);
#146=ORIENTED_EDGE('',*,*,#213,.F.);
#147=ORIENTED_EDGE('',*,*,#232,.F.);
#148=ORIENTED_EDGE('',*,*,#227,.T.);
#149=ORIENTED_EDGE('',*,*,#256,.F.);
#150=ORIENTED_EDGE('',*,*,#257,.F.);
#151=ORIENTED_EDGE('',*,*,#258,.F.);
#152=ORIENTED_EDGE('',*,*,#259,.F.);
#153=ORIENTED_EDGE('',*,*,#260,.F.);
#154=ORIENTED_EDGE('',*,*,#221,.F.);
#155=ORIENTED_EDGE('',*,*,#261,.F.);
#156=ORIENTED_EDGE('',*,*,#262,.F.);
#157=ORIENTED_EDGE('',*,*,#263,.F.);
#158=ORIENTED_EDGE('',*,*,#223,.F.);
#159=ORIENTED_EDGE('',*,*,#264,.F.);
#160=ORIENTED_EDGE('',*,*,#265,.F.);
#161=ORIENTED_EDGE('',*,*,#266,.F.);
#162=ORIENTED_EDGE('',*,*,#225,.T.);
#163=ORIENTED_EDGE('',*,*,#267,.F.);
#164=ORIENTED_EDGE('',*,*,#268,.F.);
#165=ORIENTED_EDGE('',*,*,#269,.F.);
#166=ORIENTED_EDGE('',*,*,#270,.F.);
#167=ORIENTED_EDGE('',*,*,#271,.F.);
#168=ORIENTED_EDGE('',*,*,#272,.T.);
#169=ORIENTED_EDGE('',*,*,#267,.T.);
#170=ORIENTED_EDGE('',*,*,#224,.T.);
#171=ORIENTED_EDGE('',*,*,#263,.T.);
#172=ORIENTED_EDGE('',*,*,#273,.T.);
#173=ORIENTED_EDGE('',*,*,#274,.T.);
#174=ORIENTED_EDGE('',*,*,#272,.F.);
#175=ORIENTED_EDGE('',*,*,#226,.T.);
#176=ORIENTED_EDGE('',*,*,#266,.T.);
#177=ORIENTED_EDGE('',*,*,#275,.T.);
#178=ORIENTED_EDGE('',*,*,#256,.T.);
#179=ORIENTED_EDGE('',*,*,#274,.F.);
#180=ORIENTED_EDGE('',*,*,#270,.T.);
#181=ORIENTED_EDGE('',*,*,#276,.T.);
#182=ORIENTED_EDGE('',*,*,#265,.T.);
#183=ORIENTED_EDGE('',*,*,#273,.F.);
#184=ORIENTED_EDGE('',*,*,#262,.T.);
#185=ORIENTED_EDGE('',*,*,#277,.T.);
#186=ORIENTED_EDGE('',*,*,#271,.T.);
#187=ORIENTED_EDGE('',*,*,#222,.T.);
#188=ORIENTED_EDGE('',*,*,#260,.T.);
#189=ORIENTED_EDGE('',*,*,#278,.T.);
#190=ORIENTED_EDGE('',*,*,#264,.T.);
#191=ORIENTED_EDGE('',*,*,#276,.F.);
#192=ORIENTED_EDGE('',*,*,#279,.T.);
#193=ORIENTED_EDGE('',*,*,#275,.F.);
#194=ORIENTED_EDGE('',*,*,#278,.F.);
#195=ORIENTED_EDGE('',*,*,#280,.T.);
#196=ORIENTED_EDGE('',*,*,#277,.F.);
#197=ORIENTED_EDGE('',*,*,#279,.F.);
#198=ORIENTED_EDGE('',*,*,#269,.T.);
#199=ORIENTED_EDGE('',*,*,#281,.T.);
#200=ORIENTED_EDGE('',*,*,#257,.T.);
#201=ORIENTED_EDGE('',*,*,#280,.F.);
#202=ORIENTED_EDGE('',*,*,#259,.T.);
#203=ORIENTED_EDGE('',*,*,#282,.T.);
#204=ORIENTED_EDGE('',*,*,#268,.T.);
#205=ORIENTED_EDGE('',*,*,#282,.F.);
#206=ORIENTED_EDGE('',*,*,#283,.T.);
#207=ORIENTED_EDGE('',*,*,#281,.F.);
#208=ORIENTED_EDGE('',*,*,#283,.F.);
#209=ORIENTED_EDGE('',*,*,#261,.T.);
#210=ORIENTED_EDGE('',*,*,#220,.T.);
#211=ORIENTED_EDGE('',*,*,#258,.T.);
#212=EDGE_CURVE('',#284,#285,#324,.T.);
#213=EDGE_CURVE('',#284,#286,#36,.F.);
#214=EDGE_CURVE('',#286,#287,#325,.T.);
#215=EDGE_CURVE('',#287,#288,#37,.F.);
#216=EDGE_CURVE('',#288,#289,#326,.T.);
#217=EDGE_CURVE('',#289,#290,#38,.F.);
#218=EDGE_CURVE('',#291,#290,#327,.T.);
#219=EDGE_CURVE('',#291,#285,#39,.F.);
#220=EDGE_CURVE('',#292,#293,#40,.F.);
#221=EDGE_CURVE('',#292,#294,#328,.T.);
#222=EDGE_CURVE('',#295,#294,#41,.F.);
#223=EDGE_CURVE('',#295,#296,#329,.T.);
#224=EDGE_CURVE('',#297,#296,#42,.F.);
#225=EDGE_CURVE('',#298,#297,#330,.T.);
#226=EDGE_CURVE('',#299,#298,#43,.F.);
#227=EDGE_CURVE('',#293,#299,#331,.T.);
#228=EDGE_CURVE('',#286,#300,#332,.F.);
#229=EDGE_CURVE('',#300,#301,#333,.T.);
#230=EDGE_CURVE('',#301,#287,#334,.T.);
#231=EDGE_CURVE('',#302,#303,#335,.F.);
#232=EDGE_CURVE('',#303,#284,#336,.T.);
#233=EDGE_CURVE('',#285,#302,#337,.F.);
#234=EDGE_CURVE('',#304,#305,#338,.F.);
#235=EDGE_CURVE('',#305,#291,#339,.T.);
#236=EDGE_CURVE('',#290,#304,#340,.F.);
#237=EDGE_CURVE('',#306,#307,#341,.T.);
#238=EDGE_CURVE('',#307,#289,#342,.T.);
#239=EDGE_CURVE('',#288,#306,#343,.F.);
#240=EDGE_CURVE('',#308,#309,#344,.T.);
#241=EDGE_CURVE('',#309,#310,#345,.T.);
#242=EDGE_CURVE('',#310,#311,#346,.F.);
#243=EDGE_CURVE('',#311,#308,#347,.F.);
#244=EDGE_CURVE('',#304,#307,#44,.T.);
#245=EDGE_CURVE('',#304,#310,#45,.F.);
#246=EDGE_CURVE('',#310,#307,#46,.F.);
#247=EDGE_CURVE('',#306,#301,#47,.T.);
#248=EDGE_CURVE('',#311,#306,#48,.T.);
#249=EDGE_CURVE('',#305,#309,#49,.T.);
#250=EDGE_CURVE('',#302,#305,#50,.T.);
#251=EDGE_CURVE('',#311,#301,#51,.F.);
#252=EDGE_CURVE('',#302,#309,#52,.F.);
#253=EDGE_CURVE('',#308,#300,#53,.T.);
#254=EDGE_CURVE('',#303,#308,#54,.T.);
#255=EDGE_CURVE('',#303,#300,#55,.F.);
#256=EDGE_CURVE('',#312,#299,#348,.F.);
#257=EDGE_CURVE('',#313,#312,#349,.F.);
#258=EDGE_CURVE('',#293,#313,#350,.T.);
#259=EDGE_CURVE('',#314,#315,#351,.T.);
#260=EDGE_CURVE('',#294,#314,#352,.T.);
#261=EDGE_CURVE('',#315,#292,#353,.F.);
#262=EDGE_CURVE('',#316,#317,#354,.T.);
#263=EDGE_CURVE('',#296,#316,#355,.T.);
#264=EDGE_CURVE('',#317,#295,#356,.F.);
#265=EDGE_CURVE('',#318,#319,#357,.F.);
#266=EDGE_CURVE('',#298,#318,#358,.T.);
#267=EDGE_CURVE('',#319,#297,#359,.F.);
#268=EDGE_CURVE('',#320,#321,#360,.T.);
#269=EDGE_CURVE('',#322,#320,#361,.T.);
#270=EDGE_CURVE('',#323,#322,#362,.F.);
#271=EDGE_CURVE('',#321,#323,#363,.F.);
#272=EDGE_CURVE('',#316,#319,#56,.T.);
#273=EDGE_CURVE('',#316,#323,#57,.T.);
#274=EDGE_CURVE('',#323,#319,#58,.F.);
#275=EDGE_CURVE('',#318,#312,#59,.F.);
#276=EDGE_CURVE('',#322,#318,#60,.T.);
#277=EDGE_CURVE('',#317,#321,#61,.F.);
#278=EDGE_CURVE('',#314,#317,#62,.T.);
#279=EDGE_CURVE('',#322,#312,#63,.F.);
#280=EDGE_CURVE('',#314,#321,#64,.T.);
#281=EDGE_CURVE('',#320,#313,#65,.F.);
#282=EDGE_CURVE('',#315,#320,#66,.T.);
#283=EDGE_CURVE('',#315,#313,#67,.F.);
#284=VERTEX_POINT('',#781);
#285=VERTEX_POINT('',#782);
#286=VERTEX_POINT('',#784);
#287=VERTEX_POINT('',#786);
#288=VERTEX_POINT('',#788);
#289=VERTEX_POINT('',#790);
#290=VERTEX_POINT('',#792);
#291=VERTEX_POINT('',#794);
#292=VERTEX_POINT('',#797);
#293=VERTEX_POINT('',#798);
#294=VERTEX_POINT('',#800);
#295=VERTEX_POINT('',#802);
#296=VERTEX_POINT('',#804);
#297=VERTEX_POINT('',#806);
#298=VERTEX_POINT('',#808);
#299=VERTEX_POINT('',#810);
#300=VERTEX_POINT('',#814);
#301=VERTEX_POINT('',#816);
#302=VERTEX_POINT('',#820);
#303=VERTEX_POINT('',#821);
#304=VERTEX_POINT('',#826);
#305=VERTEX_POINT('',#827);
#306=VERTEX_POINT('',#832);
#307=VERTEX_POINT('',#833);
#308=VERTEX_POINT('',#838);
#309=VERTEX_POINT('',#839);
#310=VERTEX_POINT('',#841);
#311=VERTEX_POINT('',#843);
#312=VERTEX_POINT('',#871);
#313=VERTEX_POINT('',#873);
#314=VERTEX_POINT('',#877);
#315=VERTEX_POINT('',#878);
#316=VERTEX_POINT('',#883);
#317=VERTEX_POINT('',#884);
#318=VERTEX_POINT('',#889);
#319=VERTEX_POINT('',#890);
#320=VERTEX_POINT('',#895);
#321=VERTEX_POINT('',#896);
#322=VERTEX_POINT('',#898);
#323=VERTEX_POINT('',#900);
#324=LINE('',#780,#364);
#325=LINE('',#785,#365);
#326=LINE('',#789,#366);
#327=LINE('',#793,#367);
#328=LINE('',#799,#368);
#329=LINE('',#803,#369);
#330=LINE('',#807,#370);
#331=LINE('',#811,#371);
#332=LINE('',#813,#372);
#333=LINE('',#815,#373);
#334=LINE('',#817,#374);
#335=LINE('',#819,#375);
#336=LINE('',#822,#376);
#337=LINE('',#823,#377);
#338=LINE('',#825,#378);
#339=LINE('',#828,#379);
#340=LINE('',#829,#380);
#341=LINE('',#831,#381);
#342=LINE('',#834,#382);
#343=LINE('',#835,#383);
#344=LINE('',#837,#384);
#345=LINE('',#840,#385);
#346=LINE('',#842,#386);
#347=LINE('',#844,#387);
#348=LINE('',#870,#388);
#349=LINE('',#872,#389);
#350=LINE('',#874,#390);
#351=LINE('',#876,#391);
#352=LINE('',#879,#392);
#353=LINE('',#880,#393);
#354=LINE('',#882,#394);
#355=LINE('',#885,#395);
#356=LINE('',#886,#396);
#357=LINE('',#888,#397);
#358=LINE('',#891,#398);
#359=LINE('',#892,#399);
#360=LINE('',#894,#400);
#361=LINE('',#897,#401);
#362=LINE('',#899,#402);
#363=LINE('',#901,#403);
#364=VECTOR('',#606,1.);
#365=VECTOR('',#609,1.);
#366=VECTOR('',#612,1.);
#367=VECTOR('',#615,1.);
#368=VECTOR('',#620,1.);
#369=VECTOR('',#623,1.);
#370=VECTOR('',#626,1.);
#371=VECTOR('',#629,1.);
#372=VECTOR('',#632,1.);
#373=VECTOR('',#633,1.);
#374=VECTOR('',#634,1.);
#375=VECTOR('',#637,1.);
#376=VECTOR('',#638,1.);
#377=VECTOR('',#639,1.);
#378=VECTOR('',#642,1.);
#379=VECTOR('',#643,1.);
#380=VECTOR('',#644,1.);
#381=VECTOR('',#647,1.);
#382=VECTOR('',#648,1.);
#383=VECTOR('',#649,1.);
#384=VECTOR('',#652,1.);
#385=VECTOR('',#653,1.);
#386=VECTOR('',#654,1.);
#387=VECTOR('',#655,1.);
#388=VECTOR('',#706,1.);
#389=VECTOR('',#707,1.);
#390=VECTOR('',#708,1.);
#391=VECTOR('',#711,1.);
#392=VECTOR('',#712,1.);
#393=VECTOR('',#713,1.);
#394=VECTOR('',#716,1.);
#395=VECTOR('',#717,1.);
#396=VECTOR('',#718,1.);
#397=VECTOR('',#721,1.);
#398=VECTOR('',#722,1.);
#399=VECTOR('',#723,1.);
#400=VECTOR('',#726,1.);
#401=VECTOR('',#727,1.);
#402=VECTOR('',#728,1.);
#403=VECTOR('',#729,1.);
#404=EDGE_LOOP('',(#68,#69,#70,#71,#72,#73,#74,#75));
#405=EDGE_LOOP('',(#76,#77,#78,#79,#80,#81,#82,#83));
#406=EDGE_LOOP('',(#84,#85,#86,#87));
#407=EDGE_LOOP('',(#88,#89,#90,#91));
#408=EDGE_LOOP('',(#92,#93,#94,#95));
#409=EDGE_LOOP('',(#96,#97,#98,#99));
#410=EDGE_LOOP('',(#100,#101,#102,#103));
#411=EDGE_LOOP('',(#104,#105,#106,#107));
#412=EDGE_LOOP('',(#108,#109,#110));
#413=EDGE_LOOP('',(#111,#112,#113,#114));
#414=EDGE_LOOP('',(#115,#116,#117,#118));
#415=EDGE_LOOP('',(#119,#120,#121,#122));
#416=EDGE_LOOP('',(#123,#124,#125,#126));
#417=EDGE_LOOP('',(#127,#128,#129));
#418=EDGE_LOOP('',(#130,#131,#132));
#419=EDGE_LOOP('',(#133,#134,#135,#136));
#420=EDGE_LOOP('',(#137,#138,#139,#140));
#421=EDGE_LOOP('',(#141,#142,#143));
#422=EDGE_LOOP('',(#144,#145,#146,#147));
#423=EDGE_LOOP('',(#148,#149,#150,#151));
#424=EDGE_LOOP('',(#152,#153,#154,#155));
#425=EDGE_LOOP('',(#156,#157,#158,#159));
#426=EDGE_LOOP('',(#160,#161,#162,#163));
#427=EDGE_LOOP('',(#164,#165,#166,#167));
#428=EDGE_LOOP('',(#168,#169,#170,#171));
#429=EDGE_LOOP('',(#172,#173,#174));
#430=EDGE_LOOP('',(#175,#176,#177,#178));
#431=EDGE_LOOP('',(#179,#180,#181,#182));
#432=EDGE_LOOP('',(#183,#184,#185,#186));
#433=EDGE_LOOP('',(#187,#188,#189,#190));
#434=EDGE_LOOP('',(#191,#192,#193));
#435=EDGE_LOOP('',(#194,#195,#196));
#436=EDGE_LOOP('',(#197,#198,#199,#200));
#437=EDGE_LOOP('',(#201,#202,#203,#204));
#438=EDGE_LOOP('',(#205,#206,#207));
#439=EDGE_LOOP('',(#208,#209,#210,#211));
#440=FACE_BOUND('',#404,.T.);
#441=FACE_BOUND('',#405,.T.);
#442=FACE_BOUND('',#406,.T.);
#443=FACE_BOUND('',#407,.T.);
#444=FACE_BOUND('',#408,.T.);
#445=FACE_BOUND('',#409,.T.);
#446=FACE_BOUND('',#410,.T.);
#447=FACE_BOUND('',#411,.T.);
#448=FACE_BOUND('',#412,.T.);
#449=FACE_BOUND('',#413,.T.);
#450=FACE_BOUND('',#414,.T.);
#451=FACE_BOUND('',#415,.T.);
#452=FACE_BOUND('',#416,.T.);
#453=FACE_BOUND('',#417,.T.);
#454=FACE_BOUND('',#418,.T.);
#455=FACE_BOUND('',#419,.T.);
#456=FACE_BOUND('',#420,.T.);
#457=FACE_BOUND('',#421,.T.);
#458=FACE_BOUND('',#422,.T.);
#459=FACE_BOUND('',#423,.T.);
#460=FACE_BOUND('',#424,.T.);
#461=FACE_BOUND('',#425,.T.);
#462=FACE_BOUND('',#426,.T.);
#463=FACE_BOUND('',#427,.T.);
#464=FACE_BOUND('',#428,.T.);
#465=FACE_BOUND('',#429,.T.);
#466=FACE_BOUND('',#430,.T.);
#467=FACE_BOUND('',#431,.T.);
#468=FACE_BOUND('',#432,.T.);
#469=FACE_BOUND('',#433,.T.);
#470=FACE_BOUND('',#434,.T.);
#471=FACE_BOUND('',#435,.T.);
#472=FACE_BOUND('',#436,.T.);
#473=FACE_BOUND('',#437,.T.);
#474=FACE_BOUND('',#438,.T.);
#475=FACE_BOUND('',#439,.T.);
#476=PLANE('',#535);
#477=PLANE('',#544);
#478=PLANE('',#545);
#479=PLANE('',#546);
#480=PLANE('',#547);
#481=PLANE('',#548);
#482=PLANE('',#573);
#483=PLANE('',#574);
#484=PLANE('',#575);
#485=PLANE('',#576);
#486=PLANE('',#577);
#487=ADVANCED_FACE('',(#440,#441),#476,.F.);
#488=ADVANCED_FACE('',(#442),#477,.T.);
#489=ADVANCED_FACE('',(#443),#478,.F.);
#490=ADVANCED_FACE('',(#444),#479,.F.);
#491=ADVANCED_FACE('',(#445),#480,.T.);
#492=ADVANCED_FACE('',(#446),#481,.T.);
#493=ADVANCED_FACE('',(#447),#20,.T.);
#494=ADVANCED_FACE('',(#448),#12,.T.);
#495=ADVANCED_FACE('',(#449),#21,.T.);
#496=ADVANCED_FACE('',(#450),#22,.T.);
#497=ADVANCED_FACE('',(#451),#23,.T.);
#498=ADVANCED_FACE('',(#452),#24,.T.);
#499=ADVANCED_FACE('',(#453),#13,.T.);
#500=ADVANCED_FACE('',(#454),#14,.T.);
#501=ADVANCED_FACE('',(#455),#25,.T.);
#502=ADVANCED_FACE('',(#456),#26,.T.);
#503=ADVANCED_FACE('',(#457),#15,.T.);
#504=ADVANCED_FACE('',(#458),#27,.T.);
#505=ADVANCED_FACE('',(#459),#482,.F.);
#506=ADVANCED_FACE('',(#460),#483,.T.);
#507=ADVANCED_FACE('',(#461),#484,.T.);
#508=ADVANCED_FACE('',(#462),#485,.F.);
#509=ADVANCED_FACE('',(#463),#486,.F.);
#510=ADVANCED_FACE('',(#464),#28,.F.);
#511=ADVANCED_FACE('',(#465),#16,.F.);
#512=ADVANCED_FACE('',(#466),#29,.F.);
#513=ADVANCED_FACE('',(#467),#30,.F.);
#514=ADVANCED_FACE('',(#468),#31,.F.);
#515=ADVANCED_FACE('',(#469),#32,.F.);
#516=ADVANCED_FACE('',(#470),#17,.F.);
#517=ADVANCED_FACE('',(#471),#18,.F.);
#518=ADVANCED_FACE('',(#472),#33,.F.);
#519=ADVANCED_FACE('',(#473),#34,.F.);
#520=ADVANCED_FACE('',(#474),#19,.F.);
#521=ADVANCED_FACE('',(#475),#35,.F.);
#522=CLOSED_SHELL('',(#487,#488,#489,#490,#491,#492,#493,#494,#495,#496,
#497,#498,#499,#500,#501,#502,#503,#504,#505,#506,#507,#508,#509,#510,#511,
#512,#513,#514,#515,#516,#517,#518,#519,#520,#521));
#523=STYLED_ITEM('',(#524),#531);
#524=PRESENTATION_STYLE_ASSIGNMENT((#525));
#525=SURFACE_STYLE_USAGE(.BOTH.,#526);
#526=SURFACE_SIDE_STYLE('',(#527));
#527=SURFACE_STYLE_FILL_AREA(#528);
#528=FILL_AREA_STYLE('',(#529));
#529=FILL_AREA_STYLE_COLOUR('',#530);
#530=COLOUR_RGB('',0.917647058823529,0.917647058823529,0.917647058823529);
#531=MANIFOLD_SOLID_BREP('Part 2',#522);
#532=SHAPE_DEFINITION_REPRESENTATION(#932,#533);
#533=SHAPE_REPRESENTATION('Part 2',(#534),#927);
#534=AXIS2_PLACEMENT_3D('',#778,#602,#603);
#535=AXIS2_PLACEMENT_3D('',#779,#604,#605);
#536=AXIS2_PLACEMENT_3D('',#783,#607,#608);
#537=AXIS2_PLACEMENT_3D('',#787,#610,#611);
#538=AXIS2_PLACEMENT_3D('',#791,#613,#614);
#539=AXIS2_PLACEMENT_3D('',#795,#616,#617);
#540=AXIS2_PLACEMENT_3D('',#796,#618,#619);
#541=AXIS2_PLACEMENT_3D('',#801,#621,#622);
#542=AXIS2_PLACEMENT_3D('',#805,#624,#625);
#543=AXIS2_PLACEMENT_3D('',#809,#627,#628);
#544=AXIS2_PLACEMENT_3D('',#812,#630,#631);
#545=AXIS2_PLACEMENT_3D('',#818,#635,#636);
#546=AXIS2_PLACEMENT_3D('',#824,#640,#641);
#547=AXIS2_PLACEMENT_3D('',#830,#645,#646);
#548=AXIS2_PLACEMENT_3D('',#836,#650,#651);
#549=AXIS2_PLACEMENT_3D('',#845,#656,#657);
#550=AXIS2_PLACEMENT_3D('',#846,#658,#659);
#551=AXIS2_PLACEMENT_3D('',#847,#660,#661);
#552=AXIS2_PLACEMENT_3D('',#848,#662,#663);
#553=AXIS2_PLACEMENT_3D('',#849,#664,#665);
#554=AXIS2_PLACEMENT_3D('',#850,#666,#667);
#555=AXIS2_PLACEMENT_3D('',#851,#668,#669);
#556=AXIS2_PLACEMENT_3D('',#852,#670,#671);
#557=AXIS2_PLACEMENT_3D('',#853,#672,#673);
#558=AXIS2_PLACEMENT_3D('',#854,#674,#675);
#559=AXIS2_PLACEMENT_3D('',#855,#676,#677);
#560=AXIS2_PLACEMENT_3D('',#856,#678,#679);
#561=AXIS2_PLACEMENT_3D('',#857,#680,#681);
#562=AXIS2_PLACEMENT_3D('',#858,#682,#683);
#563=AXIS2_PLACEMENT_3D('',#859,#684,#685);
#564=AXIS2_PLACEMENT_3D('',#860,#686,#687);
#565=AXIS2_PLACEMENT_3D('',#861,#688,#689);
#566=AXIS2_PLACEMENT_3D('',#862,#690,#691);
#567=AXIS2_PLACEMENT_3D('',#863,#692,#693);
#568=AXIS2_PLACEMENT_3D('',#864,#694,#695);
#569=AXIS2_PLACEMENT_3D('',#865,#696,#697);
#570=AXIS2_PLACEMENT_3D('',#866,#698,#699);
#571=AXIS2_PLACEMENT_3D('',#867,#700,#701);
#572=AXIS2_PLACEMENT_3D('',#868,#702,#703);
#573=AXIS2_PLACEMENT_3D('',#869,#704,#705);
#574=AXIS2_PLACEMENT_3D('',#875,#709,#710);
#575=AXIS2_PLACEMENT_3D('',#881,#714,#715);
#576=AXIS2_PLACEMENT_3D('',#887,#719,#720);
#577=AXIS2_PLACEMENT_3D('',#893,#724,#725);
#578=AXIS2_PLACEMENT_3D('',#902,#730,#731);
#579=AXIS2_PLACEMENT_3D('',#903,#732,#733);
#580=AXIS2_PLACEMENT_3D('',#904,#734,#735);
#581=AXIS2_PLACEMENT_3D('',#905,#736,#737);
#582=AXIS2_PLACEMENT_3D('',#906,#738,#739);
#583=AXIS2_PLACEMENT_3D('',#907,#740,#741);
#584=AXIS2_PLACEMENT_3D('',#908,#742,#743);
#585=AXIS2_PLACEMENT_3D('',#909,#744,#745);
#586=AXIS2_PLACEMENT_3D('',#910,#746,#747);
#587=AXIS2_PLACEMENT_3D('',#911,#748,#749);
#588=AXIS2_PLACEMENT_3D('',#912,#750,#751);
#589=AXIS2_PLACEMENT_3D('',#913,#752,#753);
#590=AXIS2_PLACEMENT_3D('',#914,#754,#755);
#591=AXIS2_PLACEMENT_3D('',#915,#756,#757);
#592=AXIS2_PLACEMENT_3D('',#916,#758,#759);
#593=AXIS2_PLACEMENT_3D('',#917,#760,#761);
#594=AXIS2_PLACEMENT_3D('',#918,#762,#763);
#595=AXIS2_PLACEMENT_3D('',#919,#764,#765);
#596=AXIS2_PLACEMENT_3D('',#920,#766,#767);
#597=AXIS2_PLACEMENT_3D('',#921,#768,#769);
#598=AXIS2_PLACEMENT_3D('',#922,#770,#771);
#599=AXIS2_PLACEMENT_3D('',#923,#772,#773);
#600=AXIS2_PLACEMENT_3D('',#924,#774,#775);
#601=AXIS2_PLACEMENT_3D('',#925,#776,#777);
#602=DIRECTION('',(0.,0.,1.));
#603=DIRECTION('',(1.,0.,0.));
#604=DIRECTION('',(0.,0.,1.));
#605=DIRECTION('',(1.,0.,0.));
#606=DIRECTION('',(9.37688365392869E-17,1.,0.));
#607=DIRECTION('',(0.,0.,1.));
#608=DIRECTION('',(1.,0.,0.));
#609=DIRECTION('',(-1.,-9.37688365392869E-17,0.));
#610=DIRECTION('',(0.,0.,1.));
#611=DIRECTION('',(1.,0.,0.));
#612=DIRECTION('',(9.37688365392869E-17,1.,0.));
#613=DIRECTION('',(0.,0.,1.));
#614=DIRECTION('',(1.,0.,0.));
#615=DIRECTION('',(-1.,-1.87537673078574E-16,0.));
#616=DIRECTION('',(0.,0.,1.));
#617=DIRECTION('',(1.,0.,0.));
#618=DIRECTION('',(0.,0.,1.));
#619=DIRECTION('',(1.,0.,0.));
#620=DIRECTION('',(9.37688365392869E-17,1.,0.));
#621=DIRECTION('',(0.,0.,1.));
#622=DIRECTION('',(1.,0.,0.));
#623=DIRECTION('',(-1.,-1.87537673078574E-16,0.));
#624=DIRECTION('',(0.,0.,1.));
#625=DIRECTION('',(1.,0.,0.));
#626=DIRECTION('',(9.37688365392869E-17,1.,0.));
#627=DIRECTION('',(0.,0.,1.));
#628=DIRECTION('',(1.,0.,0.));
#629=DIRECTION('',(-1.,-9.37688365392869E-17,0.));
#630=DIRECTION('',(9.37688365392869E-17,-1.,0.));
#631=DIRECTION('',(1.,9.37688365392869E-17,0.));
#632=DIRECTION('',(0.,0.,-1.));
#633=DIRECTION('',(-1.,-9.37688365392869E-17,0.));
#634=DIRECTION('',(0.,0.,-1.));
#635=DIRECTION('',(-1.,9.37688365392869E-17,0.));
#636=DIRECTION('',(-9.37688365392869E-17,-1.,0.));
#637=DIRECTION('',(9.37688365392869E-17,1.,0.));
#638=DIRECTION('',(0.,0.,-1.));
#639=DIRECTION('',(0.,0.,-1.));
#640=DIRECTION('',(1.87537673078574E-16,-1.,0.));
#641=DIRECTION('',(1.,1.87537673078574E-16,0.));
#642=DIRECTION('',(-1.,-1.87537673078574E-16,0.));
#643=DIRECTION('',(0.,0.,-1.));
#644=DIRECTION('',(0.,0.,-1.));
#645=DIRECTION('',(-1.,9.37688365392869E-17,0.));
#646=DIRECTION('',(-9.37688365392869E-17,-1.,0.));
#647=DIRECTION('',(9.37688365392869E-17,1.,0.));
#648=DIRECTION('',(0.,0.,-1.));
#649=DIRECTION('',(0.,0.,-1.));
#650=DIRECTION('',(0.,0.,1.));
#651=DIRECTION('',(1.,0.,0.));
#652=DIRECTION('',(9.37688365392869E-17,1.,0.));
#653=DIRECTION('',(-1.,-1.87537673078574E-16,0.));
#654=DIRECTION('',(9.37688365392869E-17,1.,0.));
#655=DIRECTION('',(-1.,-9.37688365392869E-17,0.));
#656=DIRECTION('',(0.,0.,1.));
#657=DIRECTION('',(1.,0.,0.));
#658=DIRECTION('',(0.,0.,1.));
#659=DIRECTION('',(1.,0.,0.));
#660=DIRECTION('',(-1.,0.,0.));
#661=DIRECTION('',(0.,0.,1.));
#662=DIRECTION('',(-1.,-3.46944695195362E-16,0.));
#663=DIRECTION('',(3.46944695195362E-16,-1.,0.));
#664=DIRECTION('',(0.,1.,0.));
#665=DIRECTION('',(0.,0.,1.));
#666=DIRECTION('',(0.,0.,-1.));
#667=DIRECTION('',(-1.,0.,0.));
#668=DIRECTION('',(0.,0.,1.));
#669=DIRECTION('',(1.,0.,0.));
#670=DIRECTION('',(9.37688365392869E-17,1.,0.));
#671=DIRECTION('',(-1.,9.37688365392869E-17,0.));
#672=DIRECTION('',(0.,-1.,0.));
#673=DIRECTION('',(0.,0.,-1.));
#674=DIRECTION('',(1.,1.87537673078574E-16,0.));
#675=DIRECTION('',(-1.87537673078574E-16,1.,0.));
#676=DIRECTION('',(1.,3.46944695195362E-16,1.20370621524202E-31));
#677=DIRECTION('',(-3.46944695195362E-16,1.,0.));
#678=DIRECTION('',(0.,0.,-1.));
#679=DIRECTION('',(-1.,0.,0.));
#680=DIRECTION('',(0.,0.,1.));
#681=DIRECTION('',(1.,0.,0.));
#682=DIRECTION('',(-1.,0.,0.));
#683=DIRECTION('',(0.,0.,1.));
#684=DIRECTION('',(-1.,0.,0.));
#685=DIRECTION('',(0.,0.,1.));
#686=DIRECTION('',(-3.46944695195361E-16,1.,0.));
#687=DIRECTION('',(-1.,-3.46944695195361E-16,0.));
#688=DIRECTION('',(0.,1.,0.));
#689=DIRECTION('',(0.,0.,1.));
#690=DIRECTION('',(-1.,-9.37688365392869E-17,0.));
#691=DIRECTION('',(9.37688365392869E-17,-1.,0.));
#692=DIRECTION('',(1.,0.,0.));
#693=DIRECTION('',(0.,0.,-1.));
#694=DIRECTION('',(-9.37688365392869E-17,-1.,0.));
#695=DIRECTION('',(1.,-9.37688365392869E-17,0.));
#696=DIRECTION('',(0.,-1.,0.));
#697=DIRECTION('',(0.,0.,-1.));
#698=DIRECTION('',(0.,0.,1.));
#699=DIRECTION('',(1.,0.,0.));
#700=DIRECTION('',(0.,0.,1.));
#701=DIRECTION('',(1.,0.,0.));
#702=DIRECTION('',(0.,0.,1.));
#703=DIRECTION('',(1.,0.,0.));
#704=DIRECTION('',(9.37688365392869E-17,-1.,0.));
#705=DIRECTION('',(1.,9.37688365392869E-17,0.));
#706=DIRECTION('',(0.,0.,1.));
#707=DIRECTION('',(1.,9.37688365392869E-17,0.));
#708=DIRECTION('',(0.,0.,1.));
#709=DIRECTION('',(-1.,9.37688365392869E-17,0.));
#710=DIRECTION('',(-9.37688365392869E-17,-1.,0.));
#711=DIRECTION('',(-9.37688365392869E-17,-1.,0.));
#712=DIRECTION('',(0.,0.,1.));
#713=DIRECTION('',(0.,0.,1.));
#714=DIRECTION('',(1.87537673078574E-16,-1.,0.));
#715=DIRECTION('',(1.,1.87537673078574E-16,0.));
#716=DIRECTION('',(1.,1.87537673078574E-16,0.));
#717=DIRECTION('',(0.,0.,1.));
#718=DIRECTION('',(0.,0.,1.));
#719=DIRECTION('',(-1.,9.37688365392869E-17,0.));
#720=DIRECTION('',(-9.37688365392869E-17,-1.,0.));
#721=DIRECTION('',(-9.37688365392869E-17,-1.,0.));
#722=DIRECTION('',(0.,0.,1.));
#723=DIRECTION('',(0.,0.,1.));
#724=DIRECTION('',(0.,0.,1.));
#725=DIRECTION('',(1.,0.,0.));
#726=DIRECTION('',(0.,1.,0.));
#727=DIRECTION('',(1.,0.,0.));
#728=DIRECTION('',(0.,1.,0.));
#729=DIRECTION('',(1.,0.,0.));
#730=DIRECTION('',(0.,0.,1.));
#731=DIRECTION('',(1.,0.,0.));
#732=DIRECTION('',(0.,-6.12323399573677E-17,1.));
#733=DIRECTION('',(0.,-1.,-6.12323399573677E-17));
#734=DIRECTION('',(-1.,0.,0.));
#735=DIRECTION('',(0.,0.,1.));
#736=DIRECTION('',(1.,1.87537673078574E-16,0.));
#737=DIRECTION('',(-1.87537673078574E-16,1.,0.));
#738=DIRECTION('',(9.37688365392869E-17,1.,0.));
#739=DIRECTION('',(-1.,9.37688365392869E-17,0.));
#740=DIRECTION('',(0.,0.,-1.));
#741=DIRECTION('',(-1.,0.,0.));
#742=DIRECTION('',(0.,1.83697019872103E-16,-1.));
#743=DIRECTION('',(0.,1.,1.83697019872103E-16));
#744=DIRECTION('',(9.37688365392869E-17,1.,0.));
#745=DIRECTION('',(-1.,9.37688365392869E-17,0.));
#746=DIRECTION('',(0.,-1.,0.));
#747=DIRECTION('',(0.,0.,-1.));
#748=DIRECTION('',(1.,1.87537673078574E-16,0.));
#749=DIRECTION('',(-1.87537673078574E-16,1.,0.));
#750=DIRECTION('',(-1.,-3.46944695195361E-16,-6.12323399573677E-17));
#751=DIRECTION('',(3.46944695195361E-16,-1.,0.));
#752=DIRECTION('',(0.,0.,-1.));
#753=DIRECTION('',(-1.,0.,0.));
#754=DIRECTION('',(-1.22464679914735E-16,-4.24884710452154E-32,1.));
#755=DIRECTION('',(1.,0.,1.22464679914735E-16));
#756=DIRECTION('',(-1.,0.,0.));
#757=DIRECTION('',(0.,0.,1.));
#758=DIRECTION('',(-1.,-9.37688365392869E-17,0.));
#759=DIRECTION('',(9.37688365392869E-17,-1.,0.));
#760=DIRECTION('',(-3.46944695195361E-16,1.,0.));
#761=DIRECTION('',(-1.,-3.46944695195361E-16,0.));
#762=DIRECTION('',(-9.37688365392869E-17,-1.,0.));
#763=DIRECTION('',(1.,-9.37688365392869E-17,0.));
#764=DIRECTION('',(-1.,-9.37688365392869E-17,0.));
#765=DIRECTION('',(9.37688365392869E-17,-1.,0.));
#766=DIRECTION('',(-1.,1.83697019872103E-16,0.));
#767=DIRECTION('',(-1.83697019872103E-16,-1.,0.));
#768=DIRECTION('',(-9.37688365392869E-17,-1.,0.));
#769=DIRECTION('',(1.,-9.37688365392869E-17,0.));
#770=DIRECTION('',(0.,-1.,0.));
#771=DIRECTION('',(0.,0.,-1.));
#772=DIRECTION('',(0.,0.,1.));
#773=DIRECTION('',(1.,0.,0.));
#774=DIRECTION('',(0.,0.,1.));
#775=DIRECTION('',(1.,0.,0.));
#776=DIRECTION('',(0.,0.,1.));
#777=DIRECTION('',(1.,0.,0.));
#778=CARTESIAN_POINT('',(0.,0.,0.));
#779=CARTESIAN_POINT('',(0.,0.,0.06));
#780=CARTESIAN_POINT('',(0.037,6.93889390390723E-18,0.06));
#781=CARTESIAN_POINT('',(0.037,-0.027,0.06));
#782=CARTESIAN_POINT('',(0.037,0.027,0.06));
#783=CARTESIAN_POINT('',(0.027,-0.027,0.06));
#784=CARTESIAN_POINT('',(0.027,-0.037,0.06));
#785=CARTESIAN_POINT('',(-6.93889390390723E-18,-0.037,0.06));
#786=CARTESIAN_POINT('',(-0.027,-0.037,0.06));
#787=CARTESIAN_POINT('',(-0.027,-0.027,0.06));
#788=CARTESIAN_POINT('',(-0.037,-0.027,0.06));
#789=CARTESIAN_POINT('',(-0.037,-6.93889390390723E-18,0.06));
#790=CARTESIAN_POINT('',(-0.037,0.027,0.06));
#791=CARTESIAN_POINT('',(-0.027,0.027,0.06));
#792=CARTESIAN_POINT('',(-0.027,0.037,0.06));
#793=CARTESIAN_POINT('',(6.93889390390723E-18,0.037,0.06));
#794=CARTESIAN_POINT('',(0.027,0.037,0.06));
#795=CARTESIAN_POINT('',(0.027,0.027,0.06));
#796=CARTESIAN_POINT('',(0.027,-0.027,0.06));
#797=CARTESIAN_POINT('',(0.035,-0.027,0.06));
#798=CARTESIAN_POINT('',(0.027,-0.035,0.06));
#799=CARTESIAN_POINT('',(0.035,7.1264315769858E-18,0.06));
#800=CARTESIAN_POINT('',(0.035,0.027,0.06));
#801=CARTESIAN_POINT('',(0.027,0.027,0.06));
#802=CARTESIAN_POINT('',(0.027,0.035,0.06));
#803=CARTESIAN_POINT('',(7.31396925006438E-18,0.035,0.06));
#804=CARTESIAN_POINT('',(-0.027,0.035,0.06));
#805=CARTESIAN_POINT('',(-0.027,0.027,0.06));
#806=CARTESIAN_POINT('',(-0.035,0.027,0.06));
#807=CARTESIAN_POINT('',(-0.035,-7.1264315769858E-18,0.06));
#808=CARTESIAN_POINT('',(-0.035,-0.027,0.06));
#809=CARTESIAN_POINT('',(-0.027,-0.027,0.06));
#810=CARTESIAN_POINT('',(-0.027,-0.035,0.06));
#811=CARTESIAN_POINT('',(-7.1264315769858E-18,-0.035,0.06));
#812=CARTESIAN_POINT('',(-6.93889390390723E-18,-0.037,0.074));
#813=CARTESIAN_POINT('',(0.027,-0.037,0.074));
#814=CARTESIAN_POINT('',(0.027,-0.037,0.064));
#815=CARTESIAN_POINT('',(-6.93889390390723E-18,-0.037,0.064));
#816=CARTESIAN_POINT('',(-0.027,-0.037,0.064));
#817=CARTESIAN_POINT('',(-0.027,-0.037,0.074));
#818=CARTESIAN_POINT('',(0.037,6.93889390390723E-18,0.074));
#819=CARTESIAN_POINT('',(0.037,-0.037,0.064));
#820=CARTESIAN_POINT('',(0.037,0.027,0.064));
#821=CARTESIAN_POINT('',(0.037,-0.027,0.064));
#822=CARTESIAN_POINT('',(0.037,-0.027,0.06));
#823=CARTESIAN_POINT('',(0.037,0.027,0.074));
#824=CARTESIAN_POINT('',(6.93889390390723E-18,0.037,0.074));
#825=CARTESIAN_POINT('',(0.037,0.037,0.064));
#826=CARTESIAN_POINT('',(-0.027,0.037,0.064));
#827=CARTESIAN_POINT('',(0.027,0.037,0.064));
#828=CARTESIAN_POINT('',(0.027,0.037,0.074));
#829=CARTESIAN_POINT('',(-0.027,0.037,0.074));
#830=CARTESIAN_POINT('',(-0.037,-6.93889390390723E-18,0.074));
#831=CARTESIAN_POINT('',(-0.037,-6.93889390390723E-18,0.064));
#832=CARTESIAN_POINT('',(-0.037,-0.027,0.064));
#833=CARTESIAN_POINT('',(-0.037,0.027,0.064));
#834=CARTESIAN_POINT('',(-0.037,0.027,0.06));
#835=CARTESIAN_POINT('',(-0.037,-0.027,0.074));
#836=CARTESIAN_POINT('',(0.,0.,0.074));
#837=CARTESIAN_POINT('',(0.027,0.037,0.074));
#838=CARTESIAN_POINT('',(0.027,-0.027,0.074));
#839=CARTESIAN_POINT('',(0.027,0.027,0.074));
#840=CARTESIAN_POINT('',(-0.037,0.027,0.074));
#841=CARTESIAN_POINT('',(-0.027,0.027,0.074));
#842=CARTESIAN_POINT('',(-0.027,2.53175858656075E-18,0.074));
#843=CARTESIAN_POINT('',(-0.027,-0.027,0.074));
#844=CARTESIAN_POINT('',(2.53175858656075E-18,-0.027,0.074));
#845=CARTESIAN_POINT('',(-0.027,0.027,0.074));
#846=CARTESIAN_POINT('',(-0.027,0.027,0.064));
#847=CARTESIAN_POINT('',(-0.027,0.027,0.064));
#848=CARTESIAN_POINT('',(-0.027,0.027,0.064));
#849=CARTESIAN_POINT('',(-0.027,0.027,0.064));
#850=CARTESIAN_POINT('',(-0.027,-0.027,0.074));
#851=CARTESIAN_POINT('',(-0.027,-0.027,0.064));
#852=CARTESIAN_POINT('',(-0.027,-7.8765822693001E-18,0.064));
#853=CARTESIAN_POINT('',(-0.027,-0.027,0.064));
#854=CARTESIAN_POINT('',(-5.06351717312149E-18,0.027,0.064));
#855=CARTESIAN_POINT('',(0.027,0.027,0.064));
#856=CARTESIAN_POINT('',(0.027,0.027,0.074));
#857=CARTESIAN_POINT('',(0.027,0.027,0.064));
#858=CARTESIAN_POINT('',(-0.027,-0.027,0.064));
#859=CARTESIAN_POINT('',(-0.027,-0.027,0.064));
#860=CARTESIAN_POINT('',(0.027,0.027,0.064));
#861=CARTESIAN_POINT('',(0.027,0.027,0.064));
#862=CARTESIAN_POINT('',(-7.8765822693001E-18,-0.027,0.064));
#863=CARTESIAN_POINT('',(0.027,-0.027,0.064));
#864=CARTESIAN_POINT('',(0.027,-2.53175858656075E-18,0.064));
#865=CARTESIAN_POINT('',(0.027,-0.027,0.064));
#866=CARTESIAN_POINT('',(0.027,-0.027,0.064));
#867=CARTESIAN_POINT('',(0.027,-0.027,0.064));
#868=CARTESIAN_POINT('',(0.027,-0.027,0.074));
#869=CARTESIAN_POINT('',(-7.1264315769858E-18,-0.035,0.074));
#870=CARTESIAN_POINT('',(-0.027,-0.035,0.074));
#871=CARTESIAN_POINT('',(-0.027,-0.035,0.064));
#872=CARTESIAN_POINT('',(-7.1264315769858E-18,-0.035,0.064));
#873=CARTESIAN_POINT('',(0.027,-0.035,0.064));
#874=CARTESIAN_POINT('',(0.027,-0.035,0.074));
#875=CARTESIAN_POINT('',(0.035,7.1264315769858E-18,0.074));
#876=CARTESIAN_POINT('',(0.035,7.1264315769858E-18,0.064));
#877=CARTESIAN_POINT('',(0.035,0.027,0.064));
#878=CARTESIAN_POINT('',(0.035,-0.027,0.064));
#879=CARTESIAN_POINT('',(0.035,0.027,0.074));
#880=CARTESIAN_POINT('',(0.035,-0.027,0.074));
#881=CARTESIAN_POINT('',(7.31396925006438E-18,0.035,0.074));
#882=CARTESIAN_POINT('',(7.31396925006438E-18,0.035,0.064));
#883=CARTESIAN_POINT('',(-0.027,0.035,0.064));
#884=CARTESIAN_POINT('',(0.027,0.035,0.064));
#885=CARTESIAN_POINT('',(-0.027,0.035,0.074));
#886=CARTESIAN_POINT('',(0.027,0.035,0.074));
#887=CARTESIAN_POINT('',(-0.035,-7.1264315769858E-18,0.074));
#888=CARTESIAN_POINT('',(-0.035,-7.1264315769858E-18,0.064));
#889=CARTESIAN_POINT('',(-0.035,-0.027,0.064));
#890=CARTESIAN_POINT('',(-0.035,0.027,0.064));
#891=CARTESIAN_POINT('',(-0.035,-0.027,0.074));
#892=CARTESIAN_POINT('',(-0.035,0.027,0.074));
#893=CARTESIAN_POINT('',(0.,0.,0.072));
#894=CARTESIAN_POINT('',(0.027,0.,0.072));
#895=CARTESIAN_POINT('',(0.027,-0.027,0.072));
#896=CARTESIAN_POINT('',(0.027,0.027,0.072));
#897=CARTESIAN_POINT('',(0.,-0.027,0.072));
#898=CARTESIAN_POINT('',(-0.027,-0.027,0.072));
#899=CARTESIAN_POINT('',(-0.027,0.,0.072));
#900=CARTESIAN_POINT('',(-0.027,0.027,0.072));
#901=CARTESIAN_POINT('',(0.,0.027,0.072));
#902=CARTESIAN_POINT('',(-0.027,0.027,0.074));
#903=CARTESIAN_POINT('',(-0.027,0.027,0.064));
#904=CARTESIAN_POINT('',(-0.027,0.027,0.064));
#905=CARTESIAN_POINT('',(-0.027,0.027,0.064));
#906=CARTESIAN_POINT('',(-0.027,0.027,0.064));
#907=CARTESIAN_POINT('',(-0.027,-0.027,0.074));
#908=CARTESIAN_POINT('',(-0.027,-0.027,0.064));
#909=CARTESIAN_POINT('',(-0.027,-7.8765822693001E-18,0.064));
#910=CARTESIAN_POINT('',(-0.027,-0.027,0.064));
#911=CARTESIAN_POINT('',(-5.06351717312149E-18,0.027,0.064));
#912=CARTESIAN_POINT('',(0.027,0.027,0.064));
#913=CARTESIAN_POINT('',(0.027,0.027,0.074));
#914=CARTESIAN_POINT('',(0.027,0.027,0.064));
#915=CARTESIAN_POINT('',(-0.027,-0.027,0.064));
#916=CARTESIAN_POINT('',(-0.027,-0.027,0.064));
#917=CARTESIAN_POINT('',(0.027,0.027,0.064));
#918=CARTESIAN_POINT('',(0.027,0.027,0.064));
#919=CARTESIAN_POINT('',(-7.8765822693001E-18,-0.027,0.064));
#920=CARTESIAN_POINT('',(0.027,-0.027,0.064));
#921=CARTESIAN_POINT('',(0.027,-2.53175858656075E-18,0.064));
#922=CARTESIAN_POINT('',(0.027,-0.027,0.064));
#923=CARTESIAN_POINT('',(0.027,-0.027,0.064));
#924=CARTESIAN_POINT('',(0.027,-0.027,0.064));
#925=CARTESIAN_POINT('',(0.027,-0.027,0.074));
#926=MECHANICAL_DESIGN_GEOMETRIC_PRESENTATION_REPRESENTATION('',(#523),
#927);
#927=(
GEOMETRIC_REPRESENTATION_CONTEXT(3)
GLOBAL_UNCERTAINTY_ASSIGNED_CONTEXT((#928))
GLOBAL_UNIT_ASSIGNED_CONTEXT((#931,#930,#929))
REPRESENTATION_CONTEXT('Part 2','TOP_LEVEL_ASSEMBLY_PART')
);
#928=UNCERTAINTY_MEASURE_WITH_UNIT(LENGTH_MEASURE(1.E-8),#931,
'DISTANCE_ACCURACY_VALUE','Maximum Tolerance applied to model');
#929=(
NAMED_UNIT(*)
SI_UNIT($,.STERADIAN.)
SOLID_ANGLE_UNIT()
);
#930=(
NAMED_UNIT(*)
PLANE_ANGLE_UNIT()
SI_UNIT($,.RADIAN.)
);
#931=(
LENGTH_UNIT()
NAMED_UNIT(*)
SI_UNIT($,.METRE.)
);
#932=PRODUCT_DEFINITION_SHAPE('','',#933);
#933=PRODUCT_DEFINITION('','',#935,#934);
#934=PRODUCT_DEFINITION_CONTEXT('',#941,'design');
#935=PRODUCT_DEFINITION_FORMATION_WITH_SPECIFIED_SOURCE('','',#937,
 .NOT_KNOWN.);
#936=PRODUCT_RELATED_PRODUCT_CATEGORY('','',(#937));
#937=PRODUCT('Part 2','Part 2','Part 2',(#939));
#938=PRODUCT_CATEGORY('','');
#939=PRODUCT_CONTEXT('',#941,'mechanical');
#940=APPLICATION_PROTOCOL_DEFINITION('international standard',
'ap242_managed_model_based_3d_engineering',2020,#941);
#941=APPLICATION_CONTEXT('managed model based 3d engineering');
ENDSEC;
END-ISO-10303-21;
