ISO-10303-21;
HEADER;
/* Generated by software containing ST-Developer
 * from STEP Tools, Inc. (www.steptools.com) 
 */
/* OPTION: using custom renumber hook */

FILE_DESCRIPTION(
/* description */ ('STEP AP242 Edition 2',
'CAx-IF Rec.Pracs.---Representation and Presentation of Product Manufa
cturing Information (PMI)---4.0---2014-10-13',
'CAx-IF Rec.Pracs.---3D Tessellated Geometry---0.4---2014-09-14','2;1',
'CAx-IF Rec.Pracs.---User Defined Attributes---1.5---2016-08-15'),
/* implementation_level */ '2;1');

FILE_NAME(
/* name */ 'Part Studio 1 - Part 1',
/* time_stamp */ '2026-08-23T21:21:11Z',
/* author */ (''),
/* organization */ (''),
/* preprocessor_version */ 'ST-DEVELOPER v20',
/* originating_system */ 'ONSHAPE BY PTC INC, 1.219',
/* authorisation */ '  ');

FILE_SCHEMA (('AP242_MANAGED_MODEL_BASED_3D_ENGINEERING_MIM_LF { 1 0 10303 442 3 1 4 }'));
ENDSEC;

DATA;
#10=SHAPE_REPRESENTATION_RELATIONSHIP('','',#1415,#11);
#11=ADVANCED_BREP_SHAPE_REPRESENTATION('',(#1413),#2251);
#12=OVER_RIDING_STYLED_ITEM('',(#1280),#1216,#1278);
#13=OVER_RIDING_STYLED_ITEM('',(#1281),#1217,#1278);
#14=OVER_RIDING_STYLED_ITEM('',(#1282),#1226,#1278);
#15=OVER_RIDING_STYLED_ITEM('',(#1283),#1235,#1278);
#16=OVER_RIDING_STYLED_ITEM('',(#1284),#1236,#1278);
#17=OVER_RIDING_STYLED_ITEM('',(#1285),#1237,#1278);
#18=OVER_RIDING_STYLED_ITEM('',(#1286),#1246,#1278);
#19=OVER_RIDING_STYLED_ITEM('',(#1287),#1247,#1278);
#20=OVER_RIDING_STYLED_ITEM('',(#1288),#1248,#1278);
#21=OVER_RIDING_STYLED_ITEM('',(#1289),#1249,#1278);
#22=OVER_RIDING_STYLED_ITEM('',(#1290),#1250,#1278);
#23=OVER_RIDING_STYLED_ITEM('',(#1291),#1251,#1278);
#24=OVER_RIDING_STYLED_ITEM('',(#1292),#1252,#1278);
#25=OVER_RIDING_STYLED_ITEM('',(#1293),#1253,#1278);
#26=OVER_RIDING_STYLED_ITEM('',(#1294),#1254,#1278);
#27=OVER_RIDING_STYLED_ITEM('',(#1295),#1255,#1278);
#28=OVER_RIDING_STYLED_ITEM('',(#1296),#1256,#1278);
#29=OVER_RIDING_STYLED_ITEM('',(#1297),#1257,#1278);
#30=OVER_RIDING_STYLED_ITEM('',(#1298),#1258,#1278);
#31=OVER_RIDING_STYLED_ITEM('',(#1299),#1259,#1278);
#32=OVER_RIDING_STYLED_ITEM('',(#1300),#1260,#1278);
#33=CYLINDRICAL_SURFACE('',#1425,0.005);
#34=CYLINDRICAL_SURFACE('',#1426,0.0005);
#35=CYLINDRICAL_SURFACE('',#1439,0.005);
#36=CYLINDRICAL_SURFACE('',#1440,0.0005);
#37=CYLINDRICAL_SURFACE('',#1453,0.005);
#38=CYLINDRICAL_SURFACE('',#1457,0.0005);
#39=CYLINDRICAL_SURFACE('',#1472,0.005);
#40=CYLINDRICAL_SURFACE('',#1476,0.0005);
#41=CYLINDRICAL_SURFACE('',#1479,0.003);
#42=CYLINDRICAL_SURFACE('',#1482,0.003);
#43=CYLINDRICAL_SURFACE('',#1484,0.003);
#44=CYLINDRICAL_SURFACE('',#1487,0.003);
#45=CYLINDRICAL_SURFACE('',#1490,0.002);
#46=CYLINDRICAL_SURFACE('',#1493,0.002);
#47=CYLINDRICAL_SURFACE('',#1496,0.002);
#48=CYLINDRICAL_SURFACE('',#1498,0.002);
#49=CYLINDRICAL_SURFACE('',#1512,0.002);
#50=CYLINDRICAL_SURFACE('',#1514,0.002);
#51=CYLINDRICAL_SURFACE('',#1517,0.002);
#52=CYLINDRICAL_SURFACE('',#1519,0.002);
#53=CYLINDRICAL_SURFACE('',#1522,0.002);
#54=CYLINDRICAL_SURFACE('',#1525,0.002);
#55=CYLINDRICAL_SURFACE('',#1529,0.0015);
#56=LINE('',#1899,#184);
#57=LINE('',#1901,#185);
#58=LINE('',#1903,#186);
#59=LINE('',#1905,#187);
#60=LINE('',#1910,#188);
#61=LINE('',#1912,#189);
#62=LINE('',#1914,#190);
#63=LINE('',#1916,#191);
#64=LINE('',#1918,#192);
#65=LINE('',#1919,#193);
#66=LINE('',#1921,#194);
#67=LINE('',#1923,#195);
#68=LINE('',#1925,#196);
#69=LINE('',#1927,#197);
#70=LINE('',#1929,#198);
#71=LINE('',#1935,#199);
#72=LINE('',#1937,#200);
#73=LINE('',#1939,#201);
#74=LINE('',#1941,#202);
#75=LINE('',#1943,#203);
#76=LINE('',#1945,#204);
#77=LINE('',#1947,#205);
#78=LINE('',#1949,#206);
#79=LINE('',#1953,#207);
#80=LINE('',#1957,#208);
#81=LINE('',#1959,#209);
#82=LINE('',#1961,#210);
#83=LINE('',#1963,#211);
#84=LINE('',#1965,#212);
#85=LINE('',#1969,#213);
#86=LINE('',#1970,#214);
#87=LINE('',#1972,#215);
#88=LINE('',#1974,#216);
#89=LINE('',#1976,#217);
#90=LINE('',#1978,#218);
#91=LINE('',#1987,#219);
#92=LINE('',#1991,#220);
#93=LINE('',#1995,#221);
#94=LINE('',#2001,#222);
#95=LINE('',#2004,#223);
#96=LINE('',#2008,#224);
#97=LINE('',#2010,#225);
#98=LINE('',#2013,#226);
#99=LINE('',#2015,#227);
#100=LINE('',#2019,#228);
#101=LINE('',#2020,#229);
#102=LINE('',#2022,#230);
#103=LINE('',#2024,#231);
#104=LINE('',#2026,#232);
#105=LINE('',#2027,#233);
#106=LINE('',#2030,#234);
#107=LINE('',#2032,#235);
#108=LINE('',#2034,#236);
#109=LINE('',#2040,#237);
#110=LINE('',#2042,#238);
#111=LINE('',#2044,#239);
#112=LINE('',#2046,#240);
#113=LINE('',#2048,#241);
#114=LINE('',#2050,#242);
#115=LINE('',#2056,#243);
#116=LINE('',#2061,#244);
#117=LINE('',#2063,#245);
#118=LINE('',#2065,#246);
#119=LINE('',#2067,#247);
#120=LINE('',#2069,#248);
#121=LINE('',#2071,#249);
#122=LINE('',#2073,#250);
#123=LINE('',#2075,#251);
#124=LINE('',#2077,#252);
#125=LINE('',#2079,#253);
#126=LINE('',#2081,#254);
#127=LINE('',#2087,#255);
#128=LINE('',#2089,#256);
#129=LINE('',#2091,#257);
#130=LINE('',#2093,#258);
#131=LINE('',#2096,#259);
#132=LINE('',#2098,#260);
#133=LINE('',#2100,#261);
#134=LINE('',#2101,#262);
#135=LINE('',#2102,#263);
#136=LINE('',#2105,#264);
#137=LINE('',#2113,#265);
#138=LINE('',#2115,#266);
#139=LINE('',#2117,#267);
#140=LINE('',#2123,#268);
#141=LINE('',#2125,#269);
#142=LINE('',#2127,#270);
#143=LINE('',#2131,#271);
#144=LINE('',#2134,#272);
#145=LINE('',#2135,#273);
#146=LINE('',#2137,#274);
#147=LINE('',#2139,#275);
#148=LINE('',#2143,#276);
#149=LINE('',#2145,#277);
#150=LINE('',#2147,#278);
#151=LINE('',#2151,#279);
#152=LINE('',#2153,#280);
#153=LINE('',#2155,#281);
#154=LINE('',#2157,#282);
#155=LINE('',#2159,#283);
#156=LINE('',#2170,#284);
#157=LINE('',#2174,#285);
#158=LINE('',#2177,#286);
#159=LINE('',#2181,#287);
#160=LINE('',#2186,#288);
#161=LINE('',#2189,#289);
#162=LINE('',#2191,#290);
#163=LINE('',#2193,#291);
#164=LINE('',#2195,#292);
#165=LINE('',#2197,#293);
#166=LINE('',#2199,#294);
#167=LINE('',#2201,#295);
#168=LINE('',#2203,#296);
#169=LINE('',#2205,#297);
#170=LINE('',#2207,#298);
#171=LINE('',#2211,#299);
#172=LINE('',#2213,#300);
#173=LINE('',#2217,#301);
#174=LINE('',#2219,#302);
#175=LINE('',#2221,#303);
#176=LINE('',#2225,#304);
#177=LINE('',#2229,#305);
#178=LINE('',#2231,#306);
#179=LINE('',#2233,#307);
#180=LINE('',#2237,#308);
#181=LINE('',#2239,#309);
#182=LINE('',#2243,#310);
#183=LINE('',#2245,#311);
#184=VECTOR('',#1540,1.);
#185=VECTOR('',#1541,1.);
#186=VECTOR('',#1542,1.);
#187=VECTOR('',#1545,1.);
#188=VECTOR('',#1548,1.);
#189=VECTOR('',#1549,1.);
#190=VECTOR('',#1552,1.);
#191=VECTOR('',#1553,1.);
#192=VECTOR('',#1554,1.);
#193=VECTOR('',#1555,1.);
#194=VECTOR('',#1558,1.);
#195=VECTOR('',#1561,1.);
#196=VECTOR('',#1562,1.);
#197=VECTOR('',#1563,1.);
#198=VECTOR('',#1566,1.);
#199=VECTOR('',#1575,1.);
#200=VECTOR('',#1576,1.);
#201=VECTOR('',#1577,1.);
#202=VECTOR('',#1580,1.);
#203=VECTOR('',#1581,1.);
#204=VECTOR('',#1582,1.);
#205=VECTOR('',#1583,1.);
#206=VECTOR('',#1584,1.);
#207=VECTOR('',#1589,1.);
#208=VECTOR('',#1592,1.);
#209=VECTOR('',#1595,1.);
#210=VECTOR('',#1596,1.);
#211=VECTOR('',#1597,1.);
#212=VECTOR('',#1598,1.);
#213=VECTOR('',#1603,1.);
#214=VECTOR('',#1604,1.);
#215=VECTOR('',#1607,1.);
#216=VECTOR('',#1610,1.);
#217=VECTOR('',#1611,1.);
#218=VECTOR('',#1612,1.);
#219=VECTOR('',#1625,1.);
#220=VECTOR('',#1628,1.);
#221=VECTOR('',#1631,1.);
#222=VECTOR('',#1638,1.);
#223=VECTOR('',#1639,1.);
#224=VECTOR('',#1642,1.);
#225=VECTOR('',#1645,1.);
#226=VECTOR('',#1646,1.);
#227=VECTOR('',#1647,1.);
#228=VECTOR('',#1652,1.);
#229=VECTOR('',#1653,1.);
#230=VECTOR('',#1656,1.);
#231=VECTOR('',#1657,1.);
#232=VECTOR('',#1658,1.);
#233=VECTOR('',#1659,1.);
#234=VECTOR('',#1664,1.);
#235=VECTOR('',#1665,1.);
#236=VECTOR('',#1666,1.);
#237=VECTOR('',#1675,1.);
#238=VECTOR('',#1676,1.);
#239=VECTOR('',#1677,1.);
#240=VECTOR('',#1678,1.);
#241=VECTOR('',#1679,1.);
#242=VECTOR('',#1680,1.);
#243=VECTOR('',#1687,1.);
#244=VECTOR('',#1692,1.);
#245=VECTOR('',#1695,1.);
#246=VECTOR('',#1696,1.);
#247=VECTOR('',#1697,1.);
#248=VECTOR('',#1698,1.);
#249=VECTOR('',#1699,1.);
#250=VECTOR('',#1700,1.);
#251=VECTOR('',#1701,1.);
#252=VECTOR('',#1702,1.);
#253=VECTOR('',#1703,1.);
#254=VECTOR('',#1704,1.);
#255=VECTOR('',#1711,1.);
#256=VECTOR('',#1712,1.);
#257=VECTOR('',#1715,1.);
#258=VECTOR('',#1716,1.);
#259=VECTOR('',#1719,1.);
#260=VECTOR('',#1722,1.);
#261=VECTOR('',#1725,1.);
#262=VECTOR('',#1726,1.);
#263=VECTOR('',#1727,1.);
#264=VECTOR('',#1732,1.);
#265=VECTOR('',#1743,1.);
#266=VECTOR('',#1746,1.);
#267=VECTOR('',#1747,1.);
#268=VECTOR('',#1756,1.);
#269=VECTOR('',#1759,1.);
#270=VECTOR('',#1760,1.);
#271=VECTOR('',#1767,1.);
#272=VECTOR('',#1768,1.);
#273=VECTOR('',#1769,1.);
#274=VECTOR('',#1770,1.);
#275=VECTOR('',#1771,1.);
#276=VECTOR('',#1776,1.);
#277=VECTOR('',#1779,1.);
#278=VECTOR('',#1780,1.);
#279=VECTOR('',#1785,1.);
#280=VECTOR('',#1788,1.);
#281=VECTOR('',#1789,1.);
#282=VECTOR('',#1790,1.);
#283=VECTOR('',#1791,1.);
#284=VECTOR('',#1808,1.);
#285=VECTOR('',#1811,1.);
#286=VECTOR('',#1814,1.);
#287=VECTOR('',#1817,1.);
#288=VECTOR('',#1822,1.);
#289=VECTOR('',#1823,1.);
#290=VECTOR('',#1824,1.);
#291=VECTOR('',#1825,1.);
#292=VECTOR('',#1828,1.);
#293=VECTOR('',#1829,1.);
#294=VECTOR('',#1830,1.);
#295=VECTOR('',#1833,1.);
#296=VECTOR('',#1834,1.);
#297=VECTOR('',#1837,1.);
#298=VECTOR('',#1838,1.);
#299=VECTOR('',#1843,1.);
#300=VECTOR('',#1846,1.);
#301=VECTOR('',#1851,1.);
#302=VECTOR('',#1852,1.);
#303=VECTOR('',#1855,1.);
#304=VECTOR('',#1860,1.);
#305=VECTOR('',#1865,1.);
#306=VECTOR('',#1866,1.);
#307=VECTOR('',#1869,1.);
#308=VECTOR('',#1874,1.);
#309=VECTOR('',#1875,1.);
#310=VECTOR('',#1882,1.);
#311=VECTOR('',#1885,1.);
#312=ORIENTED_EDGE('',*,*,#660,.T.);
#313=ORIENTED_EDGE('',*,*,#661,.T.);
#314=ORIENTED_EDGE('',*,*,#662,.T.);
#315=ORIENTED_EDGE('',*,*,#663,.F.);
#316=ORIENTED_EDGE('',*,*,#664,.F.);
#317=ORIENTED_EDGE('',*,*,#665,.F.);
#318=ORIENTED_EDGE('',*,*,#666,.T.);
#319=ORIENTED_EDGE('',*,*,#667,.T.);
#320=ORIENTED_EDGE('',*,*,#668,.T.);
#321=ORIENTED_EDGE('',*,*,#663,.T.);
#322=ORIENTED_EDGE('',*,*,#669,.T.);
#323=ORIENTED_EDGE('',*,*,#670,.T.);
#324=ORIENTED_EDGE('',*,*,#671,.F.);
#325=ORIENTED_EDGE('',*,*,#668,.F.);
#326=ORIENTED_EDGE('',*,*,#672,.F.);
#327=ORIENTED_EDGE('',*,*,#667,.F.);
#328=ORIENTED_EDGE('',*,*,#673,.T.);
#329=ORIENTED_EDGE('',*,*,#664,.T.);
#330=ORIENTED_EDGE('',*,*,#672,.T.);
#331=ORIENTED_EDGE('',*,*,#674,.F.);
#332=ORIENTED_EDGE('',*,*,#675,.T.);
#333=ORIENTED_EDGE('',*,*,#676,.T.);
#334=ORIENTED_EDGE('',*,*,#670,.F.);
#335=ORIENTED_EDGE('',*,*,#677,.F.);
#336=ORIENTED_EDGE('',*,*,#661,.F.);
#337=ORIENTED_EDGE('',*,*,#673,.F.);
#338=ORIENTED_EDGE('',*,*,#666,.F.);
#339=ORIENTED_EDGE('',*,*,#678,.T.);
#340=ORIENTED_EDGE('',*,*,#660,.F.);
#341=ORIENTED_EDGE('',*,*,#678,.F.);
#342=ORIENTED_EDGE('',*,*,#669,.F.);
#343=ORIENTED_EDGE('',*,*,#679,.F.);
#344=ORIENTED_EDGE('',*,*,#680,.T.);
#345=ORIENTED_EDGE('',*,*,#681,.F.);
#346=ORIENTED_EDGE('',*,*,#662,.F.);
#347=ORIENTED_EDGE('',*,*,#677,.T.);
#348=ORIENTED_EDGE('',*,*,#665,.T.);
#349=ORIENTED_EDGE('',*,*,#682,.T.);
#350=ORIENTED_EDGE('',*,*,#683,.F.);
#351=ORIENTED_EDGE('',*,*,#684,.F.);
#352=ORIENTED_EDGE('',*,*,#685,.T.);
#353=ORIENTED_EDGE('',*,*,#686,.F.);
#354=ORIENTED_EDGE('',*,*,#679,.T.);
#355=ORIENTED_EDGE('',*,*,#687,.F.);
#356=ORIENTED_EDGE('',*,*,#688,.T.);
#357=ORIENTED_EDGE('',*,*,#686,.T.);
#358=ORIENTED_EDGE('',*,*,#689,.T.);
#359=ORIENTED_EDGE('',*,*,#690,.F.);
#360=ORIENTED_EDGE('',*,*,#680,.F.);
#361=ORIENTED_EDGE('',*,*,#688,.F.);
#362=ORIENTED_EDGE('',*,*,#691,.T.);
#363=ORIENTED_EDGE('',*,*,#692,.T.);
#364=ORIENTED_EDGE('',*,*,#693,.T.);
#365=ORIENTED_EDGE('',*,*,#694,.F.);
#366=ORIENTED_EDGE('',*,*,#695,.T.);
#367=ORIENTED_EDGE('',*,*,#696,.F.);
#368=ORIENTED_EDGE('',*,*,#692,.F.);
#369=ORIENTED_EDGE('',*,*,#697,.F.);
#370=ORIENTED_EDGE('',*,*,#690,.T.);
#371=ORIENTED_EDGE('',*,*,#698,.T.);
#372=ORIENTED_EDGE('',*,*,#697,.T.);
#373=ORIENTED_EDGE('',*,*,#691,.F.);
#374=ORIENTED_EDGE('',*,*,#699,.F.);
#375=ORIENTED_EDGE('',*,*,#694,.T.);
#376=ORIENTED_EDGE('',*,*,#700,.F.);
#377=ORIENTED_EDGE('',*,*,#701,.F.);
#378=ORIENTED_EDGE('',*,*,#685,.F.);
#379=ORIENTED_EDGE('',*,*,#695,.F.);
#380=ORIENTED_EDGE('',*,*,#698,.F.);
#381=ORIENTED_EDGE('',*,*,#689,.F.);
#382=ORIENTED_EDGE('',*,*,#702,.F.);
#383=ORIENTED_EDGE('',*,*,#687,.T.);
#384=ORIENTED_EDGE('',*,*,#702,.T.);
#385=ORIENTED_EDGE('',*,*,#693,.F.);
#386=ORIENTED_EDGE('',*,*,#703,.F.);
#387=ORIENTED_EDGE('',*,*,#704,.T.);
#388=ORIENTED_EDGE('',*,*,#705,.T.);
#389=ORIENTED_EDGE('',*,*,#706,.T.);
#390=ORIENTED_EDGE('',*,*,#707,.F.);
#391=ORIENTED_EDGE('',*,*,#708,.F.);
#392=ORIENTED_EDGE('',*,*,#709,.T.);
#393=ORIENTED_EDGE('',*,*,#710,.T.);
#394=ORIENTED_EDGE('',*,*,#711,.T.);
#395=ORIENTED_EDGE('',*,*,#712,.T.);
#396=ORIENTED_EDGE('',*,*,#713,.T.);
#397=ORIENTED_EDGE('',*,*,#714,.T.);
#398=ORIENTED_EDGE('',*,*,#715,.F.);
#399=ORIENTED_EDGE('',*,*,#716,.F.);
#400=ORIENTED_EDGE('',*,*,#717,.F.);
#401=ORIENTED_EDGE('',*,*,#718,.T.);
#402=ORIENTED_EDGE('',*,*,#713,.F.);
#403=ORIENTED_EDGE('',*,*,#719,.T.);
#404=ORIENTED_EDGE('',*,*,#718,.F.);
#405=ORIENTED_EDGE('',*,*,#720,.F.);
#406=ORIENTED_EDGE('',*,*,#716,.T.);
#407=ORIENTED_EDGE('',*,*,#721,.T.);
#408=ORIENTED_EDGE('',*,*,#722,.F.);
#409=ORIENTED_EDGE('',*,*,#723,.F.);
#410=ORIENTED_EDGE('',*,*,#711,.F.);
#411=ORIENTED_EDGE('',*,*,#724,.T.);
#412=ORIENTED_EDGE('',*,*,#714,.F.);
#413=ORIENTED_EDGE('',*,*,#720,.T.);
#414=ORIENTED_EDGE('',*,*,#717,.T.);
#415=ORIENTED_EDGE('',*,*,#724,.F.);
#416=ORIENTED_EDGE('',*,*,#725,.T.);
#417=ORIENTED_EDGE('',*,*,#722,.T.);
#418=ORIENTED_EDGE('',*,*,#726,.F.);
#419=ORIENTED_EDGE('',*,*,#727,.F.);
#420=ORIENTED_EDGE('',*,*,#728,.T.);
#421=ORIENTED_EDGE('',*,*,#710,.F.);
#422=ORIENTED_EDGE('',*,*,#728,.F.);
#423=ORIENTED_EDGE('',*,*,#729,.F.);
#424=ORIENTED_EDGE('',*,*,#715,.T.);
#425=ORIENTED_EDGE('',*,*,#719,.F.);
#426=ORIENTED_EDGE('',*,*,#712,.F.);
#427=ORIENTED_EDGE('',*,*,#730,.F.);
#428=ORIENTED_EDGE('',*,*,#731,.F.);
#429=ORIENTED_EDGE('',*,*,#732,.F.);
#430=ORIENTED_EDGE('',*,*,#733,.T.);
#431=ORIENTED_EDGE('',*,*,#734,.T.);
#432=ORIENTED_EDGE('',*,*,#735,.T.);
#433=ORIENTED_EDGE('',*,*,#671,.T.);
#434=ORIENTED_EDGE('',*,*,#736,.T.);
#435=ORIENTED_EDGE('',*,*,#737,.F.);
#436=ORIENTED_EDGE('',*,*,#738,.T.);
#437=ORIENTED_EDGE('',*,*,#721,.F.);
#438=ORIENTED_EDGE('',*,*,#739,.F.);
#439=ORIENTED_EDGE('',*,*,#740,.T.);
#440=ORIENTED_EDGE('',*,*,#725,.F.);
#441=ORIENTED_EDGE('',*,*,#727,.T.);
#442=ORIENTED_EDGE('',*,*,#741,.T.);
#443=ORIENTED_EDGE('',*,*,#742,.F.);
#444=ORIENTED_EDGE('',*,*,#743,.F.);
#445=ORIENTED_EDGE('',*,*,#744,.F.);
#446=ORIENTED_EDGE('',*,*,#745,.T.);
#447=ORIENTED_EDGE('',*,*,#746,.F.);
#448=ORIENTED_EDGE('',*,*,#747,.F.);
#449=ORIENTED_EDGE('',*,*,#748,.F.);
#450=ORIENTED_EDGE('',*,*,#749,.F.);
#451=ORIENTED_EDGE('',*,*,#750,.T.);
#452=ORIENTED_EDGE('',*,*,#751,.F.);
#453=ORIENTED_EDGE('',*,*,#752,.T.);
#454=ORIENTED_EDGE('',*,*,#731,.T.);
#455=ORIENTED_EDGE('',*,*,#753,.F.);
#456=ORIENTED_EDGE('',*,*,#754,.T.);
#457=ORIENTED_EDGE('',*,*,#755,.T.);
#458=ORIENTED_EDGE('',*,*,#756,.T.);
#459=ORIENTED_EDGE('',*,*,#757,.T.);
#460=ORIENTED_EDGE('',*,*,#758,.T.);
#461=ORIENTED_EDGE('',*,*,#757,.F.);
#462=ORIENTED_EDGE('',*,*,#732,.T.);
#463=ORIENTED_EDGE('',*,*,#752,.F.);
#464=ORIENTED_EDGE('',*,*,#759,.F.);
#465=ORIENTED_EDGE('',*,*,#706,.F.);
#466=ORIENTED_EDGE('',*,*,#755,.F.);
#467=ORIENTED_EDGE('',*,*,#760,.F.);
#468=ORIENTED_EDGE('',*,*,#753,.T.);
#469=ORIENTED_EDGE('',*,*,#761,.T.);
#470=ORIENTED_EDGE('',*,*,#762,.T.);
#471=ORIENTED_EDGE('',*,*,#758,.F.);
#472=ORIENTED_EDGE('',*,*,#759,.T.);
#473=ORIENTED_EDGE('',*,*,#754,.F.);
#474=ORIENTED_EDGE('',*,*,#760,.T.);
#475=ORIENTED_EDGE('',*,*,#749,.T.);
#476=ORIENTED_EDGE('',*,*,#748,.T.);
#477=ORIENTED_EDGE('',*,*,#763,.T.);
#478=ORIENTED_EDGE('',*,*,#762,.F.);
#479=ORIENTED_EDGE('',*,*,#764,.F.);
#480=ORIENTED_EDGE('',*,*,#751,.T.);
#481=ORIENTED_EDGE('',*,*,#764,.T.);
#482=ORIENTED_EDGE('',*,*,#729,.T.);
#483=ORIENTED_EDGE('',*,*,#765,.F.);
#484=ORIENTED_EDGE('',*,*,#766,.F.);
#485=ORIENTED_EDGE('',*,*,#739,.T.);
#486=ORIENTED_EDGE('',*,*,#766,.T.);
#487=ORIENTED_EDGE('',*,*,#767,.T.);
#488=ORIENTED_EDGE('',*,*,#768,.F.);
#489=ORIENTED_EDGE('',*,*,#740,.F.);
#490=ORIENTED_EDGE('',*,*,#768,.T.);
#491=ORIENTED_EDGE('',*,*,#769,.T.);
#492=ORIENTED_EDGE('',*,*,#682,.F.);
#493=ORIENTED_EDGE('',*,*,#735,.F.);
#494=ORIENTED_EDGE('',*,*,#696,.T.);
#495=ORIENTED_EDGE('',*,*,#684,.T.);
#496=ORIENTED_EDGE('',*,*,#770,.F.);
#497=ORIENTED_EDGE('',*,*,#771,.F.);
#498=ORIENTED_EDGE('',*,*,#703,.T.);
#499=ORIENTED_EDGE('',*,*,#771,.T.);
#500=ORIENTED_EDGE('',*,*,#772,.T.);
#501=ORIENTED_EDGE('',*,*,#773,.F.);
#502=ORIENTED_EDGE('',*,*,#704,.F.);
#503=ORIENTED_EDGE('',*,*,#773,.T.);
#504=ORIENTED_EDGE('',*,*,#774,.T.);
#505=ORIENTED_EDGE('',*,*,#733,.F.);
#506=ORIENTED_EDGE('',*,*,#756,.F.);
#507=ORIENTED_EDGE('',*,*,#705,.F.);
#508=ORIENTED_EDGE('',*,*,#775,.F.);
#509=ORIENTED_EDGE('',*,*,#776,.F.);
#510=ORIENTED_EDGE('',*,*,#708,.T.);
#511=ORIENTED_EDGE('',*,*,#777,.T.);
#512=ORIENTED_EDGE('',*,*,#778,.F.);
#513=ORIENTED_EDGE('',*,*,#779,.F.);
#514=ORIENTED_EDGE('',*,*,#776,.T.);
#515=ORIENTED_EDGE('',*,*,#780,.T.);
#516=ORIENTED_EDGE('',*,*,#781,.F.);
#517=ORIENTED_EDGE('',*,*,#700,.T.);
#518=ORIENTED_EDGE('',*,*,#709,.F.);
#519=ORIENTED_EDGE('',*,*,#675,.F.);
#520=ORIENTED_EDGE('',*,*,#674,.T.);
#521=ORIENTED_EDGE('',*,*,#681,.T.);
#522=ORIENTED_EDGE('',*,*,#699,.T.);
#523=ORIENTED_EDGE('',*,*,#701,.T.);
#524=ORIENTED_EDGE('',*,*,#781,.T.);
#525=ORIENTED_EDGE('',*,*,#782,.F.);
#526=ORIENTED_EDGE('',*,*,#783,.F.);
#527=ORIENTED_EDGE('',*,*,#676,.F.);
#528=ORIENTED_EDGE('',*,*,#783,.T.);
#529=ORIENTED_EDGE('',*,*,#784,.T.);
#530=ORIENTED_EDGE('',*,*,#785,.F.);
#531=ORIENTED_EDGE('',*,*,#736,.F.);
#532=ORIENTED_EDGE('',*,*,#786,.F.);
#533=ORIENTED_EDGE('',*,*,#787,.T.);
#534=ORIENTED_EDGE('',*,*,#788,.F.);
#535=ORIENTED_EDGE('',*,*,#789,.F.);
#536=ORIENTED_EDGE('',*,*,#737,.T.);
#537=ORIENTED_EDGE('',*,*,#785,.T.);
#538=ORIENTED_EDGE('',*,*,#789,.T.);
#539=ORIENTED_EDGE('',*,*,#790,.T.);
#540=ORIENTED_EDGE('',*,*,#741,.F.);
#541=ORIENTED_EDGE('',*,*,#726,.T.);
#542=ORIENTED_EDGE('',*,*,#738,.F.);
#543=ORIENTED_EDGE('',*,*,#763,.F.);
#544=ORIENTED_EDGE('',*,*,#747,.T.);
#545=ORIENTED_EDGE('',*,*,#791,.F.);
#546=ORIENTED_EDGE('',*,*,#777,.F.);
#547=ORIENTED_EDGE('',*,*,#707,.T.);
#548=ORIENTED_EDGE('',*,*,#730,.T.);
#549=ORIENTED_EDGE('',*,*,#723,.T.);
#550=ORIENTED_EDGE('',*,*,#750,.F.);
#551=ORIENTED_EDGE('',*,*,#761,.F.);
#552=ORIENTED_EDGE('',*,*,#792,.F.);
#553=ORIENTED_EDGE('',*,*,#778,.T.);
#554=ORIENTED_EDGE('',*,*,#791,.T.);
#555=ORIENTED_EDGE('',*,*,#746,.T.);
#556=ORIENTED_EDGE('',*,*,#793,.F.);
#557=ORIENTED_EDGE('',*,*,#794,.F.);
#558=ORIENTED_EDGE('',*,*,#795,.F.);
#559=ORIENTED_EDGE('',*,*,#796,.F.);
#560=ORIENTED_EDGE('',*,*,#788,.T.);
#561=ORIENTED_EDGE('',*,*,#797,.T.);
#562=ORIENTED_EDGE('',*,*,#798,.F.);
#563=ORIENTED_EDGE('',*,*,#799,.F.);
#564=ORIENTED_EDGE('',*,*,#800,.T.);
#565=ORIENTED_EDGE('',*,*,#801,.F.);
#566=ORIENTED_EDGE('',*,*,#742,.T.);
#567=ORIENTED_EDGE('',*,*,#790,.F.);
#568=ORIENTED_EDGE('',*,*,#765,.T.);
#569=ORIENTED_EDGE('',*,*,#734,.F.);
#570=ORIENTED_EDGE('',*,*,#774,.F.);
#571=ORIENTED_EDGE('',*,*,#772,.F.);
#572=ORIENTED_EDGE('',*,*,#770,.T.);
#573=ORIENTED_EDGE('',*,*,#683,.T.);
#574=ORIENTED_EDGE('',*,*,#769,.F.);
#575=ORIENTED_EDGE('',*,*,#767,.F.);
#576=ORIENTED_EDGE('',*,*,#802,.T.);
#577=ORIENTED_EDGE('',*,*,#803,.T.);
#578=ORIENTED_EDGE('',*,*,#804,.T.);
#579=ORIENTED_EDGE('',*,*,#805,.F.);
#580=ORIENTED_EDGE('',*,*,#806,.F.);
#581=ORIENTED_EDGE('',*,*,#803,.F.);
#582=ORIENTED_EDGE('',*,*,#807,.F.);
#583=ORIENTED_EDGE('',*,*,#808,.T.);
#584=ORIENTED_EDGE('',*,*,#809,.T.);
#585=ORIENTED_EDGE('',*,*,#806,.T.);
#586=ORIENTED_EDGE('',*,*,#810,.F.);
#587=ORIENTED_EDGE('',*,*,#811,.F.);
#588=ORIENTED_EDGE('',*,*,#807,.T.);
#589=ORIENTED_EDGE('',*,*,#805,.T.);
#590=ORIENTED_EDGE('',*,*,#812,.F.);
#591=ORIENTED_EDGE('',*,*,#813,.F.);
#592=ORIENTED_EDGE('',*,*,#810,.T.);
#593=ORIENTED_EDGE('',*,*,#797,.F.);
#594=ORIENTED_EDGE('',*,*,#787,.F.);
#595=ORIENTED_EDGE('',*,*,#814,.T.);
#596=ORIENTED_EDGE('',*,*,#815,.T.);
#597=ORIENTED_EDGE('',*,*,#801,.T.);
#598=ORIENTED_EDGE('',*,*,#816,.F.);
#599=ORIENTED_EDGE('',*,*,#817,.F.);
#600=ORIENTED_EDGE('',*,*,#743,.T.);
#601=ORIENTED_EDGE('',*,*,#800,.F.);
#602=ORIENTED_EDGE('',*,*,#818,.F.);
#603=ORIENTED_EDGE('',*,*,#819,.T.);
#604=ORIENTED_EDGE('',*,*,#816,.T.);
#605=ORIENTED_EDGE('',*,*,#799,.T.);
#606=ORIENTED_EDGE('',*,*,#820,.F.);
#607=ORIENTED_EDGE('',*,*,#821,.F.);
#608=ORIENTED_EDGE('',*,*,#818,.T.);
#609=ORIENTED_EDGE('',*,*,#792,.T.);
#610=ORIENTED_EDGE('',*,*,#822,.F.);
#611=ORIENTED_EDGE('',*,*,#823,.F.);
#612=ORIENTED_EDGE('',*,*,#779,.T.);
#613=ORIENTED_EDGE('',*,*,#796,.T.);
#614=ORIENTED_EDGE('',*,*,#824,.F.);
#615=ORIENTED_EDGE('',*,*,#825,.F.);
#616=ORIENTED_EDGE('',*,*,#822,.T.);
#617=ORIENTED_EDGE('',*,*,#795,.T.);
#618=ORIENTED_EDGE('',*,*,#826,.F.);
#619=ORIENTED_EDGE('',*,*,#827,.F.);
#620=ORIENTED_EDGE('',*,*,#824,.T.);
#621=ORIENTED_EDGE('',*,*,#794,.T.);
#622=ORIENTED_EDGE('',*,*,#828,.F.);
#623=ORIENTED_EDGE('',*,*,#829,.F.);
#624=ORIENTED_EDGE('',*,*,#826,.T.);
#625=ORIENTED_EDGE('',*,*,#793,.T.);
#626=ORIENTED_EDGE('',*,*,#745,.F.);
#627=ORIENTED_EDGE('',*,*,#830,.F.);
#628=ORIENTED_EDGE('',*,*,#828,.T.);
#629=ORIENTED_EDGE('',*,*,#804,.F.);
#630=ORIENTED_EDGE('',*,*,#809,.F.);
#631=ORIENTED_EDGE('',*,*,#831,.T.);
#632=ORIENTED_EDGE('',*,*,#812,.T.);
#633=ORIENTED_EDGE('',*,*,#798,.T.);
#634=ORIENTED_EDGE('',*,*,#815,.F.);
#635=ORIENTED_EDGE('',*,*,#832,.F.);
#636=ORIENTED_EDGE('',*,*,#820,.T.);
#637=ORIENTED_EDGE('',*,*,#833,.T.);
#638=ORIENTED_EDGE('',*,*,#802,.F.);
#639=ORIENTED_EDGE('',*,*,#780,.F.);
#640=ORIENTED_EDGE('',*,*,#775,.T.);
#641=ORIENTED_EDGE('',*,*,#823,.T.);
#642=ORIENTED_EDGE('',*,*,#825,.T.);
#643=ORIENTED_EDGE('',*,*,#827,.T.);
#644=ORIENTED_EDGE('',*,*,#829,.T.);
#645=ORIENTED_EDGE('',*,*,#830,.T.);
#646=ORIENTED_EDGE('',*,*,#744,.T.);
#647=ORIENTED_EDGE('',*,*,#817,.T.);
#648=ORIENTED_EDGE('',*,*,#819,.F.);
#649=ORIENTED_EDGE('',*,*,#821,.T.);
#650=ORIENTED_EDGE('',*,*,#832,.T.);
#651=ORIENTED_EDGE('',*,*,#814,.F.);
#652=ORIENTED_EDGE('',*,*,#786,.T.);
#653=ORIENTED_EDGE('',*,*,#784,.F.);
#654=ORIENTED_EDGE('',*,*,#782,.T.);
#655=ORIENTED_EDGE('',*,*,#808,.F.);
#656=ORIENTED_EDGE('',*,*,#811,.T.);
#657=ORIENTED_EDGE('',*,*,#813,.T.);
#658=ORIENTED_EDGE('',*,*,#831,.F.);
#659=ORIENTED_EDGE('',*,*,#833,.F.);
#660=EDGE_CURVE('',#834,#834,#948,.T.);
#661=EDGE_CURVE('',#835,#836,#949,.F.);
#662=EDGE_CURVE('',#836,#837,#56,.T.);
#663=EDGE_CURVE('',#838,#837,#57,.T.);
#664=EDGE_CURVE('',#835,#838,#58,.T.);
#665=EDGE_CURVE('',#839,#840,#59,.T.);
#666=EDGE_CURVE('',#839,#841,#950,.T.);
#667=EDGE_CURVE('',#841,#842,#60,.T.);
#668=EDGE_CURVE('',#842,#840,#61,.T.);
#669=EDGE_CURVE('',#837,#843,#62,.T.);
#670=EDGE_CURVE('',#843,#844,#63,.T.);
#671=EDGE_CURVE('',#840,#844,#64,.T.);
#672=EDGE_CURVE('',#838,#842,#65,.T.);
#673=EDGE_CURVE('',#841,#835,#66,.F.);
#674=EDGE_CURVE('',#845,#843,#67,.T.);
#675=EDGE_CURVE('',#845,#846,#68,.T.);
#676=EDGE_CURVE('',#846,#844,#69,.T.);
#677=EDGE_CURVE('',#836,#839,#70,.F.);
#678=EDGE_CURVE('',#847,#847,#951,.T.);
#679=EDGE_CURVE('',#848,#837,#71,.T.);
#680=EDGE_CURVE('',#848,#849,#72,.T.);
#681=EDGE_CURVE('',#843,#849,#73,.T.);
#682=EDGE_CURVE('',#840,#850,#74,.T.);
#683=EDGE_CURVE('',#851,#850,#75,.T.);
#684=EDGE_CURVE('',#852,#851,#76,.T.);
#685=EDGE_CURVE('',#852,#853,#77,.F.);
#686=EDGE_CURVE('',#848,#853,#78,.T.);
#687=EDGE_CURVE('',#854,#854,#952,.T.);
#688=EDGE_CURVE('',#855,#848,#79,.T.);
#689=EDGE_CURVE('',#853,#856,#953,.F.);
#690=EDGE_CURVE('',#855,#856,#80,.T.);
#691=EDGE_CURVE('',#855,#857,#81,.T.);
#692=EDGE_CURVE('',#857,#858,#82,.T.);
#693=EDGE_CURVE('',#858,#859,#83,.T.);
#694=EDGE_CURVE('',#849,#859,#84,.T.);
#695=EDGE_CURVE('',#860,#852,#954,.F.);
#696=EDGE_CURVE('',#858,#852,#85,.T.);
#697=EDGE_CURVE('',#860,#857,#86,.T.);
#698=EDGE_CURVE('',#856,#860,#87,.T.);
#699=EDGE_CURVE('',#849,#861,#88,.T.);
#700=EDGE_CURVE('',#862,#859,#89,.T.);
#701=EDGE_CURVE('',#861,#862,#90,.T.);
#702=EDGE_CURVE('',#863,#863,#955,.T.);
#703=EDGE_CURVE('',#864,#858,#956,.T.);
#704=EDGE_CURVE('',#864,#865,#91,.T.);
#705=EDGE_CURVE('',#865,#866,#957,.T.);
#706=EDGE_CURVE('',#866,#867,#92,.T.);
#707=EDGE_CURVE('',#868,#867,#958,.T.);
#708=EDGE_CURVE('',#869,#868,#93,.T.);
#709=EDGE_CURVE('',#869,#859,#959,.T.);
#710=EDGE_CURVE('',#870,#870,#960,.T.);
#711=EDGE_CURVE('',#871,#872,#94,.T.);
#712=EDGE_CURVE('',#872,#873,#95,.T.);
#713=EDGE_CURVE('',#873,#874,#961,.T.);
#714=EDGE_CURVE('',#874,#871,#96,.T.);
#715=EDGE_CURVE('',#875,#876,#97,.T.);
#716=EDGE_CURVE('',#877,#875,#98,.T.);
#717=EDGE_CURVE('',#878,#877,#99,.T.);
#718=EDGE_CURVE('',#878,#876,#962,.F.);
#719=EDGE_CURVE('',#873,#876,#100,.F.);
#720=EDGE_CURVE('',#874,#878,#101,.T.);
#721=EDGE_CURVE('',#875,#879,#102,.T.);
#722=EDGE_CURVE('',#880,#879,#103,.T.);
#723=EDGE_CURVE('',#872,#880,#104,.T.);
#724=EDGE_CURVE('',#871,#877,#105,.T.);
#725=EDGE_CURVE('',#881,#880,#106,.T.);
#726=EDGE_CURVE('',#882,#879,#107,.T.);
#727=EDGE_CURVE('',#881,#882,#108,.T.);
#728=EDGE_CURVE('',#883,#883,#963,.T.);
#729=EDGE_CURVE('',#875,#884,#109,.T.);
#730=EDGE_CURVE('',#885,#872,#110,.T.);
#731=EDGE_CURVE('',#886,#885,#111,.T.);
#732=EDGE_CURVE('',#887,#886,#112,.F.);
#733=EDGE_CURVE('',#887,#888,#113,.T.);
#734=EDGE_CURVE('',#888,#884,#114,.T.);
#735=EDGE_CURVE('',#889,#840,#964,.T.);
#736=EDGE_CURVE('',#844,#890,#965,.T.);
#737=EDGE_CURVE('',#891,#890,#115,.T.);
#738=EDGE_CURVE('',#891,#879,#966,.T.);
#739=EDGE_CURVE('',#892,#875,#967,.T.);
#740=EDGE_CURVE('',#892,#889,#116,.T.);
#741=EDGE_CURVE('',#882,#893,#117,.T.);
#742=EDGE_CURVE('',#894,#893,#118,.T.);
#743=EDGE_CURVE('',#895,#894,#119,.T.);
#744=EDGE_CURVE('',#896,#895,#120,.T.);
#745=EDGE_CURVE('',#896,#897,#121,.T.);
#746=EDGE_CURVE('',#898,#897,#122,.T.);
#747=EDGE_CURVE('',#899,#898,#123,.T.);
#748=EDGE_CURVE('',#900,#899,#124,.T.);
#749=EDGE_CURVE('',#901,#900,#125,.T.);
#750=EDGE_CURVE('',#901,#880,#126,.T.);
#751=EDGE_CURVE('',#902,#902,#968,.T.);
#752=EDGE_CURVE('',#903,#886,#969,.T.);
#753=EDGE_CURVE('',#904,#885,#127,.T.);
#754=EDGE_CURVE('',#904,#903,#128,.T.);
#755=EDGE_CURVE('',#905,#866,#129,.T.);
#756=EDGE_CURVE('',#866,#887,#130,.T.);
#757=EDGE_CURVE('',#887,#906,#970,.T.);
#758=EDGE_CURVE('',#906,#905,#131,.T.);
#759=EDGE_CURVE('',#906,#903,#132,.F.);
#760=EDGE_CURVE('',#904,#905,#133,.T.);
#761=EDGE_CURVE('',#885,#901,#134,.T.);
#762=EDGE_CURVE('',#901,#867,#135,.T.);
#763=EDGE_CURVE('',#899,#867,#136,.T.);
#764=EDGE_CURVE('',#907,#907,#971,.T.);
#765=EDGE_CURVE('',#908,#884,#972,.T.);
#766=EDGE_CURVE('',#892,#908,#137,.T.);
#767=EDGE_CURVE('',#908,#909,#138,.T.);
#768=EDGE_CURVE('',#889,#909,#139,.T.);
#769=EDGE_CURVE('',#909,#850,#973,.T.);
#770=EDGE_CURVE('',#910,#851,#974,.T.);
#771=EDGE_CURVE('',#864,#910,#140,.T.);
#772=EDGE_CURVE('',#910,#911,#141,.T.);
#773=EDGE_CURVE('',#865,#911,#142,.T.);
#774=EDGE_CURVE('',#911,#888,#975,.T.);
#775=EDGE_CURVE('',#912,#913,#143,.T.);
#776=EDGE_CURVE('',#869,#912,#144,.T.);
#777=EDGE_CURVE('',#868,#914,#145,.T.);
#778=EDGE_CURVE('',#915,#914,#146,.T.);
#779=EDGE_CURVE('',#913,#915,#147,.T.);
#780=EDGE_CURVE('',#912,#916,#976,.F.);
#781=EDGE_CURVE('',#862,#916,#148,.T.);
#782=EDGE_CURVE('',#917,#916,#149,.T.);
#783=EDGE_CURVE('',#846,#917,#150,.T.);
#784=EDGE_CURVE('',#917,#918,#977,.F.);
#785=EDGE_CURVE('',#890,#918,#151,.T.);
#786=EDGE_CURVE('',#919,#918,#152,.T.);
#787=EDGE_CURVE('',#919,#920,#153,.T.);
#788=EDGE_CURVE('',#921,#920,#154,.T.);
#789=EDGE_CURVE('',#891,#921,#155,.T.);
#790=EDGE_CURVE('',#921,#893,#978,.T.);
#791=EDGE_CURVE('',#914,#898,#979,.T.);
#792=EDGE_CURVE('',#915,#922,#980,.T.);
#793=EDGE_CURVE('',#923,#897,#981,.T.);
#794=EDGE_CURVE('',#924,#923,#156,.T.);
#795=EDGE_CURVE('',#925,#924,#982,.T.);
#796=EDGE_CURVE('',#922,#925,#157,.T.);
#797=EDGE_CURVE('',#920,#926,#983,.T.);
#798=EDGE_CURVE('',#927,#926,#158,.T.);
#799=EDGE_CURVE('',#928,#927,#984,.T.);
#800=EDGE_CURVE('',#928,#929,#159,.T.);
#801=EDGE_CURVE('',#894,#929,#985,.T.);
#802=EDGE_CURVE('',#930,#930,#986,.T.);
#803=EDGE_CURVE('',#931,#932,#160,.T.);
#804=EDGE_CURVE('',#932,#933,#161,.T.);
#805=EDGE_CURVE('',#934,#933,#162,.T.);
#806=EDGE_CURVE('',#931,#934,#163,.T.);
#807=EDGE_CURVE('',#935,#931,#164,.T.);
#808=EDGE_CURVE('',#935,#936,#165,.T.);
#809=EDGE_CURVE('',#936,#932,#166,.T.);
#810=EDGE_CURVE('',#937,#934,#167,.T.);
#811=EDGE_CURVE('',#935,#937,#168,.T.);
#812=EDGE_CURVE('',#938,#933,#169,.T.);
#813=EDGE_CURVE('',#937,#938,#170,.T.);
#814=EDGE_CURVE('',#919,#939,#987,.T.);
#815=EDGE_CURVE('',#939,#926,#171,.T.);
#816=EDGE_CURVE('',#940,#929,#172,.T.);
#817=EDGE_CURVE('',#895,#940,#988,.T.);
#818=EDGE_CURVE('',#941,#928,#173,.T.);
#819=EDGE_CURVE('',#941,#940,#174,.T.);
#820=EDGE_CURVE('',#942,#927,#175,.T.);
#821=EDGE_CURVE('',#941,#942,#989,.T.);
#822=EDGE_CURVE('',#943,#922,#176,.T.);
#823=EDGE_CURVE('',#913,#943,#990,.T.);
#824=EDGE_CURVE('',#944,#925,#177,.T.);
#825=EDGE_CURVE('',#943,#944,#178,.T.);
#826=EDGE_CURVE('',#945,#924,#179,.T.);
#827=EDGE_CURVE('',#944,#945,#991,.T.);
#828=EDGE_CURVE('',#946,#923,#180,.T.);
#829=EDGE_CURVE('',#945,#946,#181,.T.);
#830=EDGE_CURVE('',#946,#896,#992,.T.);
#831=EDGE_CURVE('',#936,#938,#182,.T.);
#832=EDGE_CURVE('',#942,#939,#183,.T.);
#833=EDGE_CURVE('',#947,#947,#993,.T.);
#834=VERTEX_POINT('',#1895);
#835=VERTEX_POINT('',#1897);
#836=VERTEX_POINT('',#1898);
#837=VERTEX_POINT('',#1900);
#838=VERTEX_POINT('',#1902);
#839=VERTEX_POINT('',#1906);
#840=VERTEX_POINT('',#1907);
#841=VERTEX_POINT('',#1909);
#842=VERTEX_POINT('',#1911);
#843=VERTEX_POINT('',#1915);
#844=VERTEX_POINT('',#1917);
#845=VERTEX_POINT('',#1924);
#846=VERTEX_POINT('',#1926);
#847=VERTEX_POINT('',#1932);
#848=VERTEX_POINT('',#1936);
#849=VERTEX_POINT('',#1938);
#850=VERTEX_POINT('',#1942);
#851=VERTEX_POINT('',#1944);
#852=VERTEX_POINT('',#1946);
#853=VERTEX_POINT('',#1948);
#854=VERTEX_POINT('',#1952);
#855=VERTEX_POINT('',#1954);
#856=VERTEX_POINT('',#1956);
#857=VERTEX_POINT('',#1960);
#858=VERTEX_POINT('',#1962);
#859=VERTEX_POINT('',#1964);
#860=VERTEX_POINT('',#1968);
#861=VERTEX_POINT('',#1975);
#862=VERTEX_POINT('',#1977);
#863=VERTEX_POINT('',#1982);
#864=VERTEX_POINT('',#1986);
#865=VERTEX_POINT('',#1988);
#866=VERTEX_POINT('',#1990);
#867=VERTEX_POINT('',#1992);
#868=VERTEX_POINT('',#1994);
#869=VERTEX_POINT('',#1996);
#870=VERTEX_POINT('',#2000);
#871=VERTEX_POINT('',#2002);
#872=VERTEX_POINT('',#2003);
#873=VERTEX_POINT('',#2005);
#874=VERTEX_POINT('',#2007);
#875=VERTEX_POINT('',#2011);
#876=VERTEX_POINT('',#2012);
#877=VERTEX_POINT('',#2014);
#878=VERTEX_POINT('',#2016);
#879=VERTEX_POINT('',#2023);
#880=VERTEX_POINT('',#2025);
#881=VERTEX_POINT('',#2031);
#882=VERTEX_POINT('',#2033);
#883=VERTEX_POINT('',#2037);
#884=VERTEX_POINT('',#2041);
#885=VERTEX_POINT('',#2043);
#886=VERTEX_POINT('',#2045);
#887=VERTEX_POINT('',#2047);
#888=VERTEX_POINT('',#2049);
#889=VERTEX_POINT('',#2053);
#890=VERTEX_POINT('',#2055);
#891=VERTEX_POINT('',#2057);
#892=VERTEX_POINT('',#2060);
#893=VERTEX_POINT('',#2064);
#894=VERTEX_POINT('',#2066);
#895=VERTEX_POINT('',#2068);
#896=VERTEX_POINT('',#2070);
#897=VERTEX_POINT('',#2072);
#898=VERTEX_POINT('',#2074);
#899=VERTEX_POINT('',#2076);
#900=VERTEX_POINT('',#2078);
#901=VERTEX_POINT('',#2080);
#902=VERTEX_POINT('',#2084);
#903=VERTEX_POINT('',#2086);
#904=VERTEX_POINT('',#2088);
#905=VERTEX_POINT('',#2092);
#906=VERTEX_POINT('',#2095);
#907=VERTEX_POINT('',#2108);
#908=VERTEX_POINT('',#2112);
#909=VERTEX_POINT('',#2116);
#910=VERTEX_POINT('',#2122);
#911=VERTEX_POINT('',#2126);
#912=VERTEX_POINT('',#2132);
#913=VERTEX_POINT('',#2133);
#914=VERTEX_POINT('',#2136);
#915=VERTEX_POINT('',#2138);
#916=VERTEX_POINT('',#2142);
#917=VERTEX_POINT('',#2146);
#918=VERTEX_POINT('',#2150);
#919=VERTEX_POINT('',#2154);
#920=VERTEX_POINT('',#2156);
#921=VERTEX_POINT('',#2158);
#922=VERTEX_POINT('',#2167);
#923=VERTEX_POINT('',#2169);
#924=VERTEX_POINT('',#2171);
#925=VERTEX_POINT('',#2173);
#926=VERTEX_POINT('',#2176);
#927=VERTEX_POINT('',#2178);
#928=VERTEX_POINT('',#2180);
#929=VERTEX_POINT('',#2182);
#930=VERTEX_POINT('',#2185);
#931=VERTEX_POINT('',#2187);
#932=VERTEX_POINT('',#2188);
#933=VERTEX_POINT('',#2190);
#934=VERTEX_POINT('',#2192);
#935=VERTEX_POINT('',#2196);
#936=VERTEX_POINT('',#2198);
#937=VERTEX_POINT('',#2202);
#938=VERTEX_POINT('',#2206);
#939=VERTEX_POINT('',#2210);
#940=VERTEX_POINT('',#2214);
#941=VERTEX_POINT('',#2218);
#942=VERTEX_POINT('',#2222);
#943=VERTEX_POINT('',#2226);
#944=VERTEX_POINT('',#2230);
#945=VERTEX_POINT('',#2234);
#946=VERTEX_POINT('',#2238);
#947=VERTEX_POINT('',#2248);
#948=CIRCLE('',#1418,0.0005);
#949=CIRCLE('',#1419,0.005);
#950=CIRCLE('',#1421,0.005);
#951=CIRCLE('',#1427,0.0005);
#952=CIRCLE('',#1432,0.0005);
#953=CIRCLE('',#1433,0.005);
#954=CIRCLE('',#1436,0.005);
#955=CIRCLE('',#1441,0.0005);
#956=CIRCLE('',#1444,0.003);
#957=CIRCLE('',#1445,0.003);
#958=CIRCLE('',#1446,0.002);
#959=CIRCLE('',#1447,0.002);
#960=CIRCLE('',#1449,0.0005);
#961=CIRCLE('',#1450,0.005);
#962=CIRCLE('',#1452,0.005);
#963=CIRCLE('',#1458,0.0005);
#964=CIRCLE('',#1462,0.003);
#965=CIRCLE('',#1463,0.002);
#966=CIRCLE('',#1464,0.002);
#967=CIRCLE('',#1465,0.003);
#968=CIRCLE('',#1468,0.0005);
#969=CIRCLE('',#1469,0.005);
#970=CIRCLE('',#1471,0.005);
#971=CIRCLE('',#1477,0.0005);
#972=CIRCLE('',#1480,0.003);
#973=CIRCLE('',#1483,0.003);
#974=CIRCLE('',#1485,0.003);
#975=CIRCLE('',#1488,0.003);
#976=CIRCLE('',#1491,0.002);
#977=CIRCLE('',#1494,0.002);
#978=CIRCLE('',#1497,0.002);
#979=CIRCLE('',#1499,0.002);
#980=CIRCLE('',#1502,0.002);
#981=CIRCLE('',#1503,0.002);
#982=CIRCLE('',#1504,0.002);
#983=CIRCLE('',#1505,0.002);
#984=CIRCLE('',#1506,0.002);
#985=CIRCLE('',#1507,0.002);
#986=CIRCLE('',#1508,0.0015);
#987=CIRCLE('',#1513,0.002);
#988=CIRCLE('',#1515,0.002);
#989=CIRCLE('',#1518,0.002);
#990=CIRCLE('',#1520,0.002);
#991=CIRCLE('',#1523,0.002);
#992=CIRCLE('',#1526,0.002);
#993=CIRCLE('',#1530,0.0015);
#994=EDGE_LOOP('',(#312));
#995=EDGE_LOOP('',(#313,#314,#315,#316));
#996=EDGE_LOOP('',(#317,#318,#319,#320));
#997=EDGE_LOOP('',(#321,#322,#323,#324,#325,#326));
#998=EDGE_LOOP('',(#327,#328,#329,#330));
#999=EDGE_LOOP('',(#331,#332,#333,#334));
#1000=EDGE_LOOP('',(#335,#336,#337,#338));
#1001=EDGE_LOOP('',(#339));
#1002=EDGE_LOOP('',(#340));
#1003=EDGE_LOOP('',(#341));
#1004=EDGE_LOOP('',(#342,#343,#344,#345));
#1005=EDGE_LOOP('',(#346,#347,#348,#349,#350,#351,#352,#353,#354));
#1006=EDGE_LOOP('',(#355));
#1007=EDGE_LOOP('',(#356,#357,#358,#359));
#1008=EDGE_LOOP('',(#360,#361,#362,#363,#364,#365));
#1009=EDGE_LOOP('',(#366,#367,#368,#369));
#1010=EDGE_LOOP('',(#370,#371,#372,#373));
#1011=EDGE_LOOP('',(#374,#375,#376,#377));
#1012=EDGE_LOOP('',(#378,#379,#380,#381));
#1013=EDGE_LOOP('',(#382));
#1014=EDGE_LOOP('',(#383));
#1015=EDGE_LOOP('',(#384));
#1016=EDGE_LOOP('',(#385,#386,#387,#388,#389,#390,#391,#392));
#1017=EDGE_LOOP('',(#393));
#1018=EDGE_LOOP('',(#394,#395,#396,#397));
#1019=EDGE_LOOP('',(#398,#399,#400,#401));
#1020=EDGE_LOOP('',(#402,#403,#404,#405));
#1021=EDGE_LOOP('',(#406,#407,#408,#409,#410,#411));
#1022=EDGE_LOOP('',(#412,#413,#414,#415));
#1023=EDGE_LOOP('',(#416,#417,#418,#419));
#1024=EDGE_LOOP('',(#420));
#1025=EDGE_LOOP('',(#421));
#1026=EDGE_LOOP('',(#422));
#1027=EDGE_LOOP('',(#423,#424,#425,#426,#427,#428,#429,#430,#431));
#1028=EDGE_LOOP('',(#432,#433,#434,#435,#436,#437,#438,#439));
#1029=EDGE_LOOP('',(#440,#441,#442,#443,#444,#445,#446,#447,#448,#449,#450,
#451));
#1030=EDGE_LOOP('',(#452));
#1031=EDGE_LOOP('',(#453,#454,#455,#456));
#1032=EDGE_LOOP('',(#457,#458,#459,#460));
#1033=EDGE_LOOP('',(#461,#462,#463,#464));
#1034=EDGE_LOOP('',(#465,#466,#467,#468,#469,#470));
#1035=EDGE_LOOP('',(#471,#472,#473,#474));
#1036=EDGE_LOOP('',(#475,#476,#477,#478));
#1037=EDGE_LOOP('',(#479));
#1038=EDGE_LOOP('',(#480));
#1039=EDGE_LOOP('',(#481));
#1040=EDGE_LOOP('',(#482,#483,#484,#485));
#1041=EDGE_LOOP('',(#486,#487,#488,#489));
#1042=EDGE_LOOP('',(#490,#491,#492,#493));
#1043=EDGE_LOOP('',(#494,#495,#496,#497,#498));
#1044=EDGE_LOOP('',(#499,#500,#501,#502));
#1045=EDGE_LOOP('',(#503,#504,#505,#506,#507));
#1046=EDGE_LOOP('',(#508,#509,#510,#511,#512,#513));
#1047=EDGE_LOOP('',(#514,#515,#516,#517,#518));
#1048=EDGE_LOOP('',(#519,#520,#521,#522,#523,#524,#525,#526));
#1049=EDGE_LOOP('',(#527,#528,#529,#530,#531));
#1050=EDGE_LOOP('',(#532,#533,#534,#535,#536,#537));
#1051=EDGE_LOOP('',(#538,#539,#540,#541,#542));
#1052=EDGE_LOOP('',(#543,#544,#545,#546,#547));
#1053=EDGE_LOOP('',(#548,#549,#550,#551));
#1054=EDGE_LOOP('',(#552,#553,#554,#555,#556,#557,#558,#559));
#1055=EDGE_LOOP('',(#560,#561,#562,#563,#564,#565,#566,#567));
#1056=EDGE_LOOP('',(#568,#569,#570,#571,#572,#573,#574,#575));
#1057=EDGE_LOOP('',(#576));
#1058=EDGE_LOOP('',(#577,#578,#579,#580));
#1059=EDGE_LOOP('',(#581,#582,#583,#584));
#1060=EDGE_LOOP('',(#585,#586,#587,#588));
#1061=EDGE_LOOP('',(#589,#590,#591,#592));
#1062=EDGE_LOOP('',(#593,#594,#595,#596));
#1063=EDGE_LOOP('',(#597,#598,#599,#600));
#1064=EDGE_LOOP('',(#601,#602,#603,#604));
#1065=EDGE_LOOP('',(#605,#606,#607,#608));
#1066=EDGE_LOOP('',(#609,#610,#611,#612));
#1067=EDGE_LOOP('',(#613,#614,#615,#616));
#1068=EDGE_LOOP('',(#617,#618,#619,#620));
#1069=EDGE_LOOP('',(#621,#622,#623,#624));
#1070=EDGE_LOOP('',(#625,#626,#627,#628));
#1071=EDGE_LOOP('',(#629,#630,#631,#632));
#1072=EDGE_LOOP('',(#633,#634,#635,#636));
#1073=EDGE_LOOP('',(#637));
#1074=EDGE_LOOP('',(#638));
#1075=EDGE_LOOP('',(#639,#640,#641,#642,#643,#644,#645,#646,#647,#648,#649,
#650,#651,#652,#653,#654));
#1076=EDGE_LOOP('',(#655,#656,#657,#658));
#1077=EDGE_LOOP('',(#659));
#1078=FACE_BOUND('',#994,.T.);
#1079=FACE_BOUND('',#995,.T.);
#1080=FACE_BOUND('',#996,.T.);
#1081=FACE_BOUND('',#997,.T.);
#1082=FACE_BOUND('',#998,.T.);
#1083=FACE_BOUND('',#999,.T.);
#1084=FACE_BOUND('',#1000,.T.);
#1085=FACE_BOUND('',#1001,.T.);
#1086=FACE_BOUND('',#1002,.T.);
#1087=FACE_BOUND('',#1003,.T.);
#1088=FACE_BOUND('',#1004,.T.);
#1089=FACE_BOUND('',#1005,.T.);
#1090=FACE_BOUND('',#1006,.T.);
#1091=FACE_BOUND('',#1007,.T.);
#1092=FACE_BOUND('',#1008,.T.);
#1093=FACE_BOUND('',#1009,.T.);
#1094=FACE_BOUND('',#1010,.T.);
#1095=FACE_BOUND('',#1011,.T.);
#1096=FACE_BOUND('',#1012,.T.);
#1097=FACE_BOUND('',#1013,.T.);
#1098=FACE_BOUND('',#1014,.T.);
#1099=FACE_BOUND('',#1015,.T.);
#1100=FACE_BOUND('',#1016,.T.);
#1101=FACE_BOUND('',#1017,.T.);
#1102=FACE_BOUND('',#1018,.T.);
#1103=FACE_BOUND('',#1019,.T.);
#1104=FACE_BOUND('',#1020,.T.);
#1105=FACE_BOUND('',#1021,.T.);
#1106=FACE_BOUND('',#1022,.T.);
#1107=FACE_BOUND('',#1023,.T.);
#1108=FACE_BOUND('',#1024,.T.);
#1109=FACE_BOUND('',#1025,.T.);
#1110=FACE_BOUND('',#1026,.T.);
#1111=FACE_BOUND('',#1027,.T.);
#1112=FACE_BOUND('',#1028,.T.);
#1113=FACE_BOUND('',#1029,.T.);
#1114=FACE_BOUND('',#1030,.T.);
#1115=FACE_BOUND('',#1031,.T.);
#1116=FACE_BOUND('',#1032,.T.);
#1117=FACE_BOUND('',#1033,.T.);
#1118=FACE_BOUND('',#1034,.T.);
#1119=FACE_BOUND('',#1035,.T.);
#1120=FACE_BOUND('',#1036,.T.);
#1121=FACE_BOUND('',#1037,.T.);
#1122=FACE_BOUND('',#1038,.T.);
#1123=FACE_BOUND('',#1039,.T.);
#1124=FACE_BOUND('',#1040,.T.);
#1125=FACE_BOUND('',#1041,.T.);
#1126=FACE_BOUND('',#1042,.T.);
#1127=FACE_BOUND('',#1043,.T.);
#1128=FACE_BOUND('',#1044,.T.);
#1129=FACE_BOUND('',#1045,.T.);
#1130=FACE_BOUND('',#1046,.T.);
#1131=FACE_BOUND('',#1047,.T.);
#1132=FACE_BOUND('',#1048,.T.);
#1133=FACE_BOUND('',#1049,.T.);
#1134=FACE_BOUND('',#1050,.T.);
#1135=FACE_BOUND('',#1051,.T.);
#1136=FACE_BOUND('',#1052,.T.);
#1137=FACE_BOUND('',#1053,.T.);
#1138=FACE_BOUND('',#1054,.T.);
#1139=FACE_BOUND('',#1055,.T.);
#1140=FACE_BOUND('',#1056,.T.);
#1141=FACE_BOUND('',#1057,.T.);
#1142=FACE_BOUND('',#1058,.T.);
#1143=FACE_BOUND('',#1059,.T.);
#1144=FACE_BOUND('',#1060,.T.);
#1145=FACE_BOUND('',#1061,.T.);
#1146=FACE_BOUND('',#1062,.T.);
#1147=FACE_BOUND('',#1063,.T.);
#1148=FACE_BOUND('',#1064,.T.);
#1149=FACE_BOUND('',#1065,.T.);
#1150=FACE_BOUND('',#1066,.T.);
#1151=FACE_BOUND('',#1067,.T.);
#1152=FACE_BOUND('',#1068,.T.);
#1153=FACE_BOUND('',#1069,.T.);
#1154=FACE_BOUND('',#1070,.T.);
#1155=FACE_BOUND('',#1071,.T.);
#1156=FACE_BOUND('',#1072,.T.);
#1157=FACE_BOUND('',#1073,.T.);
#1158=FACE_BOUND('',#1074,.T.);
#1159=FACE_BOUND('',#1075,.T.);
#1160=FACE_BOUND('',#1076,.T.);
#1161=FACE_BOUND('',#1077,.T.);
#1162=PLANE('',#1417);
#1163=PLANE('',#1420);
#1164=PLANE('',#1422);
#1165=PLANE('',#1423);
#1166=PLANE('',#1424);
#1167=PLANE('',#1428);
#1168=PLANE('',#1429);
#1169=PLANE('',#1430);
#1170=PLANE('',#1431);
#1171=PLANE('',#1434);
#1172=PLANE('',#1435);
#1173=PLANE('',#1437);
#1174=PLANE('',#1438);
#1175=PLANE('',#1442);
#1176=PLANE('',#1443);
#1177=PLANE('',#1448);
#1178=PLANE('',#1451);
#1179=PLANE('',#1454);
#1180=PLANE('',#1455);
#1181=PLANE('',#1456);
#1182=PLANE('',#1459);
#1183=PLANE('',#1460);
#1184=PLANE('',#1461);
#1185=PLANE('',#1466);
#1186=PLANE('',#1467);
#1187=PLANE('',#1470);
#1188=PLANE('',#1473);
#1189=PLANE('',#1474);
#1190=PLANE('',#1475);
#1191=PLANE('',#1478);
#1192=PLANE('',#1481);
#1193=PLANE('',#1486);
#1194=PLANE('',#1489);
#1195=PLANE('',#1492);
#1196=PLANE('',#1495);
#1197=PLANE('',#1500);
#1198=PLANE('',#1501);
#1199=PLANE('',#1509);
#1200=PLANE('',#1510);
#1201=PLANE('',#1511);
#1202=PLANE('',#1516);
#1203=PLANE('',#1521);
#1204=PLANE('',#1524);
#1205=PLANE('',#1527);
#1206=PLANE('',#1528);
#1207=PLANE('',#1531);
#1208=ADVANCED_FACE('',(#1078,#1079),#1162,.F.);
#1209=ADVANCED_FACE('',(#1080),#1163,.T.);
#1210=ADVANCED_FACE('',(#1081),#1164,.F.);
#1211=ADVANCED_FACE('',(#1082),#1165,.F.);
#1212=ADVANCED_FACE('',(#1083),#1166,.T.);
#1213=ADVANCED_FACE('',(#1084),#33,.T.);
#1214=ADVANCED_FACE('',(#1085,#1086),#34,.F.);
#1215=ADVANCED_FACE('',(#1087),#1167,.F.);
#1216=ADVANCED_FACE('Face appearance 1',(#1088),#1168,.T.);
#1217=ADVANCED_FACE('Face appearance 1',(#1089),#1169,.T.);
#1218=ADVANCED_FACE('',(#1090,#1091),#1170,.F.);
#1219=ADVANCED_FACE('',(#1092),#1171,.T.);
#1220=ADVANCED_FACE('',(#1093),#1172,.F.);
#1221=ADVANCED_FACE('',(#1094),#1173,.F.);
#1222=ADVANCED_FACE('',(#1095),#1174,.T.);
#1223=ADVANCED_FACE('',(#1096),#35,.T.);
#1224=ADVANCED_FACE('',(#1097,#1098),#36,.F.);
#1225=ADVANCED_FACE('',(#1099),#1175,.T.);
#1226=ADVANCED_FACE('Face appearance 1',(#1100),#1176,.T.);
#1227=ADVANCED_FACE('',(#1101,#1102),#1177,.T.);
#1228=ADVANCED_FACE('',(#1103),#1178,.F.);
#1229=ADVANCED_FACE('',(#1104),#37,.T.);
#1230=ADVANCED_FACE('',(#1105),#1179,.T.);
#1231=ADVANCED_FACE('',(#1106),#1180,.T.);
#1232=ADVANCED_FACE('',(#1107),#1181,.F.);
#1233=ADVANCED_FACE('',(#1108,#1109),#38,.F.);
#1234=ADVANCED_FACE('',(#1110),#1182,.F.);
#1235=ADVANCED_FACE('Face appearance 1',(#1111),#1183,.F.);
#1236=ADVANCED_FACE('Face appearance 1',(#1112),#1184,.T.);
#1237=ADVANCED_FACE('Face appearance 1',(#1113),#1185,.T.);
#1238=ADVANCED_FACE('',(#1114,#1115),#1186,.T.);
#1239=ADVANCED_FACE('',(#1116),#1187,.T.);
#1240=ADVANCED_FACE('',(#1117),#39,.T.);
#1241=ADVANCED_FACE('',(#1118),#1188,.F.);
#1242=ADVANCED_FACE('',(#1119),#1189,.T.);
#1243=ADVANCED_FACE('',(#1120),#1190,.F.);
#1244=ADVANCED_FACE('',(#1121,#1122),#40,.F.);
#1245=ADVANCED_FACE('',(#1123),#1191,.T.);
#1246=ADVANCED_FACE('Face appearance 1',(#1124),#41,.T.);
#1247=ADVANCED_FACE('Face appearance 1',(#1125),#1192,.F.);
#1248=ADVANCED_FACE('Face appearance 1',(#1126),#42,.T.);
#1249=ADVANCED_FACE('Face appearance 1',(#1127),#43,.T.);
#1250=ADVANCED_FACE('Face appearance 1',(#1128),#1193,.F.);
#1251=ADVANCED_FACE('Face appearance 1',(#1129),#44,.T.);
#1252=ADVANCED_FACE('Face appearance 1',(#1130),#1194,.T.);
#1253=ADVANCED_FACE('Face appearance 1',(#1131),#45,.F.);
#1254=ADVANCED_FACE('Face appearance 1',(#1132),#1195,.T.);
#1255=ADVANCED_FACE('Face appearance 1',(#1133),#46,.F.);
#1256=ADVANCED_FACE('Face appearance 1',(#1134),#1196,.T.);
#1257=ADVANCED_FACE('Face appearance 1',(#1135),#47,.F.);
#1258=ADVANCED_FACE('Face appearance 1',(#1136),#48,.F.);
#1259=ADVANCED_FACE('Face appearance 1',(#1137),#1197,.T.);
#1260=ADVANCED_FACE('Face appearance 1',(#1138,#1139,#1140,#1141,#1142),
#1198,.F.);
#1261=ADVANCED_FACE('',(#1143),#1199,.T.);
#1262=ADVANCED_FACE('',(#1144),#1200,.F.);
#1263=ADVANCED_FACE('',(#1145),#1201,.F.);
#1264=ADVANCED_FACE('',(#1146),#49,.F.);
#1265=ADVANCED_FACE('',(#1147),#50,.F.);
#1266=ADVANCED_FACE('',(#1148),#1202,.T.);
#1267=ADVANCED_FACE('',(#1149),#51,.F.);
#1268=ADVANCED_FACE('',(#1150),#52,.F.);
#1269=ADVANCED_FACE('',(#1151),#1203,.F.);
#1270=ADVANCED_FACE('',(#1152),#53,.F.);
#1271=ADVANCED_FACE('',(#1153),#1204,.F.);
#1272=ADVANCED_FACE('',(#1154),#54,.F.);
#1273=ADVANCED_FACE('',(#1155),#1205,.T.);
#1274=ADVANCED_FACE('',(#1156),#1206,.F.);
#1275=ADVANCED_FACE('',(#1157,#1158),#55,.F.);
#1276=ADVANCED_FACE('',(#1159,#1160,#1161),#1207,.T.);
#1277=CLOSED_SHELL('',(#1208,#1209,#1210,#1211,#1212,#1213,#1214,#1215,
#1216,#1217,#1218,#1219,#1220,#1221,#1222,#1223,#1224,#1225,#1226,#1227,
#1228,#1229,#1230,#1231,#1232,#1233,#1234,#1235,#1236,#1237,#1238,#1239,
#1240,#1241,#1242,#1243,#1244,#1245,#1246,#1247,#1248,#1249,#1250,#1251,
#1252,#1253,#1254,#1255,#1256,#1257,#1258,#1259,#1260,#1261,#1262,#1263,
#1264,#1265,#1266,#1267,#1268,#1269,#1270,#1271,#1272,#1273,#1274,#1275,
#1276));
#1278=STYLED_ITEM('',(#1279),#1413);
#1279=PRESENTATION_STYLE_ASSIGNMENT((#1301));
#1280=PRESENTATION_STYLE_ASSIGNMENT((#1302));
#1281=PRESENTATION_STYLE_ASSIGNMENT((#1303));
#1282=PRESENTATION_STYLE_ASSIGNMENT((#1304));
#1283=PRESENTATION_STYLE_ASSIGNMENT((#1305));
#1284=PRESENTATION_STYLE_ASSIGNMENT((#1306));
#1285=PRESENTATION_STYLE_ASSIGNMENT((#1307));
#1286=PRESENTATION_STYLE_ASSIGNMENT((#1308));
#1287=PRESENTATION_STYLE_ASSIGNMENT((#1309));
#1288=PRESENTATION_STYLE_ASSIGNMENT((#1310));
#1289=PRESENTATION_STYLE_ASSIGNMENT((#1311));
#1290=PRESENTATION_STYLE_ASSIGNMENT((#1312));
#1291=PRESENTATION_STYLE_ASSIGNMENT((#1313));
#1292=PRESENTATION_STYLE_ASSIGNMENT((#1314));
#1293=PRESENTATION_STYLE_ASSIGNMENT((#1315));
#1294=PRESENTATION_STYLE_ASSIGNMENT((#1316));
#1295=PRESENTATION_STYLE_ASSIGNMENT((#1317));
#1296=PRESENTATION_STYLE_ASSIGNMENT((#1318));
#1297=PRESENTATION_STYLE_ASSIGNMENT((#1319));
#1298=PRESENTATION_STYLE_ASSIGNMENT((#1320));
#1299=PRESENTATION_STYLE_ASSIGNMENT((#1321));
#1300=PRESENTATION_STYLE_ASSIGNMENT((#1322));
#1301=SURFACE_STYLE_USAGE(.BOTH.,#1323);
#1302=SURFACE_STYLE_USAGE(.BOTH.,#1324);
#1303=SURFACE_STYLE_USAGE(.BOTH.,#1325);
#1304=SURFACE_STYLE_USAGE(.BOTH.,#1326);
#1305=SURFACE_STYLE_USAGE(.BOTH.,#1327);
#1306=SURFACE_STYLE_USAGE(.BOTH.,#1328);
#1307=SURFACE_STYLE_USAGE(.BOTH.,#1329);
#1308=SURFACE_STYLE_USAGE(.BOTH.,#1330);
#1309=SURFACE_STYLE_USAGE(.BOTH.,#1331);
#1310=SURFACE_STYLE_USAGE(.BOTH.,#1332);
#1311=SURFACE_STYLE_USAGE(.BOTH.,#1333);
#1312=SURFACE_STYLE_USAGE(.BOTH.,#1334);
#1313=SURFACE_STYLE_USAGE(.BOTH.,#1335);
#1314=SURFACE_STYLE_USAGE(.BOTH.,#1336);
#1315=SURFACE_STYLE_USAGE(.BOTH.,#1337);
#1316=SURFACE_STYLE_USAGE(.BOTH.,#1338);
#1317=SURFACE_STYLE_USAGE(.BOTH.,#1339);
#1318=SURFACE_STYLE_USAGE(.BOTH.,#1340);
#1319=SURFACE_STYLE_USAGE(.BOTH.,#1341);
#1320=SURFACE_STYLE_USAGE(.BOTH.,#1342);
#1321=SURFACE_STYLE_USAGE(.BOTH.,#1343);
#1322=SURFACE_STYLE_USAGE(.BOTH.,#1344);
#1323=SURFACE_SIDE_STYLE('',(#1345));
#1324=SURFACE_SIDE_STYLE('',(#1346));
#1325=SURFACE_SIDE_STYLE('',(#1347));
#1326=SURFACE_SIDE_STYLE('',(#1348));
#1327=SURFACE_SIDE_STYLE('',(#1349));
#1328=SURFACE_SIDE_STYLE('',(#1350));
#1329=SURFACE_SIDE_STYLE('',(#1351));
#1330=SURFACE_SIDE_STYLE('',(#1352));
#1331=SURFACE_SIDE_STYLE('',(#1353));
#1332=SURFACE_SIDE_STYLE('',(#1354));
#1333=SURFACE_SIDE_STYLE('',(#1355));
#1334=SURFACE_SIDE_STYLE('',(#1356));
#1335=SURFACE_SIDE_STYLE('',(#1357));
#1336=SURFACE_SIDE_STYLE('',(#1358));
#1337=SURFACE_SIDE_STYLE('',(#1359));
#1338=SURFACE_SIDE_STYLE('',(#1360));
#1339=SURFACE_SIDE_STYLE('',(#1361));
#1340=SURFACE_SIDE_STYLE('',(#1362));
#1341=SURFACE_SIDE_STYLE('',(#1363));
#1342=SURFACE_SIDE_STYLE('',(#1364));
#1343=SURFACE_SIDE_STYLE('',(#1365));
#1344=SURFACE_SIDE_STYLE('',(#1366));
#1345=SURFACE_STYLE_FILL_AREA(#1367);
#1346=SURFACE_STYLE_FILL_AREA(#1368);
#1347=SURFACE_STYLE_FILL_AREA(#1369);
#1348=SURFACE_STYLE_FILL_AREA(#1370);
#1349=SURFACE_STYLE_FILL_AREA(#1371);
#1350=SURFACE_STYLE_FILL_AREA(#1372);
#1351=SURFACE_STYLE_FILL_AREA(#1373);
#1352=SURFACE_STYLE_FILL_AREA(#1374);
#1353=SURFACE_STYLE_FILL_AREA(#1375);
#1354=SURFACE_STYLE_FILL_AREA(#1376);
#1355=SURFACE_STYLE_FILL_AREA(#1377);
#1356=SURFACE_STYLE_FILL_AREA(#1378);
#1357=SURFACE_STYLE_FILL_AREA(#1379);
#1358=SURFACE_STYLE_FILL_AREA(#1380);
#1359=SURFACE_STYLE_FILL_AREA(#1381);
#1360=SURFACE_STYLE_FILL_AREA(#1382);
#1361=SURFACE_STYLE_FILL_AREA(#1383);
#1362=SURFACE_STYLE_FILL_AREA(#1384);
#1363=SURFACE_STYLE_FILL_AREA(#1385);
#1364=SURFACE_STYLE_FILL_AREA(#1386);
#1365=SURFACE_STYLE_FILL_AREA(#1387);
#1366=SURFACE_STYLE_FILL_AREA(#1388);
#1367=FILL_AREA_STYLE('',(#1389));
#1368=FILL_AREA_STYLE('',(#1390));
#1369=FILL_AREA_STYLE('',(#1391));
#1370=FILL_AREA_STYLE('',(#1392));
#1371=FILL_AREA_STYLE('',(#1393));
#1372=FILL_AREA_STYLE('',(#1394));
#1373=FILL_AREA_STYLE('',(#1395));
#1374=FILL_AREA_STYLE('',(#1396));
#1375=FILL_AREA_STYLE('',(#1397));
#1376=FILL_AREA_STYLE('',(#1398));
#1377=FILL_AREA_STYLE('',(#1399));
#1378=FILL_AREA_STYLE('',(#1400));
#1379=FILL_AREA_STYLE('',(#1401));
#1380=FILL_AREA_STYLE('',(#1402));
#1381=FILL_AREA_STYLE('',(#1403));
#1382=FILL_AREA_STYLE('',(#1404));
#1383=FILL_AREA_STYLE('',(#1405));
#1384=FILL_AREA_STYLE('',(#1406));
#1385=FILL_AREA_STYLE('',(#1407));
#1386=FILL_AREA_STYLE('',(#1408));
#1387=FILL_AREA_STYLE('',(#1409));
#1388=FILL_AREA_STYLE('',(#1410));
#1389=FILL_AREA_STYLE_COLOUR('',#1411);
#1390=FILL_AREA_STYLE_COLOUR('',#1412);
#1391=FILL_AREA_STYLE_COLOUR('',#1412);
#1392=FILL_AREA_STYLE_COLOUR('',#1412);
#1393=FILL_AREA_STYLE_COLOUR('',#1412);
#1394=FILL_AREA_STYLE_COLOUR('',#1412);
#1395=FILL_AREA_STYLE_COLOUR('',#1412);
#1396=FILL_AREA_STYLE_COLOUR('',#1412);
#1397=FILL_AREA_STYLE_COLOUR('',#1412);
#1398=FILL_AREA_STYLE_COLOUR('',#1412);
#1399=FILL_AREA_STYLE_COLOUR('',#1412);
#1400=FILL_AREA_STYLE_COLOUR('',#1412);
#1401=FILL_AREA_STYLE_COLOUR('',#1412);
#1402=FILL_AREA_STYLE_COLOUR('',#1412);
#1403=FILL_AREA_STYLE_COLOUR('',#1412);
#1404=FILL_AREA_STYLE_COLOUR('',#1412);
#1405=FILL_AREA_STYLE_COLOUR('',#1412);
#1406=FILL_AREA_STYLE_COLOUR('',#1412);
#1407=FILL_AREA_STYLE_COLOUR('',#1412);
#1408=FILL_AREA_STYLE_COLOUR('',#1412);
#1409=FILL_AREA_STYLE_COLOUR('',#1412);
#1410=FILL_AREA_STYLE_COLOUR('',#1412);
#1411=COLOUR_RGB('',0.529411764705882,0.568627450980392,0.6);
#1412=COLOUR_RGB('',0.87843137254902,0.913725490196078,0.0901960784313725);
#1413=MANIFOLD_SOLID_BREP('Part 1',#1277);
#1414=SHAPE_DEFINITION_REPRESENTATION(#2256,#1415);
#1415=SHAPE_REPRESENTATION('Part 1',(#1416),#2251);
#1416=AXIS2_PLACEMENT_3D('',#1892,#1532,#1533);
#1417=AXIS2_PLACEMENT_3D('',#1893,#1534,#1535);
#1418=AXIS2_PLACEMENT_3D('',#1894,#1536,#1537);
#1419=AXIS2_PLACEMENT_3D('',#1896,#1538,#1539);
#1420=AXIS2_PLACEMENT_3D('',#1904,#1543,#1544);
#1421=AXIS2_PLACEMENT_3D('',#1908,#1546,#1547);
#1422=AXIS2_PLACEMENT_3D('',#1913,#1550,#1551);
#1423=AXIS2_PLACEMENT_3D('',#1920,#1556,#1557);
#1424=AXIS2_PLACEMENT_3D('',#1922,#1559,#1560);
#1425=AXIS2_PLACEMENT_3D('',#1928,#1564,#1565);
#1426=AXIS2_PLACEMENT_3D('',#1930,#1567,#1568);
#1427=AXIS2_PLACEMENT_3D('',#1931,#1569,#1570);
#1428=AXIS2_PLACEMENT_3D('',#1933,#1571,#1572);
#1429=AXIS2_PLACEMENT_3D('',#1934,#1573,#1574);
#1430=AXIS2_PLACEMENT_3D('',#1940,#1578,#1579);
#1431=AXIS2_PLACEMENT_3D('',#1950,#1585,#1586);
#1432=AXIS2_PLACEMENT_3D('',#1951,#1587,#1588);
#1433=AXIS2_PLACEMENT_3D('',#1955,#1590,#1591);
#1434=AXIS2_PLACEMENT_3D('',#1958,#1593,#1594);
#1435=AXIS2_PLACEMENT_3D('',#1966,#1599,#1600);
#1436=AXIS2_PLACEMENT_3D('',#1967,#1601,#1602);
#1437=AXIS2_PLACEMENT_3D('',#1971,#1605,#1606);
#1438=AXIS2_PLACEMENT_3D('',#1973,#1608,#1609);
#1439=AXIS2_PLACEMENT_3D('',#1979,#1613,#1614);
#1440=AXIS2_PLACEMENT_3D('',#1980,#1615,#1616);
#1441=AXIS2_PLACEMENT_3D('',#1981,#1617,#1618);
#1442=AXIS2_PLACEMENT_3D('',#1983,#1619,#1620);
#1443=AXIS2_PLACEMENT_3D('',#1984,#1621,#1622);
#1444=AXIS2_PLACEMENT_3D('',#1985,#1623,#1624);
#1445=AXIS2_PLACEMENT_3D('',#1989,#1626,#1627);
#1446=AXIS2_PLACEMENT_3D('',#1993,#1629,#1630);
#1447=AXIS2_PLACEMENT_3D('',#1997,#1632,#1633);
#1448=AXIS2_PLACEMENT_3D('',#1998,#1634,#1635);
#1449=AXIS2_PLACEMENT_3D('',#1999,#1636,#1637);
#1450=AXIS2_PLACEMENT_3D('',#2006,#1640,#1641);
#1451=AXIS2_PLACEMENT_3D('',#2009,#1643,#1644);
#1452=AXIS2_PLACEMENT_3D('',#2017,#1648,#1649);
#1453=AXIS2_PLACEMENT_3D('',#2018,#1650,#1651);
#1454=AXIS2_PLACEMENT_3D('',#2021,#1654,#1655);
#1455=AXIS2_PLACEMENT_3D('',#2028,#1660,#1661);
#1456=AXIS2_PLACEMENT_3D('',#2029,#1662,#1663);
#1457=AXIS2_PLACEMENT_3D('',#2035,#1667,#1668);
#1458=AXIS2_PLACEMENT_3D('',#2036,#1669,#1670);
#1459=AXIS2_PLACEMENT_3D('',#2038,#1671,#1672);
#1460=AXIS2_PLACEMENT_3D('',#2039,#1673,#1674);
#1461=AXIS2_PLACEMENT_3D('',#2051,#1681,#1682);
#1462=AXIS2_PLACEMENT_3D('',#2052,#1683,#1684);
#1463=AXIS2_PLACEMENT_3D('',#2054,#1685,#1686);
#1464=AXIS2_PLACEMENT_3D('',#2058,#1688,#1689);
#1465=AXIS2_PLACEMENT_3D('',#2059,#1690,#1691);
#1466=AXIS2_PLACEMENT_3D('',#2062,#1693,#1694);
#1467=AXIS2_PLACEMENT_3D('',#2082,#1705,#1706);
#1468=AXIS2_PLACEMENT_3D('',#2083,#1707,#1708);
#1469=AXIS2_PLACEMENT_3D('',#2085,#1709,#1710);
#1470=AXIS2_PLACEMENT_3D('',#2090,#1713,#1714);
#1471=AXIS2_PLACEMENT_3D('',#2094,#1717,#1718);
#1472=AXIS2_PLACEMENT_3D('',#2097,#1720,#1721);
#1473=AXIS2_PLACEMENT_3D('',#2099,#1723,#1724);
#1474=AXIS2_PLACEMENT_3D('',#2103,#1728,#1729);
#1475=AXIS2_PLACEMENT_3D('',#2104,#1730,#1731);
#1476=AXIS2_PLACEMENT_3D('',#2106,#1733,#1734);
#1477=AXIS2_PLACEMENT_3D('',#2107,#1735,#1736);
#1478=AXIS2_PLACEMENT_3D('',#2109,#1737,#1738);
#1479=AXIS2_PLACEMENT_3D('',#2110,#1739,#1740);
#1480=AXIS2_PLACEMENT_3D('',#2111,#1741,#1742);
#1481=AXIS2_PLACEMENT_3D('',#2114,#1744,#1745);
#1482=AXIS2_PLACEMENT_3D('',#2118,#1748,#1749);
#1483=AXIS2_PLACEMENT_3D('',#2119,#1750,#1751);
#1484=AXIS2_PLACEMENT_3D('',#2120,#1752,#1753);
#1485=AXIS2_PLACEMENT_3D('',#2121,#1754,#1755);
#1486=AXIS2_PLACEMENT_3D('',#2124,#1757,#1758);
#1487=AXIS2_PLACEMENT_3D('',#2128,#1761,#1762);
#1488=AXIS2_PLACEMENT_3D('',#2129,#1763,#1764);
#1489=AXIS2_PLACEMENT_3D('',#2130,#1765,#1766);
#1490=AXIS2_PLACEMENT_3D('',#2140,#1772,#1773);
#1491=AXIS2_PLACEMENT_3D('',#2141,#1774,#1775);
#1492=AXIS2_PLACEMENT_3D('',#2144,#1777,#1778);
#1493=AXIS2_PLACEMENT_3D('',#2148,#1781,#1782);
#1494=AXIS2_PLACEMENT_3D('',#2149,#1783,#1784);
#1495=AXIS2_PLACEMENT_3D('',#2152,#1786,#1787);
#1496=AXIS2_PLACEMENT_3D('',#2160,#1792,#1793);
#1497=AXIS2_PLACEMENT_3D('',#2161,#1794,#1795);
#1498=AXIS2_PLACEMENT_3D('',#2162,#1796,#1797);
#1499=AXIS2_PLACEMENT_3D('',#2163,#1798,#1799);
#1500=AXIS2_PLACEMENT_3D('',#2164,#1800,#1801);
#1501=AXIS2_PLACEMENT_3D('',#2165,#1802,#1803);
#1502=AXIS2_PLACEMENT_3D('',#2166,#1804,#1805);
#1503=AXIS2_PLACEMENT_3D('',#2168,#1806,#1807);
#1504=AXIS2_PLACEMENT_3D('',#2172,#1809,#1810);
#1505=AXIS2_PLACEMENT_3D('',#2175,#1812,#1813);
#1506=AXIS2_PLACEMENT_3D('',#2179,#1815,#1816);
#1507=AXIS2_PLACEMENT_3D('',#2183,#1818,#1819);
#1508=AXIS2_PLACEMENT_3D('',#2184,#1820,#1821);
#1509=AXIS2_PLACEMENT_3D('',#2194,#1826,#1827);
#1510=AXIS2_PLACEMENT_3D('',#2200,#1831,#1832);
#1511=AXIS2_PLACEMENT_3D('',#2204,#1835,#1836);
#1512=AXIS2_PLACEMENT_3D('',#2208,#1839,#1840);
#1513=AXIS2_PLACEMENT_3D('',#2209,#1841,#1842);
#1514=AXIS2_PLACEMENT_3D('',#2212,#1844,#1845);
#1515=AXIS2_PLACEMENT_3D('',#2215,#1847,#1848);
#1516=AXIS2_PLACEMENT_3D('',#2216,#1849,#1850);
#1517=AXIS2_PLACEMENT_3D('',#2220,#1853,#1854);
#1518=AXIS2_PLACEMENT_3D('',#2223,#1856,#1857);
#1519=AXIS2_PLACEMENT_3D('',#2224,#1858,#1859);
#1520=AXIS2_PLACEMENT_3D('',#2227,#1861,#1862);
#1521=AXIS2_PLACEMENT_3D('',#2228,#1863,#1864);
#1522=AXIS2_PLACEMENT_3D('',#2232,#1867,#1868);
#1523=AXIS2_PLACEMENT_3D('',#2235,#1870,#1871);
#1524=AXIS2_PLACEMENT_3D('',#2236,#1872,#1873);
#1525=AXIS2_PLACEMENT_3D('',#2240,#1876,#1877);
#1526=AXIS2_PLACEMENT_3D('',#2241,#1878,#1879);
#1527=AXIS2_PLACEMENT_3D('',#2242,#1880,#1881);
#1528=AXIS2_PLACEMENT_3D('',#2244,#1883,#1884);
#1529=AXIS2_PLACEMENT_3D('',#2246,#1886,#1887);
#1530=AXIS2_PLACEMENT_3D('',#2247,#1888,#1889);
#1531=AXIS2_PLACEMENT_3D('',#2249,#1890,#1891);
#1532=DIRECTION('',(0.,0.,1.));
#1533=DIRECTION('',(1.,0.,0.));
#1534=DIRECTION('',(1.,0.,0.));
#1535=DIRECTION('',(0.,-1.,0.));
#1536=DIRECTION('',(1.,0.,0.));
#1537=DIRECTION('',(0.,-1.,0.));
#1538=DIRECTION('',(1.,0.,0.));
#1539=DIRECTION('',(0.,-1.,0.));
#1540=DIRECTION('',(0.,1.,0.));
#1541=DIRECTION('',(0.,0.,1.));
#1542=DIRECTION('',(0.,1.,0.));
#1543=DIRECTION('',(1.,0.,0.));
#1544=DIRECTION('',(0.,-1.,0.));
#1545=DIRECTION('',(0.,1.,0.));
#1546=DIRECTION('',(1.,0.,0.));
#1547=DIRECTION('',(0.,-1.,0.));
#1548=DIRECTION('',(0.,1.,0.));
#1549=DIRECTION('',(0.,0.,1.));
#1550=DIRECTION('',(0.,-1.,0.));
#1551=DIRECTION('',(-1.,0.,0.));
#1552=DIRECTION('',(0.,0.,1.));
#1553=DIRECTION('',(1.,0.,0.));
#1554=DIRECTION('',(0.,0.,1.));
#1555=DIRECTION('',(1.,0.,0.));
#1556=DIRECTION('',(0.,0.,1.));
#1557=DIRECTION('',(1.,0.,0.));
#1558=DIRECTION('',(1.,0.,0.));
#1559=DIRECTION('',(0.,0.,1.));
#1560=DIRECTION('',(1.,0.,0.));
#1561=DIRECTION('',(0.,1.,0.));
#1562=DIRECTION('',(1.,0.,0.));
#1563=DIRECTION('',(0.,1.,0.));
#1564=DIRECTION('',(-1.,0.,0.));
#1565=DIRECTION('',(0.,1.,0.));
#1566=DIRECTION('',(-1.,0.,0.));
#1567=DIRECTION('',(-1.,0.,0.));
#1568=DIRECTION('',(0.,1.,0.));
#1569=DIRECTION('',(1.,0.,0.));
#1570=DIRECTION('',(0.,-1.,0.));
#1571=DIRECTION('',(1.,0.,0.));
#1572=DIRECTION('',(0.,0.,-1.));
#1573=DIRECTION('',(0.,1.,0.));
#1574=DIRECTION('',(1.,0.,0.));
#1575=DIRECTION('',(1.,0.,3.01691039300315E-16));
#1576=DIRECTION('',(0.,0.,1.));
#1577=DIRECTION('',(-1.,0.,0.));
#1578=DIRECTION('',(3.01691039300315E-16,0.,-1.));
#1579=DIRECTION('',(-1.,0.,-3.01691039300315E-16));
#1580=DIRECTION('',(0.,-1.,0.));
#1581=DIRECTION('',(1.,0.,3.01691039300315E-16));
#1582=DIRECTION('',(0.,-1.,0.));
#1583=DIRECTION('',(-1.,0.,0.));
#1584=DIRECTION('',(0.,-1.,0.));
#1585=DIRECTION('',(-1.,0.,0.));
#1586=DIRECTION('',(0.,1.,0.));
#1587=DIRECTION('',(1.,0.,0.));
#1588=DIRECTION('',(0.,-1.,0.));
#1589=DIRECTION('',(0.,0.,1.));
#1590=DIRECTION('',(-1.,0.,0.));
#1591=DIRECTION('',(0.,1.,0.));
#1592=DIRECTION('',(0.,-1.,0.));
#1593=DIRECTION('',(0.,1.,0.));
#1594=DIRECTION('',(1.,0.,0.));
#1595=DIRECTION('',(-1.,0.,0.));
#1596=DIRECTION('',(0.,0.,1.));
#1597=DIRECTION('',(0.,0.,1.));
#1598=DIRECTION('',(-1.,0.,0.));
#1599=DIRECTION('',(1.,0.,0.));
#1600=DIRECTION('',(0.,-1.,0.));
#1601=DIRECTION('',(1.,0.,0.));
#1602=DIRECTION('',(0.,-1.,0.));
#1603=DIRECTION('',(0.,-1.,0.));
#1604=DIRECTION('',(0.,1.,0.));
#1605=DIRECTION('',(0.,0.,1.));
#1606=DIRECTION('',(1.,0.,0.));
#1607=DIRECTION('',(-1.,0.,0.));
#1608=DIRECTION('',(0.,0.,1.));
#1609=DIRECTION('',(1.,0.,0.));
#1610=DIRECTION('',(0.,-1.,0.));
#1611=DIRECTION('',(0.,1.,0.));
#1612=DIRECTION('',(-1.,0.,0.));
#1613=DIRECTION('',(-1.,0.,0.));
#1614=DIRECTION('',(0.,1.,0.));
#1615=DIRECTION('',(1.,0.,0.));
#1616=DIRECTION('',(0.,-1.,0.));
#1617=DIRECTION('',(1.,0.,0.));
#1618=DIRECTION('',(0.,-1.,0.));
#1619=DIRECTION('',(1.,0.,0.));
#1620=DIRECTION('',(0.,0.,-1.));
#1621=DIRECTION('',(0.,1.,0.));
#1622=DIRECTION('',(1.,0.,0.));
#1623=DIRECTION('',(0.,-1.,0.));
#1624=DIRECTION('',(1.,0.,0.));
#1625=DIRECTION('',(0.,0.,1.));
#1626=DIRECTION('',(0.,1.,0.));
#1627=DIRECTION('',(1.,0.,0.));
#1628=DIRECTION('',(0.,0.,-1.));
#1629=DIRECTION('',(0.,1.,0.));
#1630=DIRECTION('',(1.,0.,0.));
#1631=DIRECTION('',(0.,0.,1.));
#1632=DIRECTION('',(0.,-1.,0.));
#1633=DIRECTION('',(1.,0.,0.));
#1634=DIRECTION('',(-1.,0.,0.));
#1635=DIRECTION('',(0.,1.,0.));
#1636=DIRECTION('',(1.,0.,0.));
#1637=DIRECTION('',(0.,-1.,0.));
#1638=DIRECTION('',(0.,0.,-1.));
#1639=DIRECTION('',(0.,-1.,0.));
#1640=DIRECTION('',(-1.,0.,0.));
#1641=DIRECTION('',(0.,1.,0.));
#1642=DIRECTION('',(0.,1.,0.));
#1643=DIRECTION('',(-1.,0.,0.));
#1644=DIRECTION('',(0.,1.,0.));
#1645=DIRECTION('',(0.,-1.,0.));
#1646=DIRECTION('',(0.,0.,-1.));
#1647=DIRECTION('',(0.,1.,0.));
#1648=DIRECTION('',(-1.,0.,0.));
#1649=DIRECTION('',(0.,1.,0.));
#1650=DIRECTION('',(-1.,0.,0.));
#1651=DIRECTION('',(0.,1.,0.));
#1652=DIRECTION('',(-1.,0.,0.));
#1653=DIRECTION('',(1.,0.,0.));
#1654=DIRECTION('',(0.,1.,0.));
#1655=DIRECTION('',(1.,0.,0.));
#1656=DIRECTION('',(0.,0.,-1.));
#1657=DIRECTION('',(1.,0.,0.));
#1658=DIRECTION('',(0.,0.,-1.));
#1659=DIRECTION('',(1.,0.,0.));
#1660=DIRECTION('',(0.,0.,1.));
#1661=DIRECTION('',(1.,0.,0.));
#1662=DIRECTION('',(0.,0.,1.));
#1663=DIRECTION('',(1.,0.,0.));
#1664=DIRECTION('',(0.,1.,0.));
#1665=DIRECTION('',(0.,1.,0.));
#1666=DIRECTION('',(1.,0.,0.));
#1667=DIRECTION('',(-1.,0.,0.));
#1668=DIRECTION('',(0.,1.,0.));
#1669=DIRECTION('',(1.,0.,0.));
#1670=DIRECTION('',(0.,-1.,0.));
#1671=DIRECTION('',(1.,0.,0.));
#1672=DIRECTION('',(0.,0.,-1.));
#1673=DIRECTION('',(0.,0.,-1.));
#1674=DIRECTION('',(0.,1.,0.));
#1675=DIRECTION('',(0.,-1.,0.));
#1676=DIRECTION('',(1.,0.,0.));
#1677=DIRECTION('',(0.,1.,0.));
#1678=DIRECTION('',(-1.,0.,0.));
#1679=DIRECTION('',(0.,-1.,0.));
#1680=DIRECTION('',(1.,0.,0.));
#1681=DIRECTION('',(0.,1.,0.));
#1682=DIRECTION('',(1.,0.,0.));
#1683=DIRECTION('',(0.,1.,0.));
#1684=DIRECTION('',(1.,0.,0.));
#1685=DIRECTION('',(0.,-1.,0.));
#1686=DIRECTION('',(1.,0.,0.));
#1687=DIRECTION('',(1.85863229568943E-16,0.,-1.));
#1688=DIRECTION('',(0.,-1.,0.));
#1689=DIRECTION('',(1.,0.,0.));
#1690=DIRECTION('',(0.,-1.,0.));
#1691=DIRECTION('',(1.,0.,0.));
#1692=DIRECTION('',(0.,0.,-1.));
#1693=DIRECTION('',(1.15648231731787E-15,0.,-1.));
#1694=DIRECTION('',(-1.,0.,-1.15648231731787E-15));
#1695=DIRECTION('',(0.,-1.,0.));
#1696=DIRECTION('',(1.,0.,1.15648231731787E-15));
#1697=DIRECTION('',(0.,-1.,0.));
#1698=DIRECTION('',(1.,0.,1.15648231731787E-15));
#1699=DIRECTION('',(0.,-1.,0.));
#1700=DIRECTION('',(1.,0.,1.15648231731787E-15));
#1701=DIRECTION('',(0.,-1.,0.));
#1702=DIRECTION('',(-1.,0.,0.));
#1703=DIRECTION('',(0.,-1.,0.));
#1704=DIRECTION('',(1.,0.,1.15648231731787E-15));
#1705=DIRECTION('',(1.,0.,0.));
#1706=DIRECTION('',(0.,-1.,0.));
#1707=DIRECTION('',(1.,0.,0.));
#1708=DIRECTION('',(0.,-1.,0.));
#1709=DIRECTION('',(1.,0.,0.));
#1710=DIRECTION('',(0.,-1.,0.));
#1711=DIRECTION('',(0.,0.,-1.));
#1712=DIRECTION('',(0.,-1.,0.));
#1713=DIRECTION('',(-1.,0.,0.));
#1714=DIRECTION('',(0.,1.,0.));
#1715=DIRECTION('',(0.,0.,-1.));
#1716=DIRECTION('',(0.,-1.,0.));
#1717=DIRECTION('',(-1.,0.,0.));
#1718=DIRECTION('',(0.,1.,0.));
#1719=DIRECTION('',(0.,1.,0.));
#1720=DIRECTION('',(-1.,0.,0.));
#1721=DIRECTION('',(0.,1.,0.));
#1722=DIRECTION('',(-1.,0.,0.));
#1723=DIRECTION('',(0.,-1.,0.));
#1724=DIRECTION('',(-1.,0.,0.));
#1725=DIRECTION('',(-1.,0.,0.));
#1726=DIRECTION('',(0.,0.,-1.));
#1727=DIRECTION('',(-1.,0.,0.));
#1728=DIRECTION('',(0.,0.,1.));
#1729=DIRECTION('',(1.,0.,0.));
#1730=DIRECTION('',(0.,0.,1.));
#1731=DIRECTION('',(1.,0.,0.));
#1732=DIRECTION('',(0.,1.,0.));
#1733=DIRECTION('',(1.,0.,0.));
#1734=DIRECTION('',(0.,-1.,0.));
#1735=DIRECTION('',(1.,0.,0.));
#1736=DIRECTION('',(0.,-1.,0.));
#1737=DIRECTION('',(1.,0.,0.));
#1738=DIRECTION('',(0.,0.,-1.));
#1739=DIRECTION('',(0.,-1.,0.));
#1740=DIRECTION('',(-1.,0.,0.));
#1741=DIRECTION('',(0.,-1.,0.));
#1742=DIRECTION('',(1.,0.,0.));
#1743=DIRECTION('',(0.,-1.,0.));
#1744=DIRECTION('',(-1.,0.,0.));
#1745=DIRECTION('',(0.,1.,0.));
#1746=DIRECTION('',(0.,0.,-1.));
#1747=DIRECTION('',(0.,-1.,0.));
#1748=DIRECTION('',(0.,-1.,0.));
#1749=DIRECTION('',(-1.,0.,0.));
#1750=DIRECTION('',(0.,1.,0.));
#1751=DIRECTION('',(1.,0.,0.));
#1752=DIRECTION('',(0.,-1.,0.));
#1753=DIRECTION('',(-1.,0.,0.));
#1754=DIRECTION('',(0.,-1.,0.));
#1755=DIRECTION('',(1.,0.,0.));
#1756=DIRECTION('',(0.,-1.,0.));
#1757=DIRECTION('',(1.,0.,0.));
#1758=DIRECTION('',(0.,-1.,0.));
#1759=DIRECTION('',(0.,0.,1.));
#1760=DIRECTION('',(0.,-1.,0.));
#1761=DIRECTION('',(0.,-1.,0.));
#1762=DIRECTION('',(-1.,0.,0.));
#1763=DIRECTION('',(0.,1.,0.));
#1764=DIRECTION('',(1.,0.,0.));
#1765=DIRECTION('',(1.,0.,0.));
#1766=DIRECTION('',(0.,-1.,0.));
#1767=DIRECTION('',(0.,0.,1.));
#1768=DIRECTION('',(0.,-1.,0.));
#1769=DIRECTION('',(0.,-1.,0.));
#1770=DIRECTION('',(0.,0.,1.));
#1771=DIRECTION('',(0.,-1.,0.));
#1772=DIRECTION('',(0.,-1.,0.));
#1773=DIRECTION('',(-1.,0.,0.));
#1774=DIRECTION('',(0.,1.,0.));
#1775=DIRECTION('',(1.,0.,0.));
#1776=DIRECTION('',(0.,-1.,0.));
#1777=DIRECTION('',(0.,0.,1.));
#1778=DIRECTION('',(0.,-1.,0.));
#1779=DIRECTION('',(-1.,0.,0.));
#1780=DIRECTION('',(0.,-1.,0.));
#1781=DIRECTION('',(0.,-1.,0.));
#1782=DIRECTION('',(-1.,0.,0.));
#1783=DIRECTION('',(0.,1.,0.));
#1784=DIRECTION('',(1.,0.,0.));
#1785=DIRECTION('',(0.,-1.,0.));
#1786=DIRECTION('',(-1.,0.,-1.85863229568943E-16));
#1787=DIRECTION('',(-1.85863229568943E-16,0.,1.));
#1788=DIRECTION('',(1.85863229568943E-16,0.,-1.));
#1789=DIRECTION('',(0.,-1.,0.));
#1790=DIRECTION('',(1.85863229568943E-16,0.,-1.));
#1791=DIRECTION('',(0.,-1.,0.));
#1792=DIRECTION('',(0.,-1.,0.));
#1793=DIRECTION('',(-1.,0.,0.));
#1794=DIRECTION('',(0.,-1.,0.));
#1795=DIRECTION('',(1.,0.,0.));
#1796=DIRECTION('',(0.,-1.,0.));
#1797=DIRECTION('',(-1.,0.,0.));
#1798=DIRECTION('',(0.,1.,0.));
#1799=DIRECTION('',(1.,0.,0.));
#1800=DIRECTION('',(0.,1.,0.));
#1801=DIRECTION('',(1.,0.,0.));
#1802=DIRECTION('',(0.,1.,0.));
#1803=DIRECTION('',(1.,0.,0.));
#1804=DIRECTION('',(0.,-1.,0.));
#1805=DIRECTION('',(1.,0.,0.));
#1806=DIRECTION('',(0.,-1.,0.));
#1807=DIRECTION('',(1.,0.,0.));
#1808=DIRECTION('',(0.,0.,1.));
#1809=DIRECTION('',(0.,-1.,0.));
#1810=DIRECTION('',(1.,0.,0.));
#1811=DIRECTION('',(1.,0.,5.78241158658936E-16));
#1812=DIRECTION('',(0.,1.,0.));
#1813=DIRECTION('',(1.,0.,0.));
#1814=DIRECTION('',(1.,0.,0.));
#1815=DIRECTION('',(0.,-1.,0.));
#1816=DIRECTION('',(1.,0.,0.));
#1817=DIRECTION('',(8.67361737988403E-16,0.,1.));
#1818=DIRECTION('',(0.,-1.,0.));
#1819=DIRECTION('',(1.,0.,0.));
#1820=DIRECTION('',(0.,1.,0.));
#1821=DIRECTION('',(1.,0.,0.));
#1822=DIRECTION('',(0.,0.,-1.));
#1823=DIRECTION('',(-1.,0.,0.));
#1824=DIRECTION('',(0.,0.,-1.));
#1825=DIRECTION('',(-1.,0.,0.));
#1826=DIRECTION('',(-1.,0.,0.));
#1827=DIRECTION('',(0.,1.,0.));
#1828=DIRECTION('',(0.,-1.,0.));
#1829=DIRECTION('',(0.,0.,-1.));
#1830=DIRECTION('',(0.,-1.,0.));
#1831=DIRECTION('',(0.,0.,1.));
#1832=DIRECTION('',(0.,-1.,0.));
#1833=DIRECTION('',(0.,-1.,0.));
#1834=DIRECTION('',(-1.,0.,0.));
#1835=DIRECTION('',(-1.,0.,0.));
#1836=DIRECTION('',(0.,1.,0.));
#1837=DIRECTION('',(0.,-1.,0.));
#1838=DIRECTION('',(0.,0.,-1.));
#1839=DIRECTION('',(0.,-1.,0.));
#1840=DIRECTION('',(-1.,0.,0.));
#1841=DIRECTION('',(0.,1.,0.));
#1842=DIRECTION('',(1.,0.,0.));
#1843=DIRECTION('',(0.,-1.,0.));
#1844=DIRECTION('',(0.,-1.,0.));
#1845=DIRECTION('',(-1.,0.,0.));
#1846=DIRECTION('',(0.,-1.,0.));
#1847=DIRECTION('',(0.,-1.,0.));
#1848=DIRECTION('',(1.,0.,0.));
#1849=DIRECTION('',(1.,0.,-8.67361737988403E-16));
#1850=DIRECTION('',(-8.67361737988403E-16,0.,-1.));
#1851=DIRECTION('',(0.,-1.,0.));
#1852=DIRECTION('',(8.67361737988403E-16,0.,1.));
#1853=DIRECTION('',(0.,-1.,0.));
#1854=DIRECTION('',(-1.,0.,0.));
#1855=DIRECTION('',(0.,-1.,0.));
#1856=DIRECTION('',(0.,-1.,0.));
#1857=DIRECTION('',(1.,0.,0.));
#1858=DIRECTION('',(0.,-1.,0.));
#1859=DIRECTION('',(-1.,0.,0.));
#1860=DIRECTION('',(0.,-1.,0.));
#1861=DIRECTION('',(0.,-1.,0.));
#1862=DIRECTION('',(1.,0.,0.));
#1863=DIRECTION('',(5.78241158658936E-16,0.,-1.));
#1864=DIRECTION('',(-1.,0.,-5.78241158658936E-16));
#1865=DIRECTION('',(0.,-1.,0.));
#1866=DIRECTION('',(1.,0.,5.78241158658936E-16));
#1867=DIRECTION('',(0.,-1.,0.));
#1868=DIRECTION('',(-1.,0.,0.));
#1869=DIRECTION('',(0.,-1.,0.));
#1870=DIRECTION('',(0.,-1.,0.));
#1871=DIRECTION('',(1.,0.,0.));
#1872=DIRECTION('',(1.,0.,0.));
#1873=DIRECTION('',(0.,-1.,0.));
#1874=DIRECTION('',(0.,-1.,0.));
#1875=DIRECTION('',(0.,0.,1.));
#1876=DIRECTION('',(0.,-1.,0.));
#1877=DIRECTION('',(-1.,0.,0.));
#1878=DIRECTION('',(0.,-1.,0.));
#1879=DIRECTION('',(1.,0.,0.));
#1880=DIRECTION('',(0.,0.,1.));
#1881=DIRECTION('',(0.,-1.,0.));
#1882=DIRECTION('',(-1.,0.,0.));
#1883=DIRECTION('',(0.,0.,-1.));
#1884=DIRECTION('',(0.,1.,0.));
#1885=DIRECTION('',(1.,0.,0.));
#1886=DIRECTION('',(0.,-1.,0.));
#1887=DIRECTION('',(-1.,0.,0.));
#1888=DIRECTION('',(0.,1.,0.));
#1889=DIRECTION('',(1.,0.,0.));
#1890=DIRECTION('',(0.,1.,0.));
#1891=DIRECTION('',(1.,0.,0.));
#1892=CARTESIAN_POINT('',(0.,0.,0.));
#1893=CARTESIAN_POINT('',(0.01,0.00714396962150938,-0.022618));
#1894=CARTESIAN_POINT('',(0.01,0.00849990850687028,-0.020118));
#1895=CARTESIAN_POINT('',(0.01,0.00799990850687028,-0.020118));
#1896=CARTESIAN_POINT('',(0.01,0.00929075676947832,-0.017618));
#1897=CARTESIAN_POINT('',(0.01,0.00929075676947832,-0.022618));
#1898=CARTESIAN_POINT('',(0.01,0.00439180737511396,-0.0186181474048644));
#1899=CARTESIAN_POINT('',(0.01,0.00714396962150938,-0.0186181474048644));
#1900=CARTESIAN_POINT('',(0.01,0.00999997707083821,-0.0186181474048644));
#1901=CARTESIAN_POINT('',(0.01,0.00999995414167643,-0.022618));
#1902=CARTESIAN_POINT('',(0.01,0.00999995414167643,-0.022618));
#1903=CARTESIAN_POINT('',(0.01,0.00714396962150938,-0.022618));
#1904=CARTESIAN_POINT('',(0.0114999627694488,0.00714535545557737,-0.022618));
#1905=CARTESIAN_POINT('',(0.0114999627694488,0.00714535545557737,-0.0186181474048644));
#1906=CARTESIAN_POINT('',(0.0114999627694488,0.00439180737511396,-0.0186181474048644));
#1907=CARTESIAN_POINT('',(0.0114999813847244,0.00999997707083821,-0.0186181474048644));
#1908=CARTESIAN_POINT('',(0.0114999627694488,0.00929075676947832,-0.017618));
#1909=CARTESIAN_POINT('',(0.0114999627694488,0.00929075676947832,-0.022618));
#1910=CARTESIAN_POINT('',(0.0114999627694488,0.00714535545557737,-0.022618));
#1911=CARTESIAN_POINT('',(0.0114999627694488,0.00999995414167643,-0.022618));
#1912=CARTESIAN_POINT('',(0.0114999627694488,0.00999995414167643,-0.022618));
#1913=CARTESIAN_POINT('',(0.0107499813847244,0.00999995414167643,-0.022618));
#1914=CARTESIAN_POINT('',(0.01,0.00999995414167643,-0.022618));
#1915=CARTESIAN_POINT('',(0.01,0.00999997707083821,-0.0176180737024322));
#1916=CARTESIAN_POINT('',(0.0107499813847244,0.00999995414167643,-0.017618));
#1917=CARTESIAN_POINT('',(0.0114999813847244,0.00999997707083821,-0.0176180737024322));
#1918=CARTESIAN_POINT('',(0.0114999627694488,0.00999995414167643,-0.022618));
#1919=CARTESIAN_POINT('',(0.0107499813847244,0.00999995414167643,-0.022618));
#1920=CARTESIAN_POINT('',(-1.67638063430786E-8,0.00714535545557737,-0.022618));
#1921=CARTESIAN_POINT('',(0.01,0.00929075676947832,-0.022618));
#1922=CARTESIAN_POINT('',(-1.67638063430786E-8,0.00714535545557737,-0.017618));
#1923=CARTESIAN_POINT('',(0.01,0.00714396962150938,-0.017618));
#1924=CARTESIAN_POINT('',(0.01,0.00429075677056473,-0.0176180737024322));
#1925=CARTESIAN_POINT('',(0.0107499813847244,0.00429075676947832,-0.017618));
#1926=CARTESIAN_POINT('',(0.0114999813847244,0.00429075677056473,-0.0176180737024322));
#1927=CARTESIAN_POINT('',(0.0114999627694488,0.00714535545557737,-0.017618));
#1928=CARTESIAN_POINT('',(0.0107499813847244,0.00929075676947832,-0.017618));
#1929=CARTESIAN_POINT('',(0.0107499813847244,0.00439180737511396,-0.0186181474048644));
#1930=CARTESIAN_POINT('',(0.011,0.00849990850687028,-0.020118));
#1931=CARTESIAN_POINT('',(0.011,0.00849990850687028,-0.020118));
#1932=CARTESIAN_POINT('',(0.011,0.00799990850687028,-0.020118));
#1933=CARTESIAN_POINT('',(0.011,0.0071453326381743,-0.020118));
#1934=CARTESIAN_POINT('',(0.,0.01,0.00238185259513557));
#1935=CARTESIAN_POINT('',(3.46944695195361E-18,0.01,-0.0186181474048644));
#1936=CARTESIAN_POINT('',(-0.01,0.00999995425343514,-0.0186181474048644));
#1937=CARTESIAN_POINT('',(-0.01,0.00999990850687027,-0.022618));
#1938=CARTESIAN_POINT('',(-0.01,0.00999995425343514,-0.0176180737024322));
#1939=CARTESIAN_POINT('',(3.46944695195361E-18,0.01,-0.0176181474048644));
#1940=CARTESIAN_POINT('',(3.46944695195361E-18,0.01,-0.0186181474048644));
#1941=CARTESIAN_POINT('',(0.0115,0.01,-0.0186181474048644));
#1942=CARTESIAN_POINT('',(0.0115,0.,-0.0186181474048644));
#1943=CARTESIAN_POINT('',(3.46944695195361E-18,0.,-0.0186181474048644));
#1944=CARTESIAN_POINT('',(-0.0115,0.,-0.0186181474048644));
#1945=CARTESIAN_POINT('',(-0.0115,0.01,-0.0186181474048644));
#1946=CARTESIAN_POINT('',(-0.0114999962970614,0.0043918073751135,-0.0186181474048621));
#1947=CARTESIAN_POINT('',(-1.67638063427769E-8,0.00439180737511396,-0.0186181474048644));
#1948=CARTESIAN_POINT('',(-0.01,0.00439180737511396,-0.0186181474048644));
#1949=CARTESIAN_POINT('',(-0.01,0.00714396962150937,-0.0186181474048644));
#1950=CARTESIAN_POINT('',(-0.01,0.00714396962150937,-0.022618));
#1951=CARTESIAN_POINT('',(-0.01,0.00849990850687028,-0.020118));
#1952=CARTESIAN_POINT('',(-0.01,0.00799990850687028,-0.020118));
#1953=CARTESIAN_POINT('',(-0.01,0.00999990850687027,-0.022618));
#1954=CARTESIAN_POINT('',(-0.01,0.00999990850687027,-0.022618));
#1955=CARTESIAN_POINT('',(-0.01,0.00929075676947832,-0.017618));
#1956=CARTESIAN_POINT('',(-0.01,0.00929075676947832,-0.022618));
#1957=CARTESIAN_POINT('',(-0.01,0.00714396962150937,-0.022618));
#1958=CARTESIAN_POINT('',(-0.0107499981485307,0.00999990850687027,-0.022618));
#1959=CARTESIAN_POINT('',(-0.0107499981485307,0.00999990850687027,-0.022618));
#1960=CARTESIAN_POINT('',(-0.0114999962970614,0.00999990850687027,-0.022618));
#1961=CARTESIAN_POINT('',(-0.0114999962970614,0.00999990850687027,-0.022618));
#1962=CARTESIAN_POINT('',(-0.0114999981485307,0.00999995425343514,-0.0186181474048633));
#1963=CARTESIAN_POINT('',(-0.0114999962970614,0.00999990850687027,-0.022618));
#1964=CARTESIAN_POINT('',(-0.0114999981485307,0.00999995425343514,-0.0176180737024322));
#1965=CARTESIAN_POINT('',(-0.0107499981485307,0.00999990850687027,-0.017618));
#1966=CARTESIAN_POINT('',(-0.0114999962970614,0.0071453326381743,-0.022618));
#1967=CARTESIAN_POINT('',(-0.0114999962970614,0.00929075676947832,-0.017618));
#1968=CARTESIAN_POINT('',(-0.0114999962970614,0.00929075676947832,-0.022618));
#1969=CARTESIAN_POINT('',(-0.0115,0.01,-0.0186181474048644));
#1970=CARTESIAN_POINT('',(-0.0114999962970614,0.0071453326381743,-0.022618));
#1971=CARTESIAN_POINT('',(-1.67638063430786E-8,0.00714535545557737,-0.022618));
#1972=CARTESIAN_POINT('',(-1.67638063430786E-8,0.00929075676947832,-0.022618));
#1973=CARTESIAN_POINT('',(-1.67638063430786E-8,0.00714535545557737,-0.017618));
#1974=CARTESIAN_POINT('',(-0.01,0.00714396962150937,-0.017618));
#1975=CARTESIAN_POINT('',(-0.01,0.00429075677056473,-0.0176180737024322));
#1976=CARTESIAN_POINT('',(-0.0114999962970614,0.0071453326381743,-0.017618));
#1977=CARTESIAN_POINT('',(-0.0114999981485307,0.00429075677056473,-0.0176180737024322));
#1978=CARTESIAN_POINT('',(-0.0107499981485307,0.00429075676947832,-0.017618));
#1979=CARTESIAN_POINT('',(-1.67638063430786E-8,0.00929075676947832,-0.017618));
#1980=CARTESIAN_POINT('',(-0.011,0.00849990850687028,-0.020118));
#1981=CARTESIAN_POINT('',(-0.011,0.00849990850687028,-0.020118));
#1982=CARTESIAN_POINT('',(-0.011,0.00799990850687028,-0.020118));
#1983=CARTESIAN_POINT('',(-0.011,0.0071453326381743,-0.020118));
#1984=CARTESIAN_POINT('',(0.,0.01,0.00238185259513557));
#1985=CARTESIAN_POINT('',(-0.0115,0.01,-0.0156181474048645));
#1986=CARTESIAN_POINT('',(-0.0145,0.01,-0.0156181474048645));
#1987=CARTESIAN_POINT('',(-0.0145,0.01,0.00238185259513557));
#1988=CARTESIAN_POINT('',(-0.0145,0.01,0.0203818525951356));
#1989=CARTESIAN_POINT('',(-0.0115,0.01,0.0203818525951356));
#1990=CARTESIAN_POINT('',(-0.0114999981485307,0.00999995425343514,0.0233818525951356));
#1991=CARTESIAN_POINT('',(-0.0114999962970614,0.00999990850687027,0.027382));
#1992=CARTESIAN_POINT('',(-0.0114999981485307,0.00999995425343514,0.0223819262975678));
#1993=CARTESIAN_POINT('',(-0.0115,0.01,0.0203818525951356));
#1994=CARTESIAN_POINT('',(-0.0135,0.01,0.0203818525951356));
#1995=CARTESIAN_POINT('',(-0.0135,0.01,0.0133818525951356));
#1996=CARTESIAN_POINT('',(-0.0135,0.01,-0.0156181474048645));
#1997=CARTESIAN_POINT('',(-0.0115,0.01,-0.0156181474048645));
#1998=CARTESIAN_POINT('',(0.01,0.00714396962150938,0.027382));
#1999=CARTESIAN_POINT('',(0.01,0.00849995414167643,0.024882));
#2000=CARTESIAN_POINT('',(0.01,0.00799995414167643,0.024882));
#2001=CARTESIAN_POINT('',(0.01,0.00999995414167643,0.027382));
#2002=CARTESIAN_POINT('',(0.01,0.00999995414167643,0.027382));
#2003=CARTESIAN_POINT('',(0.01,0.00999997707083821,0.0233818525951356));
#2004=CARTESIAN_POINT('',(0.01,0.00714396962150938,0.0233818525951356));
#2005=CARTESIAN_POINT('',(0.01,0.00439174719733002,0.0233818525951356));
#2006=CARTESIAN_POINT('',(0.01,0.00929075676947832,0.022382));
#2007=CARTESIAN_POINT('',(0.01,0.00929075676947832,0.027382));
#2008=CARTESIAN_POINT('',(0.01,0.00714396962150938,0.027382));
#2009=CARTESIAN_POINT('',(0.0114999627694488,0.00714535545557737,0.027382));
#2010=CARTESIAN_POINT('',(0.0114999627694488,0.00714535545557737,0.0233818525951356));
#2011=CARTESIAN_POINT('',(0.0114999813847244,0.00999997707083821,0.0233818525951356));
#2012=CARTESIAN_POINT('',(0.0114999627694488,0.00439174719733002,0.0233818525951356));
#2013=CARTESIAN_POINT('',(0.0114999627694488,0.00999995414167643,0.027382));
#2014=CARTESIAN_POINT('',(0.0114999627694488,0.00999995414167643,0.027382));
#2015=CARTESIAN_POINT('',(0.0114999627694488,0.00714535545557737,0.027382));
#2016=CARTESIAN_POINT('',(0.0114999627694488,0.00929075676947832,0.027382));
#2017=CARTESIAN_POINT('',(0.0114999627694488,0.00929075676947832,0.022382));
#2018=CARTESIAN_POINT('',(-1.67638063430786E-8,0.00929075676947832,0.022382));
#2019=CARTESIAN_POINT('',(-1.67638063430786E-8,0.00439174719733002,0.0233818525951356));
#2020=CARTESIAN_POINT('',(0.0114999627694488,0.00929075676947832,0.027382));
#2021=CARTESIAN_POINT('',(0.0107499813847244,0.00999995414167643,0.027382));
#2022=CARTESIAN_POINT('',(0.0114999627694488,0.00999995414167643,0.027382));
#2023=CARTESIAN_POINT('',(0.0114999813847244,0.00999997707083821,0.0223819262975678));
#2024=CARTESIAN_POINT('',(0.0107499813847244,0.00999995414167643,0.022382));
#2025=CARTESIAN_POINT('',(0.01,0.00999997707083821,0.0223819262975678));
#2026=CARTESIAN_POINT('',(0.01,0.00999995414167643,0.027382));
#2027=CARTESIAN_POINT('',(0.0107499813847244,0.00999995414167643,0.027382));
#2028=CARTESIAN_POINT('',(-1.67638063430786E-8,0.00714535545557737,0.027382));
#2029=CARTESIAN_POINT('',(-1.67638063430786E-8,0.00714535545557737,0.022382));
#2030=CARTESIAN_POINT('',(0.01,0.00714396962150938,0.022382));
#2031=CARTESIAN_POINT('',(0.01,0.00429075677056473,0.0223819262975678));
#2032=CARTESIAN_POINT('',(0.0114999627694488,0.00714535545557737,0.022382));
#2033=CARTESIAN_POINT('',(0.0114999813847244,0.00429075677056473,0.0223819262975678));
#2034=CARTESIAN_POINT('',(0.0107499813847244,0.00429075676947832,0.022382));
#2035=CARTESIAN_POINT('',(0.011,0.00849995414167643,0.024882));
#2036=CARTESIAN_POINT('',(0.011,0.00849995414167643,0.024882));
#2037=CARTESIAN_POINT('',(0.011,0.00799995414167643,0.024882));
#2038=CARTESIAN_POINT('',(0.011,0.00714535545557737,0.024882));
#2039=CARTESIAN_POINT('',(0.,0.01,0.0233818525951356));
#2040=CARTESIAN_POINT('',(0.0115,0.01,0.0233818525951356));
#2041=CARTESIAN_POINT('',(0.0115,0.,0.0233818525951356));
#2042=CARTESIAN_POINT('',(0.,0.01,0.0233818525951356));
#2043=CARTESIAN_POINT('',(-0.01,0.00999995425343514,0.0233818525951356));
#2044=CARTESIAN_POINT('',(-0.01,0.00714396962150937,0.0233818525951356));
#2045=CARTESIAN_POINT('',(-0.01,0.00439174719733002,0.0233818525951356));
#2046=CARTESIAN_POINT('',(-0.0107499981485307,0.00439174719733002,0.0233818525951356));
#2047=CARTESIAN_POINT('',(-0.0115,0.00439174719733002,0.0233818525951356));
#2048=CARTESIAN_POINT('',(-0.0115,0.01,0.0233818525951356));
#2049=CARTESIAN_POINT('',(-0.0115,0.,0.0233818525951356));
#2050=CARTESIAN_POINT('',(0.,0.,0.0233818525951356));
#2051=CARTESIAN_POINT('',(0.,0.01,0.00238185259513557));
#2052=CARTESIAN_POINT('',(0.0115,0.01,-0.0156181474048645));
#2053=CARTESIAN_POINT('',(0.0145,0.01,-0.0156181474048645));
#2054=CARTESIAN_POINT('',(0.0115,0.01,-0.0156181474048645));
#2055=CARTESIAN_POINT('',(0.0135,0.01,-0.0156181474048645));
#2056=CARTESIAN_POINT('',(0.0135,0.01,-0.00161814740486444));
#2057=CARTESIAN_POINT('',(0.0135,0.01,0.0203818525951356));
#2058=CARTESIAN_POINT('',(0.0115,0.01,0.0203818525951356));
#2059=CARTESIAN_POINT('',(0.0115,0.01,0.0203818525951356));
#2060=CARTESIAN_POINT('',(0.0145,0.01,0.0203818525951356));
#2061=CARTESIAN_POINT('',(0.0145,0.01,0.00238185259513557));
#2062=CARTESIAN_POINT('',(0.0085,0.01,0.0223818525951355));
#2063=CARTESIAN_POINT('',(0.0115,0.01,0.0223818525951355));
#2064=CARTESIAN_POINT('',(0.0115,0.,0.0223818525951355));
#2065=CARTESIAN_POINT('',(0.0085,0.,0.0223818525951355));
#2066=CARTESIAN_POINT('',(0.0055,0.,0.0223818525951355));
#2067=CARTESIAN_POINT('',(0.0055,0.001,0.0223818525951355));
#2068=CARTESIAN_POINT('',(0.0055,0.001,0.0223818525951355));
#2069=CARTESIAN_POINT('',(0.0085,0.001,0.0223818525951355));
#2070=CARTESIAN_POINT('',(-0.0055,0.001,0.0223818525951355));
#2071=CARTESIAN_POINT('',(-0.0055,0.001,0.0223818525951355));
#2072=CARTESIAN_POINT('',(-0.0055,0.,0.0223818525951355));
#2073=CARTESIAN_POINT('',(0.0085,0.,0.0223818525951355));
#2074=CARTESIAN_POINT('',(-0.0115,0.,0.0223818525951355));
#2075=CARTESIAN_POINT('',(-0.0115,0.01,0.0223818525951355));
#2076=CARTESIAN_POINT('',(-0.0114999981485307,0.00429075677056473,0.0223819262975678));
#2077=CARTESIAN_POINT('',(-0.0107499981485307,0.00429075676947832,0.022382));
#2078=CARTESIAN_POINT('',(-0.01,0.00429075677056473,0.0223819262975678));
#2079=CARTESIAN_POINT('',(-0.01,0.00714396962150937,0.022382));
#2080=CARTESIAN_POINT('',(-0.01,0.00999995425343514,0.0223819262975678));
#2081=CARTESIAN_POINT('',(0.0085,0.01,0.0223818525951355));
#2082=CARTESIAN_POINT('',(-0.01,0.00714396962150937,0.027382));
#2083=CARTESIAN_POINT('',(-0.01,0.00849995414167643,0.024882));
#2084=CARTESIAN_POINT('',(-0.01,0.00799995414167643,0.024882));
#2085=CARTESIAN_POINT('',(-0.01,0.00929075676947832,0.022382));
#2086=CARTESIAN_POINT('',(-0.01,0.00929075676947832,0.027382));
#2087=CARTESIAN_POINT('',(-0.01,0.00999990850687027,0.027382));
#2088=CARTESIAN_POINT('',(-0.01,0.00999990850687027,0.027382));
#2089=CARTESIAN_POINT('',(-0.01,0.00714396962150937,0.027382));
#2090=CARTESIAN_POINT('',(-0.0114999962970614,0.0071453326381743,0.027382));
#2091=CARTESIAN_POINT('',(-0.0114999962970614,0.00999990850687027,0.027382));
#2092=CARTESIAN_POINT('',(-0.0114999962970614,0.00999990850687027,0.027382));
#2093=CARTESIAN_POINT('',(-0.0115,0.01,0.0233818525951356));
#2094=CARTESIAN_POINT('',(-0.0114999962970614,0.00929075676947832,0.022382));
#2095=CARTESIAN_POINT('',(-0.0114999962970614,0.00929075676947832,0.027382));
#2096=CARTESIAN_POINT('',(-0.0114999962970614,0.0071453326381743,0.027382));
#2097=CARTESIAN_POINT('',(-0.0107499981485307,0.00929075676947832,0.022382));
#2098=CARTESIAN_POINT('',(-1.67638063430786E-8,0.00929075676947832,0.027382));
#2099=CARTESIAN_POINT('',(-0.0107499981485307,0.00999990850687027,0.027382));
#2100=CARTESIAN_POINT('',(-0.0107499981485307,0.00999990850687027,0.027382));
#2101=CARTESIAN_POINT('',(-0.01,0.00999990850687027,0.027382));
#2102=CARTESIAN_POINT('',(-0.0107499981485307,0.00999990850687027,0.022382));
#2103=CARTESIAN_POINT('',(-1.67638063430786E-8,0.00714535545557737,0.027382));
#2104=CARTESIAN_POINT('',(-1.67638063430786E-8,0.00714535545557737,0.022382));
#2105=CARTESIAN_POINT('',(-0.0114999962970614,0.0071453326381743,0.022382));
#2106=CARTESIAN_POINT('',(-0.011,0.00849995414167643,0.024882));
#2107=CARTESIAN_POINT('',(-0.011,0.00849995414167643,0.024882));
#2108=CARTESIAN_POINT('',(-0.011,0.00799995414167643,0.024882));
#2109=CARTESIAN_POINT('',(-0.011,0.00714535545557737,0.024882));
#2110=CARTESIAN_POINT('',(0.0115,0.01,0.0203818525951356));
#2111=CARTESIAN_POINT('',(0.0115,0.,0.0203818525951356));
#2112=CARTESIAN_POINT('',(0.0145,0.,0.0203818525951356));
#2113=CARTESIAN_POINT('',(0.0145,0.01,0.0203818525951356));
#2114=CARTESIAN_POINT('',(0.0145,0.01,0.00238185259513557));
#2115=CARTESIAN_POINT('',(0.0145,0.,0.00238185259513557));
#2116=CARTESIAN_POINT('',(0.0145,0.,-0.0156181474048645));
#2117=CARTESIAN_POINT('',(0.0145,0.01,-0.0156181474048645));
#2118=CARTESIAN_POINT('',(0.0115,0.01,-0.0156181474048645));
#2119=CARTESIAN_POINT('',(0.0115,0.,-0.0156181474048645));
#2120=CARTESIAN_POINT('',(-0.0115,0.01,-0.0156181474048645));
#2121=CARTESIAN_POINT('',(-0.0115,0.,-0.0156181474048645));
#2122=CARTESIAN_POINT('',(-0.0145,0.,-0.0156181474048645));
#2123=CARTESIAN_POINT('',(-0.0145,0.01,-0.0156181474048645));
#2124=CARTESIAN_POINT('',(-0.0145,0.01,0.00238185259513557));
#2125=CARTESIAN_POINT('',(-0.0145,0.,0.00238185259513557));
#2126=CARTESIAN_POINT('',(-0.0145,0.,0.0203818525951356));
#2127=CARTESIAN_POINT('',(-0.0145,0.01,0.0203818525951356));
#2128=CARTESIAN_POINT('',(-0.0115,0.01,0.0203818525951356));
#2129=CARTESIAN_POINT('',(-0.0115,0.,0.0203818525951356));
#2130=CARTESIAN_POINT('',(-0.0135,0.01,0.0133818525951356));
#2131=CARTESIAN_POINT('',(-0.0135,0.001,0.0133818525951356));
#2132=CARTESIAN_POINT('',(-0.0135,0.001,-0.0156181474048645));
#2133=CARTESIAN_POINT('',(-0.0135,0.001,0.0143818525951356));
#2134=CARTESIAN_POINT('',(-0.0135,0.01,-0.0156181474048645));
#2135=CARTESIAN_POINT('',(-0.0135,0.01,0.0203818525951356));
#2136=CARTESIAN_POINT('',(-0.0135,0.,0.0203818525951356));
#2137=CARTESIAN_POINT('',(-0.0135,0.,0.0133818525951356));
#2138=CARTESIAN_POINT('',(-0.0135,0.,0.0143818525951356));
#2139=CARTESIAN_POINT('',(-0.0135,0.001,0.0143818525951356));
#2140=CARTESIAN_POINT('',(-0.0115,0.01,-0.0156181474048645));
#2141=CARTESIAN_POINT('',(-0.0115,0.001,-0.0156181474048645));
#2142=CARTESIAN_POINT('',(-0.0115,0.001,-0.0176181474048644));
#2143=CARTESIAN_POINT('',(-0.0115,0.01,-0.0176181474048644));
#2144=CARTESIAN_POINT('',(3.46944695195361E-18,0.01,-0.0176181474048644));
#2145=CARTESIAN_POINT('',(3.46944695195361E-18,0.001,-0.0176181474048644));
#2146=CARTESIAN_POINT('',(0.0115,0.001,-0.0176181474048644));
#2147=CARTESIAN_POINT('',(0.0115,0.01,-0.0176181474048644));
#2148=CARTESIAN_POINT('',(0.0115,0.01,-0.0156181474048645));
#2149=CARTESIAN_POINT('',(0.0115,0.001,-0.0156181474048645));
#2150=CARTESIAN_POINT('',(0.0135,0.001,-0.0156181474048645));
#2151=CARTESIAN_POINT('',(0.0135,0.01,-0.0156181474048645));
#2152=CARTESIAN_POINT('',(0.0135,0.01,-0.00161814740486444));
#2153=CARTESIAN_POINT('',(0.0135,0.001,-0.00161814740486444));
#2154=CARTESIAN_POINT('',(0.0135,0.001,0.0143818525951356));
#2155=CARTESIAN_POINT('',(0.0135,0.001,0.0143818525951356));
#2156=CARTESIAN_POINT('',(0.0135,0.,0.0143818525951356));
#2157=CARTESIAN_POINT('',(0.0135,0.,-0.00161814740486444));
#2158=CARTESIAN_POINT('',(0.0135,0.,0.0203818525951356));
#2159=CARTESIAN_POINT('',(0.0135,0.01,0.0203818525951356));
#2160=CARTESIAN_POINT('',(0.0115,0.01,0.0203818525951356));
#2161=CARTESIAN_POINT('',(0.0115,0.,0.0203818525951356));
#2162=CARTESIAN_POINT('',(-0.0115,0.01,0.0203818525951356));
#2163=CARTESIAN_POINT('',(-0.0115,0.,0.0203818525951356));
#2164=CARTESIAN_POINT('',(0.,0.01,0.00238185259513557));
#2165=CARTESIAN_POINT('',(0.,0.,0.00238185259513557));
#2166=CARTESIAN_POINT('',(-0.0115,0.,0.0143818525951356));
#2167=CARTESIAN_POINT('',(-0.0115,0.,0.0123818525951356));
#2168=CARTESIAN_POINT('',(-0.0055,0.,0.0203818525951356));
#2169=CARTESIAN_POINT('',(-0.0035,0.,0.0203818525951356));
#2170=CARTESIAN_POINT('',(-0.0035,0.,0.0173818525951356));
#2171=CARTESIAN_POINT('',(-0.0035,0.,0.0143818525951356));
#2172=CARTESIAN_POINT('',(-0.0055,0.,0.0143818525951356));
#2173=CARTESIAN_POINT('',(-0.0055,0.,0.0123818525951356));
#2174=CARTESIAN_POINT('',(-0.0085,0.,0.0123818525951356));
#2175=CARTESIAN_POINT('',(0.0115,0.,0.0143818525951356));
#2176=CARTESIAN_POINT('',(0.0115,0.,0.0123818525951356));
#2177=CARTESIAN_POINT('',(0.0085,0.,0.0123818525951356));
#2178=CARTESIAN_POINT('',(0.0055,0.,0.0123818525951356));
#2179=CARTESIAN_POINT('',(0.0055,0.,0.0143818525951356));
#2180=CARTESIAN_POINT('',(0.0035,0.,0.0143818525951356));
#2181=CARTESIAN_POINT('',(0.0035,0.,0.0173818525951356));
#2182=CARTESIAN_POINT('',(0.0035,0.,0.0203818525951356));
#2183=CARTESIAN_POINT('',(0.0055,0.,0.0203818525951356));
#2184=CARTESIAN_POINT('',(-2.81892564846231E-18,0.,0.0173818525951356));
#2185=CARTESIAN_POINT('',(0.0015,0.,0.0173818525951356));
#2186=CARTESIAN_POINT('',(0.011,0.,-0.00571814740486443));
#2187=CARTESIAN_POINT('',(0.011,0.,-0.000218147404864432));
#2188=CARTESIAN_POINT('',(0.011,0.,-0.0112181474048644));
#2189=CARTESIAN_POINT('',(-3.46944695195361E-18,0.,-0.0112181474048644));
#2190=CARTESIAN_POINT('',(-0.011,0.,-0.0112181474048644));
#2191=CARTESIAN_POINT('',(-0.011,0.,-0.00571814740486443));
#2192=CARTESIAN_POINT('',(-0.011,0.,-0.000218147404864432));
#2193=CARTESIAN_POINT('',(-3.46944695195361E-18,0.,-0.000218147404864432));
#2194=CARTESIAN_POINT('',(0.011,0.001,-0.00571814740486443));
#2195=CARTESIAN_POINT('',(0.011,0.001,-0.000218147404864432));
#2196=CARTESIAN_POINT('',(0.011,0.001,-0.000218147404864432));
#2197=CARTESIAN_POINT('',(0.011,0.001,-0.00571814740486443));
#2198=CARTESIAN_POINT('',(0.011,0.001,-0.0112181474048644));
#2199=CARTESIAN_POINT('',(0.011,0.001,-0.0112181474048644));
#2200=CARTESIAN_POINT('',(-3.46944695195361E-18,0.001,-0.000218147404864432));
#2201=CARTESIAN_POINT('',(-0.011,0.001,-0.000218147404864432));
#2202=CARTESIAN_POINT('',(-0.011,0.001,-0.000218147404864432));
#2203=CARTESIAN_POINT('',(-3.46944695195361E-18,0.001,-0.000218147404864432));
#2204=CARTESIAN_POINT('',(-0.011,0.001,-0.00571814740486443));
#2205=CARTESIAN_POINT('',(-0.011,0.001,-0.0112181474048644));
#2206=CARTESIAN_POINT('',(-0.011,0.001,-0.0112181474048644));
#2207=CARTESIAN_POINT('',(-0.011,0.001,-0.00571814740486443));
#2208=CARTESIAN_POINT('',(0.0115,0.001,0.0143818525951356));
#2209=CARTESIAN_POINT('',(0.0115,0.001,0.0143818525951356));
#2210=CARTESIAN_POINT('',(0.0115,0.001,0.0123818525951356));
#2211=CARTESIAN_POINT('',(0.0115,0.001,0.0123818525951356));
#2212=CARTESIAN_POINT('',(0.0055,0.001,0.0203818525951356));
#2213=CARTESIAN_POINT('',(0.0035,0.001,0.0203818525951356));
#2214=CARTESIAN_POINT('',(0.0035,0.001,0.0203818525951356));
#2215=CARTESIAN_POINT('',(0.0055,0.001,0.0203818525951356));
#2216=CARTESIAN_POINT('',(0.0035,0.001,0.0173818525951356));
#2217=CARTESIAN_POINT('',(0.0035,0.001,0.0143818525951356));
#2218=CARTESIAN_POINT('',(0.0035,0.001,0.0143818525951356));
#2219=CARTESIAN_POINT('',(0.0035,0.001,0.0173818525951356));
#2220=CARTESIAN_POINT('',(0.0055,0.001,0.0143818525951356));
#2221=CARTESIAN_POINT('',(0.0055,0.001,0.0123818525951356));
#2222=CARTESIAN_POINT('',(0.0055,0.001,0.0123818525951356));
#2223=CARTESIAN_POINT('',(0.0055,0.001,0.0143818525951356));
#2224=CARTESIAN_POINT('',(-0.0115,0.001,0.0143818525951356));
#2225=CARTESIAN_POINT('',(-0.0115,0.001,0.0123818525951356));
#2226=CARTESIAN_POINT('',(-0.0115,0.001,0.0123818525951356));
#2227=CARTESIAN_POINT('',(-0.0115,0.001,0.0143818525951356));
#2228=CARTESIAN_POINT('',(-0.0085,0.001,0.0123818525951356));
#2229=CARTESIAN_POINT('',(-0.0055,0.001,0.0123818525951356));
#2230=CARTESIAN_POINT('',(-0.0055,0.001,0.0123818525951356));
#2231=CARTESIAN_POINT('',(-0.0085,0.001,0.0123818525951356));
#2232=CARTESIAN_POINT('',(-0.0055,0.001,0.0143818525951356));
#2233=CARTESIAN_POINT('',(-0.0035,0.001,0.0143818525951356));
#2234=CARTESIAN_POINT('',(-0.0035,0.001,0.0143818525951356));
#2235=CARTESIAN_POINT('',(-0.0055,0.001,0.0143818525951356));
#2236=CARTESIAN_POINT('',(-0.0035,0.001,0.0173818525951356));
#2237=CARTESIAN_POINT('',(-0.0035,0.001,0.0203818525951356));
#2238=CARTESIAN_POINT('',(-0.0035,0.001,0.0203818525951356));
#2239=CARTESIAN_POINT('',(-0.0035,0.001,0.0173818525951356));
#2240=CARTESIAN_POINT('',(-0.0055,0.001,0.0203818525951356));
#2241=CARTESIAN_POINT('',(-0.0055,0.001,0.0203818525951356));
#2242=CARTESIAN_POINT('',(-3.46944695195361E-18,0.001,-0.0112181474048644));
#2243=CARTESIAN_POINT('',(-3.46944695195361E-18,0.001,-0.0112181474048644));
#2244=CARTESIAN_POINT('',(0.0085,0.001,0.0123818525951356));
#2245=CARTESIAN_POINT('',(0.0085,0.001,0.0123818525951356));
#2246=CARTESIAN_POINT('',(-2.81892564846231E-18,0.001,0.0173818525951356));
#2247=CARTESIAN_POINT('',(-2.81892564846231E-18,0.001,0.0173818525951356));
#2248=CARTESIAN_POINT('',(0.0015,0.001,0.0173818525951356));
#2249=CARTESIAN_POINT('',(0.,0.001,0.00238185259513557));
#2250=MECHANICAL_DESIGN_GEOMETRIC_PRESENTATION_REPRESENTATION('',(#1278,
#12,#13,#14,#15,#16,#17,#18,#19,#20,#21,#22,#23,#24,#25,#26,#27,#28,#29,
#30,#31,#32),#2251);
#2251=(
GEOMETRIC_REPRESENTATION_CONTEXT(3)
GLOBAL_UNCERTAINTY_ASSIGNED_CONTEXT((#2252))
GLOBAL_UNIT_ASSIGNED_CONTEXT((#2255,#2254,#2253))
REPRESENTATION_CONTEXT('Part 1','TOP_LEVEL_ASSEMBLY_PART')
);
#2252=UNCERTAINTY_MEASURE_WITH_UNIT(LENGTH_MEASURE(2.01735306848956E-5),
#2255,'DISTANCE_ACCURACY_VALUE','Maximum Tolerance applied to model');
#2253=(
NAMED_UNIT(*)
SI_UNIT($,.STERADIAN.)
SOLID_ANGLE_UNIT()
);
#2254=(
NAMED_UNIT(*)
PLANE_ANGLE_UNIT()
SI_UNIT($,.RADIAN.)
);
#2255=(
LENGTH_UNIT()
NAMED_UNIT(*)
SI_UNIT($,.METRE.)
);
#2256=PRODUCT_DEFINITION_SHAPE('','',#2257);
#2257=PRODUCT_DEFINITION('','',#2259,#2258);
#2258=PRODUCT_DEFINITION_CONTEXT('',#2265,'design');
#2259=PRODUCT_DEFINITION_FORMATION_WITH_SPECIFIED_SOURCE('','',#2261,
 .NOT_KNOWN.);
#2260=PRODUCT_RELATED_PRODUCT_CATEGORY('','',(#2261));
#2261=PRODUCT('Part 1','Part 1','Part 1',(#2263));
#2262=PRODUCT_CATEGORY('','');
#2263=PRODUCT_CONTEXT('',#2265,'mechanical');
#2264=APPLICATION_PROTOCOL_DEFINITION('international standard',
'ap242_managed_model_based_3d_engineering',2020,#2265);
#2265=APPLICATION_CONTEXT('managed model based 3d engineering');
ENDSEC;
END-ISO-10303-21;
